<svg id="Layer_1" data-name="Layer 1" xmlns="http://www.w3.org/2000/svg" viewBox="0 0 64 64">
  <defs>
    <style>
      .cls-1 {
        fill: currentColor;
      }
    </style>
  </defs>
  <path class="cls-1" d="M34.6,63.86h-5.22l-3.5-.54C13.56,60.95,3.58,51.22.87,38.98l-.71-4.33c.09-1.75-.12-3.61,0-5.34C1.06,16.41,10.88,4.9,23.16,1.4c22.71-6.47,44.26,13.02,40.21,36.24-2.41,13.86-14.63,25.3-28.78,26.22ZM40.44,14.76h-7.02c-2.98,0-6.28,3.46-6.28,6.4v5.53h-3.73v6.46h3.73v18.4h7.58v-18.4h5.1l.75-6.46h-5.84v-4.54c0-.34.89-1.18,1.18-1.18h4.54v-6.22Z"/>
</svg>