<!-- <svg id="Layer_1" data-name="Layer 1" xmlns="http://www.w3.org/2000/svg" xmlns:xlink="http://www.w3.org/1999/xlink"
  viewBox="0 0 400 190" width="400" height="190" version="1.1"> -->
<svg id="Layer_1" data-name="Layer 1" xmlns="http://www.w3.org/2000/svg" xmlns:xlink="http://www.w3.org/1999/xlink"
  viewBox="0 20 400 150" version="1.1">
  <defs>
    <style>
      .bmlc-cls1 {
        fill: #0020a4;
      }

      .bmlc-cls2 {
        fill: url(#linear-gradient);
      }

      .bmlc-cls3 {
        fill: url(#New_Gradient_Swatch_copy_5);
      }

      .bmlc-cls4 {
        fill: #fff;
      }

      .bmlc-cls5 {
        fill: #0089fd;
      }

      .bmlc-cls6 {
        fill: #015ae6;
      }

      .bmlc-cls7 {
        fill: #008afe;
      }
    </style>
    <path id="linear-gradient" x1="39.28" y1="70.53" x2="121.12" y2="152.37" gradientUnits="userSpaceOnUse" d="">
      <stop offset="0" stop-color="#0038cd"></stop>
      <stop offset="1" stop-color="#7ec3fd"></stop>
    </path>
    <path id="New_Gradient_Swatch_copy_5" data-name="New Gradient Swatch copy 5" x1="6.19" y1="52.82" x2="74.08"
      y2="120.71" gradientUnits="userSpaceOnUse" d="">
      <stop offset="0" stop-color="#7ec3fd"></stop>
      <stop offset="1" stop-color="#0038cd"></stop>
    </path>
  </defs>
  <g>
    <g>
      <path class="bmlc-cls6"
        d="M115.31 152.52c-2.25 -3.87 -7.57 -10.24 -8.69 -13.57 5.59 -5.31 9.1 -12.79 9.1 -21.11V92.82c0 -16.11 -13.06 -29.17 -29.17 -29.17H61.57c-16.11 0 -29.17 13.06 -29.17 29.17v24.98c0 16.11 13.06 29.17 29.17 29.17h23.95c5.84 -0.08 20.18 9.5 28.14 8.81 1.58 -0.14 2.45 -1.89 1.65 -3.26">
      </path>
      <path class="bmlc-cls2"
        d="M86.55 63.64c16.11 0 29.17 13.06 29.17 29.17v25.02c0 8.32 -3.5 15.801 -9.1 21.11 1.12 3.33 6.44 9.7 8.69 13.57 0.8 1.37 -0.07 3.13 -1.65 3.26q-0.405 0.03 -0.84 0.03c-8.06 0 -21.55 -8.85 -27.23 -8.85h-24.02c-16.11 0 -29.17 -13.06 -29.17 -29.17V92.8c0 -16.11 13.06 -29.17 29.17 -29.17h24.98m0 -2.35H61.57c-17.39 0 -31.54 14.15 -31.54 31.54v24.98c0 17.39 14.15 31.54 31.54 31.54h24.02c2.1 0 6.34 1.85 10.45 3.65 5.85 2.56 11.9 5.2 16.78 5.2 0.36 0 0.71 -0.01 1.04 -0.04a4.461 4.461 0 0 0 3.6 -2.4 4.561 4.561 0 0 0 -0.11 -4.4c-0.93 -1.6 -2.27 -3.49 -3.7 -5.5 -1.55 -2.19 -3.27 -4.599 -4.21 -6.37 5.59 -5.88 8.64 -13.5 8.64 -21.64V92.82c0 -17.39 -14.15 -31.53 -31.53 -31.53Z">
      </path>
    </g>
    <path class="bmlc-cls1"
      d="m99.64 98.49 4.79 -27.1a159.398 159.398 0 0 0 -0.76 -1.97 28.872 28.872 0 0 0 -17.35 -5.77H61.57c-16.11 0 -29.17 13.06 -29.17 29.17v24.75a28.772 28.772 0 0 0 2.85 12.54c0.5 -0.08 0.96 -0.12 1.37 -0.11h25.95c17.401 0 34 -14.11 37.08 -31.51Z">
    </path>
    <g>
      <path class="bmlc-cls5"
        d="M58.77 38.95H33.79c-16.11 0 -29.17 13.06 -29.17 29.17v25.02c0 8.32 3.5 15.801 9.1 21.11 -1.12 3.33 -6.44 9.7 -8.69 13.57 -0.8 1.37 0.07 3.13 1.65 3.26 7.96 0.68 22.3 -8.89 28.14 -8.81h23.95c16.11 0 29.17 -13.06 29.17 -29.17V68.12c0 -16.11 -13.06 -29.17 -29.17 -29.17">
      </path>
      <path class="bmlc-cls3"
        d="M7.5 132.31c-0.32 0 -0.62 -0.01 -0.92 -0.04a3.298 3.298 0 0 1 -2.65 -1.77 3.348 3.348 0 0 1 0.08 -3.26c0.9 -1.55 2.23 -3.42 3.64 -5.401 1.801 -2.53 3.81 -5.36 4.68 -7.28 -5.74 -5.73 -8.89 -13.3 -8.89 -21.41V68.13c0 -16.74 13.62 -30.35 30.35 -30.35h24.98c16.74 0 30.35 13.62 30.35 30.35v24.98c0 16.74 -13.62 30.35 -30.35 30.35h-24.01c-2.36 0 -6.52 1.82 -10.93 3.75 -5.49 2.4 -11.67 5.1 -16.33 5.1m26.29 -92.17c-15.43 0 -27.99 12.559 -27.99 27.99v25.02c0 7.72 3.1 14.91 8.73 20.26l0.55 0.52 -0.24 0.71c-0.74 2.201 -3.04 5.44 -5.26 8.57 -1.38 1.94 -2.68 3.77 -3.52 5.22 -0.26 0.44 -0.1 0.84 -0.03 0.99 0.07 0.14 0.29 0.47 0.76 0.51 4.13 0.34 10.49 -2.42 16.1 -4.87 4.89 -2.14 9.1 -3.99 11.95 -3.94h23.94c15.44 0 27.99 -12.56 27.99 -27.99V68.15c0 -15.43 -12.56 -27.99 -27.99 -27.99H33.799Z">
      </path>
    </g>
  </g>
  <g>
    <path class="bmlc-cls4"
      d="m155.22 63.64 -2.601 14.9c1.89 -2.05 4.34 -3.07 7.33 -3.07s5.23 0.98 6.71 2.93 2.22 4.5 2.22 7.66c0 6.19 -1.5 11.27 -4.49 15.25 -3.001 3.98 -7.35 5.97 -13.07 5.97 -7.88 0 -11.82 -3.55 -11.82 -10.64 0 -1.73 0.24 -4.02 0.71 -6.86l4.55 -26.13h10.46Zm0.24 20.81c-1.7 0 -3.04 1.15 -4.05 3.46a18.045 18.045 0 0 0 -1.51 7.24c0 1.42 0.22 2.43 0.65 3.02s1.16 0.89 2.19 0.89c1.69 0 3.04 -1.13 4.05 -3.401a17.644 17.644 0 0 0 1.51 -7.18c0 -1.42 -0.23 -2.44 -0.68 -3.07s-1.17 -0.95 -2.16 -0.95Z">
    </path>
    <path class="bmlc-cls4"
      d="M181.31 107.7c-6.01 0 -9.02 -2.66 -9.02 -7.99 0 -1.61 0.22 -3.63 0.66 -6.05L176.04 75.99h10.71l-2.78 15.98q-0.42 2.355 -0.42 3.93c0 1.98 0.81 2.96 2.42 2.96 1.37 0 2.48 -0.58 3.33 -1.75s1.51 -3.21 2 -6.11l2.601 -15.01h10.71l-5.39 30.86h-8.84c-0.08 -0.56 -0.12 -1.07 -0.12 -1.51 0 -1.09 0.04 -1.79 0.12 -2.12q-1.155 1.695 -3.69 3.09a11.028 11.028 0 0 1 -5.39 1.39Z">
    </path>
    <path class="bmlc-cls4"
      d="M221.14 75.76q5.79 0 10.29 2.01l-1.48 8.39c-2.92 -1.46 -5.79 -2.19 -8.63 -2.19 -1.46 0 -2.19 0.49 -2.19 1.48q0 0.945 2.13 1.89l2.13 0.95q6.33 2.835 6.33 8.1c0 7.45 -4.73 11.17 -14.19 11.17 -3.74 0 -7.33 -0.89 -10.76 -2.66l1.6 -8.93q5.325 3.312 10.05 3.31 2.31 0 2.31 -1.71 0 -0.945 -2.13 -1.89l-2.01 -0.89c-4.3 -1.89 -6.44 -4.73 -6.44 -8.51 0 -7.02 4.33 -10.52 13.01 -10.52Z">
    </path>
    <path class="bmlc-cls4"
      d="m233.37 106.85 5.39 -30.86h10.71l-5.39 30.86zm7.75 -34.7c-1.26 -1.26 -1.89 -2.78 -1.89 -4.55s0.63 -3.29 1.89 -4.55 2.78 -1.89 4.55 -1.89 3.29 0.63 4.55 1.89 1.89 2.78 1.89 4.55 -0.63 3.29 -1.89 4.55 -2.78 1.89 -4.55 1.89 -3.29 -0.63 -4.55 -1.89">
    </path>
    <path class="bmlc-cls4"
      d="M274.34 75.14c6.01 0 9.02 2.66 9.02 7.99 0 1.61 -0.22 3.63 -0.66 6.05l-3.09 17.67h-10.71l2.78 -15.98q0.42 -2.355 0.42 -3.93c0 -1.98 -0.81 -2.96 -2.42 -2.96 -1.37 0 -2.5 0.601 -3.39 1.78 -0.89 1.19 -1.57 3.22 -2.06 6.08l-2.601 15.01h-10.71l5.39 -30.86h8.84c0.08 0.56 0.12 1.07 0.12 1.51 0 1.09 -0.04 1.79 -0.12 2.12q1.095 -1.695 3.72 -3.09c1.75 -0.93 3.58 -1.39 5.48 -1.39Z">
    </path>
    <path class="bmlc-cls4"
      d="m304.03 94.56 -4.49 1.001q-1.95 0.42 -1.95 1.95c0 0.47 0.22 0.88 0.65 1.21 0.43 0.34 1.04 0.5 1.83 0.5 1.81 0 3.99 -0.33 6.53 -1.001s4.88 -1.48 7.01 -2.42l-1.54 8.69c-3.94 2.05 -8.24 3.07 -12.89 3.07 -3.98 0 -7.06 -1.12 -9.22 -3.37 -2.17 -2.25 -3.25 -5.22 -3.25 -8.93 0 -5.68 1.59 -10.35 4.76 -14.01 3.17 -3.67 7.38 -5.5 12.62 -5.5 3.59 0 6.44 0.84 8.57 2.51 2.13 1.68 3.19 3.69 3.19 6.06 0 3.15 -0.91 5.41 -2.72 6.77s-4.85 2.51 -9.1 3.46Zm-0.89 -10.52c-2.76 0 -4.49 1.83 -5.2 5.5l-0.12 0.59c0.31 -0.27 0.97 -0.53 1.95 -0.77l2.25 -0.53c1.18 -0.27 2.03 -0.64 2.54 -1.09s0.77 -1.09 0.77 -1.92c0 -0.51 -0.22 -0.94 -0.65 -1.27s-0.95 -0.5 -1.54 -0.5Z">
    </path>
    <path class="bmlc-cls4"
      d="M332.58 75.76q5.79 0 10.29 2.01l-1.48 8.39c-2.92 -1.46 -5.79 -2.19 -8.63 -2.19 -1.46 0 -2.19 0.49 -2.19 1.48q0 0.945 2.13 1.89l2.13 0.95q6.33 2.835 6.33 8.1c0 7.45 -4.73 11.17 -14.19 11.17 -3.74 0 -7.33 -0.89 -10.76 -2.66l1.6 -8.93q5.325 3.312 10.05 3.31 2.31 0 2.31 -1.71 0 -0.945 -2.13 -1.89l-2.01 -0.89c-4.3 -1.89 -6.44 -4.73 -6.44 -8.51 0 -7.02 4.33 -10.52 13.01 -10.52Z">
    </path>
    <path class="bmlc-cls4"
      d="M359.95 75.76q5.79 0 10.29 2.01l-1.48 8.39c-2.92 -1.46 -5.79 -2.19 -8.63 -2.19 -1.46 0 -2.19 0.49 -2.19 1.48q0 0.945 2.13 1.89l2.13 0.95q6.33 2.835 6.33 8.1c0 7.45 -4.73 11.17 -14.19 11.17 -3.74 0 -7.33 -0.89 -10.76 -2.66l1.6 -8.93q5.325 3.312 10.05 3.31 2.31 0 2.31 -1.71 0 -0.945 -2.13 -1.89l-2.01 -0.89c-4.3 -1.89 -6.44 -4.73 -6.44 -8.51 0 -7.02 4.33 -10.52 13.01 -10.52Z">
    </path>
  </g>
  <g>
    <path class="bmlc-cls4"
      d="m135.54 159.32 7.84 -44.75h9.23c0.08 0.5 0.13 0.97 0.13 1.39 0 0.93 -0.06 1.71 -0.19 2.34q1.14 -1.708 3.63 -3.16c2.49 -1.452 3.401 -1.45 5.21 -1.45q4.86 0 7.62 3.63c1.83 2.42 2.75 5.59 2.75 9.51 0 6.15 -1.33 11.17 -3.98 15.04 -2.65 3.88 -6.38 5.81 -11.19 5.81 -3.46 0 -5.92 -1.01 -7.39 -3.03l-2.53 14.66H135.549Zm15.83 -25.03q0 4.62 3.24 4.62c1.75 0 3.14 -1.11 4.18 -3.34 1.04 -2.22 1.56 -4.77 1.56 -7.64q0 -4.62 -3.24 -4.62c-1.75 0 -3.14 1.11 -4.18 3.34s-1.56 4.77 -1.56 7.64">
    </path>
    <path class="bmlc-cls4"
      d="m174.03 146.97 5.65 -32.41h9.28c0.08 0.51 0.13 1.001 0.13 1.46 0 1.23 -0.06 2.1 -0.19 2.61 1.61 -3.22 4.21 -4.83 7.82 -4.83 1.36 0 2.41 0.11 3.18 0.32l-1.84 10.55c-1.14 -0.42 -2.61 -0.64 -4.38 -0.64 -2.88 0 -4.7 2.05 -5.46 6.16l-2.92 16.77h-11.25Z">
    </path>
    <path class="bmlc-cls4"
      d="M228.42 127.3c0 6.11 -1.52 11.08 -4.55 14.88 -3.04 3.81 -7.36 5.71 -12.98 5.71 -4.12 0 -7.35 -1.2 -9.7 -3.59s-3.53 -5.52 -3.53 -9.39c0 -6.11 1.52 -11.07 4.55 -14.88 3.04 -3.81 7.36 -5.71 12.98 -5.71 4.12 0 7.35 1.2 9.7 3.59s3.53 5.52 3.53 9.39m-11.16 0.62c0 -1.37 -0.25 -2.48 -0.75 -3.34 -0.5 -0.85 -1.23 -1.28 -2.18 -1.28 -1.21 0 -2.25 0.601 -3.12 1.81s-1.49 2.61 -1.84 4.21 -0.53 3.25 -0.53 4.96c0 1.37 0.25 2.49 0.75 3.34s1.23 1.28 2.18 1.28c1.21 0 2.25 -0.601 3.12 -1.81s1.49 -2.61 1.84 -4.21 0.53 -3.25 0.53 -4.96">
    </path>
    <path class="bmlc-cls4"
      d="m265.11 114.57 -4.93 28.26c-1.96 11.11 -8.49 16.66 -19.59 16.66 -4.74 0 -8.53 -0.85 -11.36 -2.56l1.56 -9.05q4.74 2.37 9.42 2.37c2.41 0 4.39 -0.56 5.93 -1.69 1.54 -1.12 2.47 -2.64 2.81 -4.55l0.37 -2.06q-3.18 3.18 -7.799 3.18c-3.37 0 -5.83 -1.1 -7.39 -3.31q-2.34 -3.3 -2.34 -8.55 0 -8.67 3.78 -14.13c2.52 -3.64 6.27 -5.46 11.26 -5.46 3.83 0 6.61 1.54 8.36 4.62 0.25 -1.46 0.64 -2.7 1.18 -3.74h8.74Zm-13.29 12.92c0 -2.79 -1.12 -4.18 -3.37 -4.18 -1.75 0 -3.1 0.93 -4.06 2.78s-1.43 4.05 -1.43 6.58c0 2.83 1.1 4.24 3.31 4.24 1.83 0 3.2 -0.91 4.12 -2.74 0.91 -1.83 1.39 -4.06 1.43 -6.68">
    </path>
    <path class="bmlc-cls4"
      d="m267.001 146.97 5.65 -32.41h9.28c0.08 0.51 0.13 1.001 0.13 1.46 0 1.23 -0.06 2.1 -0.19 2.61 1.61 -3.22 4.21 -4.83 7.82 -4.83 1.36 0 2.41 0.11 3.18 0.32l-1.84 10.55c-1.14 -0.42 -2.61 -0.64 -4.38 -0.64 -2.88 0 -4.7 2.05 -5.46 6.16l-2.92 16.77h-11.25Z">
    </path>
    <path class="bmlc-cls4"
      d="m324.26 114.57 -5.72 32.41h-9.28a8.02 8.02 0 0 1 -0.13 -1.401c0 -1.06 0.04 -1.84 0.13 -2.35 -0.72 1.14 -1.92 2.201 -3.59 3.18 -1.67 0.97 -3.42 1.46 -5.24 1.46 -3.26 0 -5.81 -1.22 -7.66 -3.65 -1.84 -2.43 -2.76 -5.62 -2.76 -9.56 0 -6.18 1.33 -11.22 4 -15.12q4.005 -5.85 11.25 -5.85c3.56 0 6.18 1.31 7.88 3.94 0.25 -1.23 0.59 -2.25 1.02 -3.05h10.1Zm-13.79 13.35q0 -4.62 -3.24 -4.62c-1.75 0 -3.14 1.11 -4.18 3.34s-1.56 4.77 -1.56 7.64q0 4.62 3.24 4.62c1.75 0 3.14 -1.11 4.18 -3.34 1.04 -2.22 1.56 -4.77 1.56 -7.64">
    </path>
    <path class="bmlc-cls4"
      d="M349.5 113.68c2.5 0 4.36 0.39 5.59 1.18 1.23 0.78 2.16 1.96 2.8 3.53 0.85 -1.19 2.17 -2.26 3.97 -3.24q2.701 -1.458 5.43 -1.46c2.8 0 4.98 0.68 6.54 2.03 1.57 1.36 2.35 3.41 2.35 6.16 0 1.78 -0.23 3.96 -0.7 6.54l-3.24 18.55h-11.25L363.91 130.202c0.3 -1.78 0.45 -3.09 0.45 -3.94 0 -2.201 -0.68 -3.3 -2.03 -3.3 -1.27 0 -2.3 0.59 -3.08 1.78s-1.45 3.35 -2 6.48l-2.73 15.76h-11.25l2.92 -16.77c0.3 -1.78 0.44 -3.09 0.44 -3.94 0 -2.201 -0.68 -3.3 -2.03 -3.3 -1.27 0 -2.3 0.59 -3.08 1.78s-1.45 3.35 -2 6.48l-2.73 15.76h-11.25l5.65 -32.41h9.28c0.08 0.59 0.13 1.12 0.13 1.59 0 1.14 -0.04 1.89 -0.13 2.22 0.8 -1.19 2.09 -2.26 3.84 -3.24 1.76 -0.97 3.48 -1.46 5.18 -1.46Z">
    </path>
  </g>
  <path class="bmlc-cls7" cx="388.85" cy="139.26" r="7.72"
    d="M396.57 139.26a7.719 7.719 0 0 1 -7.72 7.72 7.719 7.719 0 0 1 -7.72 -7.72 7.72 7.72 0 0 1 15.441 0"></path>
  <g>
    <path class="bmlc-cls4"
      points="163.03 32.71 163.03 57.55 158.68 57.55 158.68 39.99 150.86 51.45 143.04 39.99 143.04 57.55 138.69 57.55 138.69 32.71 143.33 32.71 150.86 44.33 158.39 32.71 163.03 32.71"
      d="M163.03 32.71v24.84h-4.35V39.99l-7.82 11.46 -7.821 -11.46v17.56h-4.35V32.71h4.641l7.53 11.62 7.53 -11.62z">
    </path>
    <path class="bmlc-cls4"
      d="M293.34 49.6V32.83s0.12 -0.13 0.13 -0.13h4.31v24.84h-3.64L280.55 40.06v17.48h-4.31s-0.13 -0.12 -0.13 -0.13V32.82s0.12 -0.13 0.13 -0.13h3.93c4.47 5.57 8.7 11.34 13.17 16.9Z">
    </path>
    <path class="bmlc-cls4"
      d="M250.601 32.71h11.76c5.76 0.07 10.01 4.63 8.19 10.46 -0.89 2.86 -2.79 3.9 -5.36 4.93 -0.09 0.03 -0.14 -0.05 -0.11 0.13l6.61 9.33h-5.14c-2.05 -2.85 -4.12 -5.71 -6.06 -8.62h-5.44v8.49s-0.12 0.13 -0.13 0.13h-4.31v-24.842Zm4.429 12.291c2.4 -0.16 5.12 0.26 7.47 -0.09 2.92 -0.44 4.77 -2.92 3.58 -5.82 -0.56 -1.37 -2.47 -2.37 -3.9 -2.37h-7.15z">
    </path>
    <path class="bmlc-cls4"
      d="M180.41 32.31c9.1 -0.49 15.76 7.59 13.25 16.43 -3.22 11.38 -19.66 12.52 -24.35 1.72 -3.64 -8.38 1.97 -17.66 11.1 -18.16Zm-0.25 4.1c-10.24 0.95 -9.55 18.18 1.73 17.46 10.71 -0.68 9.96 -18.55 -1.73 -17.46">
    </path>
    <path class="bmlc-cls4"
      d="M199.33 57.55V32.71h9.92c16.51 0.63 16.9 24.05 -0.08 24.85 -3.23 0.15 -6.59 -0.12 -9.83 0Zm4.43 -4.01c2.51 -0.12 5.17 0.3 7.61 -0.38 7.56 -2.11 7.71 -13.42 0.38 -15.94 -2.52 -0.86 -5.37 -0.36 -7.99 -0.5v16.81Z">
    </path>
    <path class="bmlc-cls4"
      d="M245.33 32.71v4.01h-13.97v6.27h12.38v4.011h-12.38v6.52h14.14v4.01h-18.44s-0.13 -0.12 -0.13 -0.13V32.81s0.12 -0.13 0.13 -0.13h18.28Z">
    </path>
  </g>
</svg>