<svg id="Layer_1" data-name="Layer 1" xmlns="http://www.w3.org/2000/svg" xmlns:xlink="http://www.w3.org/1999/xlink" viewBox="0 20 400 150">
  <defs>
    <style>
      .mbp-cls-1 {
        fill: #0020a4;
      }

      .mbp-cls-2 {
        fill: url(#linear-gradient);
      }

      .mbp-cls-3 {
        fill: url(#New_Gradient_Swatch_copy_5);
      }

      .mbp-cls-4 {
        fill: #fff;
      }

      .mbp-cls-5 {
        fill: #0089fd;
      }

      .mbp-cls-6 {
        fill: #015ae6;
      }

      .mbp-cls-7 {
        fill: #008afe;
      }
    </style>
    <linearGradient id="linear-gradient" x1="39.28" y1="70.53" x2="121.12" y2="152.37" gradientUnits="userSpaceOnUse">
      <stop offset="0" stop-color="#0038cd"/>
      <stop offset="1" stop-color="#7ec3fd"/>
    </linearGradient>
    <linearGradient id="New_Gradient_Swatch_copy_5" data-name="New Gradient Swatch copy 5" x1="6.19" y1="52.82" x2="74.08" y2="120.71" gradientUnits="userSpaceOnUse">
      <stop offset="0" stop-color="#7ec3fd"/>
      <stop offset="1" stop-color="#0038cd"/>
    </linearGradient>
  </defs>
  <g>
    <g>
      <path class="mbp-cls-6" d="M115.31,152.52c-2.25-3.87-7.57-10.24-8.69-13.57,5.59-5.31,9.1-12.79,9.1-21.11v-25.02c0-16.11-13.06-29.17-29.17-29.17h-24.98c-16.11,0-29.17,13.06-29.17,29.17v24.98c0,16.11,13.06,29.17,29.17,29.17h23.95c5.84-.08,20.18,9.5,28.14,8.81,1.58-.14,2.45-1.89,1.65-3.26Z"/>
      <path class="mbp-cls-2" d="M86.55,63.64c16.11,0,29.17,13.06,29.17,29.17v25.02c0,8.32-3.5,15.8-9.1,21.11,1.12,3.33,6.44,9.7,8.69,13.57.8,1.37-.07,3.13-1.65,3.26-.27.02-.55.03-.84.03-8.06,0-21.55-8.85-27.23-8.85-.02,0-.05,0-.07,0h-23.95c-16.11,0-29.17-13.06-29.17-29.17v-24.98c0-16.11,13.06-29.17,29.17-29.17h24.98M86.55,61.28h-24.98c-17.39,0-31.54,14.15-31.54,31.54v24.98c0,17.39,14.15,31.54,31.54,31.54h24.02c2.1,0,6.34,1.85,10.45,3.65,5.85,2.56,11.9,5.2,16.78,5.2.36,0,.71-.01,1.04-.04,1.54-.13,2.89-1.03,3.6-2.4.72-1.39.68-3.04-.11-4.4-.93-1.6-2.27-3.49-3.7-5.5-1.55-2.19-3.27-4.6-4.21-6.37,5.59-5.88,8.64-13.5,8.64-21.64v-25.02c0-17.39-14.15-31.53-31.53-31.53h0Z"/>
    </g>
    <path class="mbp-cls-1" d="M99.64,98.49l4.79-27.1c-.24-.63-.51-1.34-.76-1.97-4.84-3.62-10.84-5.77-17.35-5.77h-24.75c-16.11,0-29.17,13.06-29.17,29.17v24.75c0,4.49,1.02,8.75,2.85,12.54.5-.08.96-.12,1.37-.11h25.95c17.4,0,34-14.11,37.08-31.51Z"/>
    <g>
      <path class="mbp-cls-5" d="M58.77,38.95h-24.98c-16.11,0-29.17,13.06-29.17,29.17v25.02c0,8.32,3.5,15.8,9.1,21.11-1.12,3.33-6.44,9.7-8.69,13.57-.8,1.37.07,3.13,1.65,3.26,7.96.68,22.3-8.89,28.14-8.81h23.95c16.11,0,29.17-13.06,29.17-29.17v-24.98c0-16.11-13.06-29.17-29.17-29.17Z"/>
      <path class="mbp-cls-3" d="M7.5,132.31c-.32,0-.62-.01-.92-.04-1.13-.1-2.13-.76-2.65-1.77-.54-1.03-.51-2.25.08-3.26.9-1.55,2.23-3.42,3.64-5.4,1.8-2.53,3.81-5.36,4.68-7.28-5.74-5.73-8.89-13.3-8.89-21.41v-25.02c0-16.74,13.62-30.35,30.35-30.35h24.98c16.74,0,30.35,13.62,30.35,30.35v24.98c0,16.74-13.62,30.35-30.35,30.35h-24.01c-2.36,0-6.52,1.82-10.93,3.75-5.49,2.4-11.67,5.1-16.33,5.1ZM33.79,40.14c-15.43,0-27.99,12.56-27.99,27.99v25.02c0,7.72,3.1,14.91,8.73,20.26l.55.52-.24.71c-.74,2.2-3.04,5.44-5.26,8.57-1.38,1.94-2.68,3.77-3.52,5.22-.26.44-.1.84-.03.99.07.14.29.47.76.51,4.13.34,10.49-2.42,16.1-4.87,4.89-2.14,9.1-3.99,11.95-3.94h23.94c15.44,0,27.99-12.56,27.99-27.99v-24.98c0-15.43-12.56-27.99-27.99-27.99h-24.98Z"/>
    </g>
  </g>
  <g>
    <path class="mbp-cls-4" d="M155.22,63.64l-2.6,14.9c1.89-2.05,4.34-3.07,7.33-3.07s5.23.98,6.71,2.93c1.48,1.95,2.22,4.5,2.22,7.66,0,6.19-1.5,11.27-4.49,15.25-3,3.98-7.35,5.97-13.07,5.97-7.88,0-11.82-3.55-11.82-10.64,0-1.73.24-4.02.71-6.86l4.55-26.13h10.46ZM155.46,84.45c-1.7,0-3.04,1.15-4.05,3.46-1,2.31-1.51,4.72-1.51,7.24,0,1.42.22,2.43.65,3.02s1.16.89,2.19.89c1.69,0,3.04-1.13,4.05-3.4,1-2.27,1.51-4.66,1.51-7.18,0-1.42-.23-2.44-.68-3.07-.45-.63-1.17-.95-2.16-.95Z"/>
    <path class="mbp-cls-4" d="M181.31,107.7c-6.01,0-9.02-2.66-9.02-7.99,0-1.61.22-3.63.66-6.05l3.09-17.67h10.71l-2.78,15.98c-.28,1.57-.42,2.88-.42,3.93,0,1.98.81,2.96,2.42,2.96,1.37,0,2.48-.58,3.33-1.75s1.51-3.21,2-6.11l2.6-15.01h10.71l-5.39,30.86h-8.84c-.08-.56-.12-1.07-.12-1.51,0-1.09.04-1.79.12-2.12-.77,1.13-2,2.16-3.69,3.09-1.69.93-3.49,1.39-5.39,1.39Z"/>
    <path class="mbp-cls-4" d="M221.14,75.76c3.86,0,7.29.67,10.29,2.01l-1.48,8.39c-2.92-1.46-5.79-2.19-8.63-2.19-1.46,0-2.19.49-2.19,1.48,0,.63.71,1.26,2.13,1.89l2.13.95c4.22,1.89,6.33,4.59,6.33,8.1,0,7.45-4.73,11.17-14.19,11.17-3.74,0-7.33-.89-10.76-2.66l1.6-8.93c3.55,2.21,6.9,3.31,10.05,3.31,1.54,0,2.31-.57,2.31-1.71,0-.63-.71-1.26-2.13-1.89l-2.01-.89c-4.3-1.89-6.44-4.73-6.44-8.51,0-7.02,4.33-10.52,13.01-10.52Z"/>
    <path class="mbp-cls-4" d="M233.37,106.85l5.39-30.86h10.71l-5.39,30.86h-10.71ZM241.12,72.15c-1.26-1.26-1.89-2.78-1.89-4.55s.63-3.29,1.89-4.55c1.26-1.26,2.78-1.89,4.55-1.89s3.29.63,4.55,1.89c1.26,1.26,1.89,2.78,1.89,4.55s-.63,3.29-1.89,4.55c-1.26,1.26-2.78,1.89-4.55,1.89s-3.29-.63-4.55-1.89Z"/>
    <path class="mbp-cls-4" d="M274.34,75.14c6.01,0,9.02,2.66,9.02,7.99,0,1.61-.22,3.63-.66,6.05l-3.09,17.67h-10.71l2.78-15.98c.28-1.57.42-2.88.42-3.93,0-1.98-.81-2.96-2.42-2.96-1.37,0-2.5.6-3.39,1.78-.89,1.19-1.57,3.22-2.06,6.08l-2.6,15.01h-10.71l5.39-30.86h8.84c.08.56.12,1.07.12,1.51,0,1.09-.04,1.79-.12,2.12.73-1.13,1.97-2.16,3.72-3.09,1.75-.93,3.58-1.39,5.48-1.39Z"/>
    <path class="mbp-cls-4" d="M304.03,94.56l-4.49,1c-1.3.28-1.95.93-1.95,1.95,0,.47.22.88.65,1.21.43.34,1.04.5,1.83.5,1.81,0,3.99-.33,6.53-1,2.54-.67,4.88-1.48,7.01-2.42l-1.54,8.69c-3.94,2.05-8.24,3.07-12.89,3.07-3.98,0-7.06-1.12-9.22-3.37-2.17-2.25-3.25-5.22-3.25-8.93,0-5.68,1.59-10.35,4.76-14.01,3.17-3.67,7.38-5.5,12.62-5.5,3.59,0,6.44.84,8.57,2.51,2.13,1.68,3.19,3.69,3.19,6.06,0,3.15-.91,5.41-2.72,6.77-1.81,1.36-4.85,2.51-9.1,3.46ZM303.14,84.04c-2.76,0-4.49,1.83-5.2,5.5l-.12.59c.31-.27.97-.53,1.95-.77l2.25-.53c1.18-.27,2.03-.64,2.54-1.09.51-.45.77-1.09.77-1.92,0-.51-.22-.94-.65-1.27-.43-.33-.95-.5-1.54-.5Z"/>
    <path class="mbp-cls-4" d="M332.58,75.76c3.86,0,7.29.67,10.29,2.01l-1.48,8.39c-2.92-1.46-5.79-2.19-8.63-2.19-1.46,0-2.19.49-2.19,1.48,0,.63.71,1.26,2.13,1.89l2.13.95c4.22,1.89,6.33,4.59,6.33,8.1,0,7.45-4.73,11.17-14.19,11.17-3.74,0-7.33-.89-10.76-2.66l1.6-8.93c3.55,2.21,6.9,3.31,10.05,3.31,1.54,0,2.31-.57,2.31-1.71,0-.63-.71-1.26-2.13-1.89l-2.01-.89c-4.3-1.89-6.44-4.73-6.44-8.51,0-7.02,4.33-10.52,13.01-10.52Z"/>
    <path class="mbp-cls-4" d="M359.95,75.76c3.86,0,7.29.67,10.29,2.01l-1.48,8.39c-2.92-1.46-5.79-2.19-8.63-2.19-1.46,0-2.19.49-2.19,1.48,0,.63.71,1.26,2.13,1.89l2.13.95c4.22,1.89,6.33,4.59,6.33,8.1,0,7.45-4.73,11.17-14.19,11.17-3.74,0-7.33-.89-10.76-2.66l1.6-8.93c3.55,2.21,6.9,3.31,10.05,3.31,1.54,0,2.31-.57,2.31-1.71,0-.63-.71-1.26-2.13-1.89l-2.01-.89c-4.3-1.89-6.44-4.73-6.44-8.51,0-7.02,4.33-10.52,13.01-10.52Z"/>
  </g>
  <g>
    <path class="mbp-cls-4" d="M135.54,159.32l7.84-44.75h9.23c.08.5.13.97.13,1.39,0,.93-.06,1.71-.19,2.34.76-1.14,1.97-2.19,3.63-3.16,1.66-.97,3.4-1.45,5.21-1.45,3.24,0,5.78,1.21,7.62,3.63,1.83,2.42,2.75,5.59,2.75,9.51,0,6.15-1.33,11.17-3.98,15.04-2.65,3.88-6.38,5.81-11.19,5.81-3.46,0-5.92-1.01-7.39-3.03l-2.53,14.66h-11.12ZM151.37,134.29c0,3.08,1.08,4.62,3.24,4.62,1.75,0,3.14-1.11,4.18-3.34,1.04-2.22,1.56-4.77,1.56-7.64,0-3.08-1.08-4.62-3.24-4.62-1.75,0-3.14,1.11-4.18,3.34-1.04,2.23-1.56,4.77-1.56,7.64Z"/>
    <path class="mbp-cls-4" d="M174.03,146.97l5.65-32.41h9.28c.08.51.13,1,.13,1.46,0,1.23-.06,2.1-.19,2.61,1.61-3.22,4.21-4.83,7.82-4.83,1.36,0,2.41.11,3.18.32l-1.84,10.55c-1.14-.42-2.61-.64-4.38-.64-2.88,0-4.7,2.05-5.46,6.16l-2.92,16.77h-11.25Z"/>
    <path class="mbp-cls-4" d="M228.42,127.3c0,6.11-1.52,11.08-4.55,14.88-3.04,3.81-7.36,5.71-12.98,5.71-4.12,0-7.35-1.2-9.7-3.59-2.35-2.39-3.53-5.52-3.53-9.39,0-6.11,1.52-11.07,4.55-14.88,3.04-3.81,7.36-5.71,12.98-5.71,4.12,0,7.35,1.2,9.7,3.59,2.35,2.39,3.53,5.52,3.53,9.39ZM217.26,127.92c0-1.37-.25-2.48-.75-3.34-.5-.85-1.23-1.28-2.18-1.28-1.21,0-2.25.6-3.12,1.81-.87,1.21-1.49,2.61-1.84,4.21-.35,1.6-.53,3.25-.53,4.96,0,1.37.25,2.49.75,3.34.5.85,1.23,1.28,2.18,1.28,1.21,0,2.25-.6,3.12-1.81.87-1.21,1.49-2.61,1.84-4.21.35-1.6.53-3.25.53-4.96Z"/>
    <path class="mbp-cls-4" d="M265.11,114.57l-4.93,28.26c-1.96,11.11-8.49,16.66-19.59,16.66-4.74,0-8.53-.85-11.36-2.56l1.56-9.05c3.16,1.58,6.3,2.37,9.42,2.37,2.41,0,4.39-.56,5.93-1.69,1.54-1.12,2.47-2.64,2.81-4.55l.37-2.06c-2.12,2.12-4.72,3.18-7.8,3.18-3.37,0-5.83-1.1-7.39-3.31-1.56-2.2-2.34-5.05-2.34-8.55,0-5.78,1.26-10.49,3.78-14.13,2.52-3.64,6.27-5.46,11.26-5.46,3.83,0,6.61,1.54,8.36,4.62.25-1.46.64-2.7,1.18-3.74h8.74ZM251.82,127.49c0-2.79-1.12-4.18-3.37-4.18-1.75,0-3.1.93-4.06,2.78-.96,1.85-1.43,4.05-1.43,6.58,0,2.83,1.1,4.24,3.31,4.24,1.83,0,3.2-.91,4.12-2.74.91-1.83,1.39-4.06,1.43-6.68Z"/>
    <path class="mbp-cls-4" d="M267,146.97l5.65-32.41h9.28c.08.51.13,1,.13,1.46,0,1.23-.06,2.1-.19,2.61,1.61-3.22,4.21-4.83,7.82-4.83,1.36,0,2.41.11,3.18.32l-1.84,10.55c-1.14-.42-2.61-.64-4.38-.64-2.88,0-4.7,2.05-5.46,6.16l-2.92,16.77h-11.25Z"/>
    <path class="mbp-cls-4" d="M324.26,114.57l-5.72,32.41h-9.28c-.09-.51-.13-.97-.13-1.4,0-1.06.04-1.84.13-2.35-.72,1.14-1.92,2.2-3.59,3.18-1.67.97-3.42,1.46-5.24,1.46-3.26,0-5.81-1.22-7.66-3.65-1.84-2.43-2.76-5.62-2.76-9.56,0-6.18,1.33-11.22,4-15.12,2.67-3.9,6.42-5.85,11.25-5.85,3.56,0,6.18,1.31,7.88,3.94.25-1.23.59-2.25,1.02-3.05h10.1ZM310.47,127.92c0-3.08-1.08-4.62-3.24-4.62-1.75,0-3.14,1.11-4.18,3.34-1.04,2.23-1.56,4.77-1.56,7.64,0,3.08,1.08,4.62,3.24,4.62,1.75,0,3.14-1.11,4.18-3.34,1.04-2.22,1.56-4.77,1.56-7.64Z"/>
    <path class="mbp-cls-4" d="M349.5,113.68c2.5,0,4.36.39,5.59,1.18,1.23.78,2.16,1.96,2.8,3.53.85-1.19,2.17-2.26,3.97-3.24,1.8-.97,3.61-1.46,5.43-1.46,2.8,0,4.98.68,6.54,2.03,1.57,1.36,2.35,3.41,2.35,6.16,0,1.78-.23,3.96-.7,6.54l-3.24,18.55h-11.25l2.92-16.77c.3-1.78.45-3.09.45-3.94,0-2.2-.68-3.3-2.03-3.3-1.27,0-2.3.59-3.08,1.78-.78,1.19-1.45,3.35-2,6.48l-2.73,15.76h-11.25l2.92-16.77c.3-1.78.44-3.09.44-3.94,0-2.2-.68-3.3-2.03-3.3-1.27,0-2.3.59-3.08,1.78-.78,1.19-1.45,3.35-2,6.48l-2.73,15.76h-11.25l5.65-32.41h9.28c.08.59.13,1.12.13,1.59,0,1.14-.04,1.89-.13,2.22.8-1.19,2.09-2.26,3.84-3.24,1.76-.97,3.48-1.46,5.18-1.46Z"/>
  </g>
  <circle class="mbp-cls-7" cx="388.85" cy="139.26" r="7.72"/>
  <g>
    <polygon class="mbp-cls-4" points="163.03 32.71 163.03 57.55 158.68 57.55 158.68 39.99 150.86 51.45 143.04 39.99 143.04 57.55 138.69 57.55 138.69 32.71 143.33 32.71 150.86 44.33 158.39 32.71 163.03 32.71"/>
    <path class="mbp-cls-4" d="M293.34,49.6v-16.77s.12-.13.13-.13h4.31v24.84h-3.64l-13.59-17.48v17.48h-4.31s-.13-.12-.13-.13v-24.59s.12-.13.13-.13h3.93c4.47,5.57,8.7,11.34,13.17,16.9Z"/>
    <path class="mbp-cls-4" d="M250.6,32.71h11.76c5.76.07,10.01,4.63,8.19,10.46-.89,2.86-2.79,3.9-5.36,4.93-.09.03-.14-.05-.11.13l6.61,9.33h-5.14c-2.05-2.85-4.12-5.71-6.06-8.62h-5.44v8.49s-.12.13-.13.13h-4.31v-24.84ZM255.03,45c2.4-.16,5.12.26,7.47-.09,2.92-.44,4.77-2.92,3.58-5.82-.56-1.37-2.47-2.37-3.9-2.37h-7.15v8.28Z"/>
    <path class="mbp-cls-4" d="M180.41,32.31c9.1-.49,15.76,7.59,13.25,16.43-3.22,11.38-19.66,12.52-24.35,1.72-3.64-8.38,1.97-17.66,11.1-18.16ZM180.16,36.41c-10.24.95-9.55,18.18,1.73,17.46,10.71-.68,9.96-18.55-1.73-17.46Z"/>
    <path class="mbp-cls-4" d="M199.33,57.55v-24.84h9.92c16.51.63,16.9,24.05-.08,24.85-3.23.15-6.59-.12-9.83,0ZM203.76,53.54c2.51-.12,5.17.3,7.61-.38,7.56-2.11,7.71-13.42.38-15.94-2.52-.86-5.37-.36-7.99-.5v16.81Z"/>
    <path class="mbp-cls-4" d="M245.33,32.71v4.01h-13.97v6.27h12.38v4.01h-12.38v6.52h14.14v4.01h-18.44s-.13-.12-.13-.13v-24.59s.12-.13.13-.13h18.28Z"/>
  </g>
</svg>