<svg id="Layer_1" data-name="Layer 1" xmlns="http://www.w3.org/2000/svg" xmlns:xlink="http://www.w3.org/1999/xlink" viewBox="0 0 64 64">
  <defs>
    <style>
      .cls-1 {
        fill: none;
      }

      .cls-2 {
        fill: #fff;
      }

      .cls-2, .cls-3 {
        fill-rule: evenodd;
      }

      .cls-3 {
        fill: #32d951;
      }

      .cls-4 {
        clip-path: url(#clippath);
      }
    </style>
    <clipPath id="clippath">
      <rect class="cls-1" x=".65" y=".65" width="62.7" height="62.7"/>
    </clipPath>
  </defs>
  <g id="Component_70_1" data-name="Component 70 1">
    <g class="cls-4">
      <g id="Group_1157" data-name="Group 1157">
        <path id="Path_1328" data-name="Path 1328" class="cls-3" d="M32,63.35c17.31,0,31.35-14.04,31.35-31.35S49.31.65,32,.65.65,14.69.65,32c.03,17.3,14.05,31.32,31.35,31.35"/>
        <path id="Path_1329" data-name="Path 1329" class="cls-2" d="M40.35,36.05c-.46-.25-2.7-1.46-3.12-1.63s-.73-.26-1.05.19-1.26,1.47-1.54,1.76c-.54.57-1.58-.18-2.16-.5-.91-.51-1.75-1.14-2.5-1.86-.98-.98-1.81-2.09-2.46-3.31-.39-.73.97-1.57,1.39-2.35l.07-.14c.14-.26.13-.56,0-.82-.11-.24-.95-2.56-1.3-3.5-.45-1.2-2.42-1.1-3.17-.35-1.1.97-1.74,2.35-1.77,3.82-.09,2.28,1.5,4.56,1.72,4.87s3.02,5.27,7.67,7.31c2.75,1.2,4.95,2.32,7.6.52.49-.3.89-.73,1.15-1.24.33-.68.45-1.45.35-2.2-.11-.2-.41-.33-.87-.58"/>
        <path id="Path_1330" data-name="Path 1330" class="cls-2" d="M44.75,19.17c-7-7-18.35-7-25.36,0-5.73,5.73-6.91,14.6-2.86,21.63l-2.54,9.29,9.5-2.49c2.63,1.43,5.57,2.18,8.57,2.18h0c9.9,0,17.93-8.03,17.93-17.93,0-4.75-1.89-9.31-5.25-12.67M32.07,46.74h0c-2.67,0-5.29-.72-7.58-2.08l-.54-.32-5.64,1.47,1.51-5.5-.35-.56c-4.37-6.97-2.27-16.17,4.7-20.54,6.97-4.37,16.17-2.27,20.54,4.7,4.37,6.97,2.27,16.17-4.7,20.54-2.37,1.49-5.12,2.28-7.92,2.28"/>
      </g>
    </g>
  </g>
</svg>