<?xml version="1.0" encoding="UTF-8"?>
<svg id="Layer_1" data-name="Layer 1" xmlns="http://www.w3.org/2000/svg" viewBox="0 0 91.84 92.68">
  <defs>
    <style>
      .cls-1 {
        fill: #757676;
      }
    </style>
  </defs>
  <g id="BMW-logo-grey-fallback-53px">
    <g id="BMW-logo">
      <g id="BMW-logo-fallback">
        <g id="BMW_Grey-Colour_RGB-2" data-name="BMW Grey-Colour RGB-2">
          <g id="BMW_Grey-Colour_RGB" data-name="BMW Grey-Colour RGB">
            <path id="Shape" class="cls-1" d="M46.76,7.41C24.96,7.41,7.28,25.09,7.28,46.9s17.68,39.49,39.49,39.49,39.49-17.68,39.49-39.49S68.57,7.41,46.76,7.41h0ZM83.68,46.9c0,20.39-16.53,36.92-36.92,36.92S9.84,67.29,9.84,46.9,26.37,9.98,46.76,9.98s36.92,16.53,36.92,36.92Z"/>
            <path id="Shape-2" data-name="Shape" class="cls-1" d="M46.76,23.5v1.28h0c12.19,0,22.12,9.92,22.12,22.12h1.28c0-12.92-10.48-23.4-23.4-23.4h0M46.76,69.02c-12.19,0-22.12-9.92-22.12-22.12h-1.28c0,12.92,10.48,23.4,23.4,23.4"/>
            <g id="Group">
              <path id="W" class="cls-1" d="M65.67,30.24c.54.57,1.31,1.49,1.74,2.05l7.99-5.04c-.4-.52-1.03-1.31-1.51-1.86l-5.06,3.32-.35.29.26-.37,2.23-4.43-1.58-1.57-4.46,2.22-.38.26.3-.34,3.35-5.02c-.59-.5-1.16-.95-1.88-1.51l-5.07,7.93c.64.49,1.49,1.21,2.03,1.7l4.77-2.46.31-.22-.22.3-2.47,4.75Z"/>
              <path id="M" class="cls-1" d="M47.54,20.19l2.18-4.86.14-.43-.04.45.23,6.49c.77.07,1.56.18,2.34.31l-.35-9.61c-1.09-.12-2.18-.21-3.26-.25l-2.15,5.3-.08.39-.08-.39-2.15-5.3c-1.09.05-2.17.13-3.26.25l-.35,9.61c.78-.13,1.57-.23,2.34-.31l.23-6.49-.04-.45.14.43,2.18,4.86h1.99Z"/>
              <path id="B_22d" class="cls-1" d="M29.89,27.85c1.26-1.32,1.98-2.84.71-4.3-.69-.79-1.84-.96-2.79-.57l-.1.04.03-.08c.14-.38.23-1.57-.8-2.4-.5-.4-1.13-.55-1.77-.49-1.19.12-2.1.92-4.58,3.67-.75.83-1.84,2.14-2.49,2.99l6.82,6.42c2.26-2.48,3.18-3.41,4.96-5.27ZM20.99,26.28c1.37-1.67,2.83-3.18,3.49-3.78.21-.19.44-.38.71-.45.45-.12.91.19,1.01.65.1.46-.19.89-.51,1.25-.73.81-3.39,3.58-3.39,3.58l-1.32-1.25ZM23.66,28.8s2.59-2.72,3.44-3.59c.34-.35.55-.56.78-.67.3-.15.63-.18.92.02.29.19.42.52.35.85-.09.39-.41.76-.67,1.04-.36.38-3.43,3.65-3.44,3.65l-1.38-1.3Z"/>
            </g>
            <path id="Path" class="cls-1" d="M46.76,23.5v23.4h-23.4c0-12.93,10.47-23.4,23.4-23.4Z"/>
            <path id="Path-2" data-name="Path" class="cls-1" d="M70.16,46.9c0,12.93-10.47,23.4-23.4,23.4v-23.4h23.4Z"/>
          </g>
        </g>
      </g>
    </g>
  </g>
</svg>