<?xml version="1.0" encoding="UTF-8"?>
<svg id="Layer_1" data-name="Layer 1" xmlns="http://www.w3.org/2000/svg" viewBox="0 0 75.41 92.68">
  <defs>
    <style>
      .cls-1 {
        fill: #757676;
      }
    </style>
  </defs>
  <path class="cls-1" d="M66.5,81.9c1.21,0,2.17.98,2.17,2.21s-.96,2.22-2.18,2.22-2.19-.97-2.19-2.22.98-2.21,2.19-2.21h.01ZM66.48,82.24c-.98,0-1.77.84-1.77,1.87s.8,1.88,1.78,1.88c.98,0,1.77-.83,1.77-1.87s-.79-1.88-1.77-1.88h-.01ZM66.07,85.4h-.39v-2.47c.21-.03.4-.06.7-.06.37,0,.62.08.77.19.15.11.22.28.22.51,0,.32-.22.52-.48.6v.02c.22.04.36.24.41.6.06.38.12.53.16.61h-.41c-.06-.08-.12-.3-.17-.63-.06-.31-.22-.43-.53-.43h-.28v1.06ZM66.07,84.03h.29c.33,0,.6-.12.6-.42,0-.22-.16-.43-.6-.43-.13,0-.22,0-.29.02v.84Z"/>
  <path class="cls-1" d="M23.75,37.05h0c.06.08,1.44,1.97-1.07,3.92-.06.05-4.39,4.18-4.29,12,0,.27.13,6.52,2.35,9.35.01.02,1.7,2.31.69,3.97-.03.05-.76,1.19-2.3,1h-.02s-.02,0-.02,0c-.05,0-1.37.04-2.3-2.18h0s0-.02,0-.02c-.05-.08-4.55-7.96-2.48-16.9.02-.08,1.94-8.09,5.94-11.31.08-.06,2.06-1.56,3.51.16ZM19.98,36.55c-4.12,3.32-6.01,11.21-6.09,11.55-2.1,9.1,2.48,17.12,2.53,17.2v-.02c1.04,2.52,2.64,2.44,2.7,2.44h-.04c1.82.21,2.68-1.15,2.71-1.2,1.16-1.9-.64-4.35-.71-4.45-2.14-2.72-2.26-9.04-2.27-9.1-.1-7.63,4.1-11.64,4.15-11.68,2.82-2.19,1.14-4.47,1.13-4.49-1.72-2.05-4.08-.26-4.11-.24Z"/>
  <path class="cls-1" d="M49.82,36.1s-1.48,2.4,1.46,4.5c.04.03,4.44,3.64,4.83,11.37,0,.06.27,6.38-1.67,9.2-.07.11-1.78,2.66-.39,4.46.03.05,1,1.4,2.71,1.08h-.04c.07,0,1.67-.03,2.51-2.65v.03c.03-.08,4.11-8.4,1.41-17.31-.09-.33-2.38-8.13-6.7-11.14-.03-.02-2.49-1.7-4.11.46ZM53.69,35.99c4.2,2.93,6.51,10.84,6.53,10.91,2.65,8.74-1.35,16.92-1.39,17h0s0,.03,0,.03c-.74,2.33-2.09,2.36-2.1,2.36h-.04c-1.45.27-2.29-.9-2.3-.91-1.2-1.57.39-3.95.4-3.97,2.02-2.93,1.75-9.19,1.74-9.45-.4-7.93-4.95-11.65-5-11.69-2.62-1.88-1.41-3.85-1.36-3.94,1.36-1.81,3.42-.4,3.51-.34Z"/>
  <path class="cls-1" d="M25.8,38.15c.01.06.33,1.57,1.77,2.29h0c.06.03.14,0,.17-.06.03-.06,0-.14-.06-.17h0c-1.33-.67-1.63-2.1-1.64-2.12h0c-.01-.07-.08-.11-.15-.1-.07.01-.11.08-.1.15h0Z"/>
  <path class="cls-1" d="M24.63,39.11c.06.07,1.51,1.71,1.91,2.11h0c.05.05.13.05.18,0,.05-.05.05-.13,0-.18h0c-.39-.39-1.88-2.08-1.9-2.1h0c-.05-.05-.13-.06-.18-.01-.05.05-.06.13-.01.18h0Z"/>
  <path class="cls-1" d="M23.54,41.33l.5.4s.24.21.25.46c0,.13-.05.24-.16.36l-.6.6h0c-.05.05-.05.13,0,.18.05.05.13.05.18,0h0l.6-.6c.16-.17.24-.35.23-.55-.02-.36-.33-.63-.34-.64,0,0-.5-.4-.5-.4h0c-.05-.04-.13-.04-.18.02-.04.05-.04.13.02.18h0Z"/>
  <path class="cls-1" d="M24.13,40.92l.6.6h0s.01.02.01.02c0,0,.39.27.41.58,0,.15-.06.28-.22.42h0s0,.01,0,.01l-.8.9h0c-.05.05-.04.13.01.18.05.05.13.04.18,0h0l.8-.9h-.01c.22-.18.33-.39.31-.61-.03-.44-.5-.76-.52-.78l.02.02-.6-.6h0c-.05-.05-.13-.05-.18,0-.05.05-.05.13,0,.18h0Z"/>
  <path class="cls-1" d="M21.67,44.16l.6.2s.28.13.37.36c.04.11.03.23-.04.37h0s0,.01,0,.01l-.3.8h0c-.02.06,0,.14.08.16.06.02.14,0,.16-.07h0l.3-.8h0c.1-.18.11-.37.05-.55-.13-.34-.5-.5-.52-.51,0,0-.61-.21-.61-.21h0c-.07-.02-.14.01-.16.08-.02.07.01.14.08.16h0Z"/>
  <path class="cls-1" d="M22.07,43.56l.8.3s.45.18.58.53c.06.16.04.32-.05.5,0,0-.5,1.11-.5,1.11h0c-.03.06,0,.14.06.17.06.03.14,0,.17-.06h0l.5-1.1c.12-.24.14-.48.05-.7-.17-.45-.7-.66-.72-.67,0,0-.8-.3-.8-.3h0c-.07-.02-.14,0-.16.07-.02.07,0,.14.07.16h0Z"/>
  <path class="cls-1" d="M20.39,47.07l.6.1h.02s.26,0,.4.16c.08.09.11.23.08.4,0,0-.1.91-.1.91h0c0,.07.04.13.11.14.07,0,.13-.04.14-.11h0l.1-.9c.04-.24-.01-.44-.15-.59-.21-.25-.57-.25-.58-.25h.02s-.6-.1-.6-.1h0c-.07-.01-.14.04-.15.1-.01.07.04.13.11.14h0Z"/>
  <path class="cls-1" d="M20.59,46.37l.9.2h.01s.01,0,.01,0c0,0,.41,0,.6.24.1.12.12.29.07.51,0,0-.2,1.21-.2,1.21h0c-.01.07.04.13.1.14.07.01.13-.04.14-.1h0l.2-1.2c.06-.29.02-.53-.13-.71-.27-.33-.78-.34-.8-.34h.03s-.9-.2-.9-.2h0c-.07-.02-.14.03-.15.1-.02.07.03.14.1.15h0Z"/>
  <path class="cls-1" d="M19.59,50.18l.7.1h.02s.02,0,.02,0c0,0,.26-.03.42.11.09.08.14.2.14.37v.9h0c0,.07.06.13.13.13s.13-.06.13-.13h0v-.9c0-.24-.07-.43-.22-.56-.25-.22-.61-.17-.62-.17h.04l-.7-.1h0c-.07-.01-.13.04-.14.11-.01.07.04.13.11.14h0Z"/>
  <path class="cls-1" d="M19.8,49.48l.9.1h.01s.01,0,.01,0c0,0,.42-.04.64.18.11.11.15.27.13.48h0v1.32h0c0,.07.06.13.13.13s.13-.06.13-.13h0v-1.3h0c.03-.28-.04-.51-.2-.67-.3-.3-.82-.26-.84-.25h.03l-.9-.1h0c-.07,0-.13.04-.14.11-.01.07.04.13.11.14h0Z"/>
  <path class="cls-1" d="M19.41,53.39h.62s.34-.04.53.13c.09.08.13.19.13.35v.9h0c0,.07.05.13.13.13s.13-.06.13-.13h0v-.9c0-.23-.08-.41-.22-.54-.28-.24-.71-.19-.73-.19h.01s-.6,0-.6,0h0c-.07,0-.13.06-.13.13s.06.13.13.13h0Z"/>
  <path class="cls-1" d="M19.51,52.69h.93s.4-.08.64.13c.14.11.21.3.21.55v1.2h0c0,.07.06.13.13.13s.13-.06.13-.13h0v-1.2c0-.33-.1-.58-.3-.75-.34-.28-.83-.18-.85-.18h.02s-.9,0-.9,0h0c-.07,0-.13.06-.13.13s.06.13.13.13h0Z"/>
  <path class="cls-1" d="M19.71,56.5h.64s.27-.08.46.04c.1.07.16.18.19.35,0,0,.1.9.1.9h0c0,.07.07.12.14.11.07,0,.12-.07.11-.14h0l-.1-.9c-.04-.25-.14-.42-.3-.53-.28-.18-.65-.08-.66-.08h.03s-.6,0-.6,0h0c-.07,0-.12.06-.12.13s.06.13.12.13h0Z"/>
  <path class="cls-1" d="M19.72,55.8l.9-.1s.44-.08.72.12c.13.1.22.26.24.47,0,0,.1,1.2.1,1.2h0c0,.07.07.12.14.11.07,0,.12-.07.11-.14h0l-.1-1.2c-.03-.29-.14-.5-.34-.65-.37-.27-.89-.17-.91-.17.01,0-.89.1-.89.1h0c-.07,0-.12.07-.11.14,0,.07.07.12.14.11h0Z"/>
  <path class="cls-1" d="M20.77,59.9l.6-.3h0s0,0,0,0c0,0,.24-.16.45-.1.11.03.2.11.27.25,0,0,.4.9.4.9h0c.03.06.1.09.17.06.06-.03.09-.1.06-.17h0l-.4-.9c-.11-.21-.25-.34-.43-.39-.33-.09-.64.12-.66.13h.01s-.6.29-.6.29h0c-.06.03-.09.11-.06.17.03.06.11.09.17.06h0Z"/>
  <path class="cls-1" d="M20.57,59.2l.8-.4s.41-.22.73-.11c.14.05.24.16.3.34,0,0,.51,1.11.51,1.11h0c.03.06.1.09.17.06.06-.03.09-.1.06-.17h0l-.5-1.1c-.09-.24-.24-.4-.45-.48-.42-.15-.91.11-.93.12,0,0-.79.4-.79.4h0c-.06.03-.09.11-.06.17.03.06.11.09.17.06h0Z"/>
  <path class="cls-1" d="M22.2,62.69l.5-.4s.5-.31.82.17c0,0,.5.71.5.71h0c.04.06.12.07.18.03.06-.04.07-.12.03-.18h0l-.5-.7c-.37-.55-.93-.39-1.18-.23,0,0-.51.41-.51.41h0c-.05.04-.06.12-.02.18.04.06.12.06.18.02h0Z"/>
  <path class="cls-1" d="M21.87,62l.8-.4h.01s.01-.02.01-.02c0,0,.36-.31.67-.25.14.03.25.13.34.31h0s0,.01,0,.01l.7,1.1h0c.04.06.12.08.17.04.06-.04.08-.12.04-.17h0l-.7-1.1h0c-.13-.24-.3-.39-.52-.43-.43-.08-.86.29-.88.3l.03-.02-.8.4h0c-.06.03-.09.11-.06.17.03.06.11.09.17.06h0Z"/>
  <path class="cls-1" d="M47.97,37.29h0s-.31,1.45-1.63,2.01h0c-.06.03-.09.1-.07.17.03.06.1.09.17.07h0c1.45-.62,1.77-2.13,1.78-2.2h0c.01-.07-.03-.13-.1-.15-.07-.01-.13.03-.15.1h0Z"/>
  <path class="cls-1" d="M49.2,38.14h0s-1.5,1.71-1.9,2.1h0c-.05.05-.05.13,0,.18.05.05.13.05.18,0h0c.4-.4,1.85-2.04,1.91-2.11h0c.05-.05.04-.13-.01-.18-.05-.05-.13-.04-.18.01h0Z"/>
  <path class="cls-1" d="M50.21,40.34l-.4.4s-.32.27-.34.63c0,.2.07.38.24.55l.6.6h0c.05.05.13.05.18,0,.05-.05.05-.13,0-.18h0l-.6-.6c-.12-.11-.17-.23-.16-.36.01-.25.25-.46.26-.46,0,0,.41-.41.41-.41h0s.05-.13,0-.18c-.05-.05-.13-.05-.18,0h0Z"/>
  <path class="cls-1" d="M49.71,39.84l-.7.7h.01s-.43.31-.44.74c0,.24.1.45.33.65h-.01s.8.89.8.89h0c.05.05.13.06.18.01.05-.05.06-.13.01-.18h0l-.8-.9h0s0-.01,0-.01c-.17-.14-.25-.29-.25-.45.01-.31.34-.55.34-.56h0s0-.01,0-.01l.7-.7h0s.05-.13,0-.18c-.05-.05-.13-.05-.18,0h0Z"/>
  <path class="cls-1" d="M43.96,36.48l-.2.6s-.16.37,0,.69c.09.18.25.31.49.38,0,0,.79.3.79.3h0c.06.02.14,0,.16-.07.02-.07,0-.14-.07-.16h0l-.8-.3c-.17-.05-.29-.13-.34-.25-.1-.21,0-.49,0-.49,0,0,.21-.61.21-.61h0c.02-.07-.01-.14-.08-.16-.07-.02-.14.01-.16.08h0Z"/>
  <path class="cls-1" d="M43.26,36.38l-.3.9s-.2.47-.01.85c.11.21.31.35.61.42h-.01s1.2.4,1.2.4h0c.07.02.14-.01.16-.08.02-.07-.01-.14-.08-.16h0l-1.2-.4h0s0,0,0,0c-.22-.05-.36-.15-.44-.29-.13-.27.02-.64.02-.64,0-.01.3-.91.3-.91h0c.02-.07-.01-.14-.08-.16-.07-.02-.14.01-.16.08h0Z"/>
  <path class="cls-1" d="M52.35,43.02l-.6.3h.02s-.39.11-.52.41c-.08.17-.06.36.04.56v-.02s.29.9.29.9h0c.02.07.1.1.16.08.07-.02.1-.09.08-.16h0l-.3-.9h0s0-.02,0-.02c-.07-.14-.08-.25-.04-.35.08-.19.36-.28.36-.28h.01s.01,0,.01,0l.6-.3h0c.06-.03.09-.11.06-.17-.03-.06-.11-.09-.17-.06h0Z"/>
  <path class="cls-1" d="M51.94,42.42l-.8.4h.02s-.55.16-.73.57c-.09.21-.08.45.05.7,0,0,.5,1.2.5,1.2h0c.03.06.1.09.17.07.06-.03.09-.1.07-.17h0l-.5-1.2c-.09-.19-.11-.35-.05-.49.13-.3.57-.44.57-.44h0s.01,0,.01,0l.8-.4h0c.06-.03.09-.11.05-.17-.03-.06-.11-.09-.17-.06h0Z"/>
  <path class="cls-1" d="M53.77,45.93l-.6.2s-.39.11-.55.42c-.08.16-.09.34-.03.54l.3.9h0c.02.07.1.1.16.08.07-.02.1-.09.08-.16h0l-.3-.9c-.04-.13-.04-.24.01-.34.11-.21.4-.3.4-.3,0,0,.61-.2.61-.2h0c.06-.02.1-.09.08-.16-.02-.07-.09-.1-.16-.08h0Z"/>
  <path class="cls-1" d="M53.47,45.32l-.9.3h.01s-.52.1-.72.49c-.11.22-.11.49.03.78,0,0,.4,1.1.4,1.1h0c.02.07.1.1.16.08.06-.02.1-.1.08-.16h0l-.4-1.1c-.1-.23-.11-.42-.04-.57.14-.27.54-.36.54-.36h0s0,0,0,0l.9-.3h0c.06-.02.1-.09.08-.16-.02-.07-.09-.1-.16-.08h0Z"/>
  <path class="cls-1" d="M54.89,49.03l-.6.1h.02s-.45,0-.68.28c-.13.15-.17.34-.14.57,0,0,.1.9.1.9h0c0,.07.07.12.14.11.07,0,.12-.07.11-.14h0l-.1-.9c-.02-.16,0-.28.08-.37.16-.19.49-.19.49-.19h.02s.6-.1.6-.1h0c.07-.01.11-.08.1-.15-.01-.07-.08-.12-.15-.1h0Z"/>
  <path class="cls-1" d="M54.7,48.33l-.9.1h.02s-.54,0-.84.34c-.16.18-.23.42-.19.7,0,0,.2,1.31.2,1.31h0c.01.07.08.12.15.1.07-.01.12-.07.11-.15h0l-.2-1.3c-.02-.21.02-.38.13-.51.22-.25.64-.25.65-.25h.01s.9-.1.9-.1h0c.07,0,.12-.07.11-.14-.01-.07-.07-.12-.14-.11h0Z"/>
  <path class="cls-1" d="M55.51,52.44h-.6.01s-.45-.05-.73.19c-.14.13-.22.31-.22.54v.9h0c0,.07.06.13.13.13s.12-.06.12-.13h0v-.9c0-.15.05-.27.13-.35.19-.17.52-.13.53-.13h.62c.07,0,.13-.06.13-.13s-.06-.13-.13-.13h0Z"/>
  <path class="cls-1" d="M55.41,51.74h-.9.01s-.54-.05-.87.25c-.18.16-.27.39-.27.68v1.2h0c0,.07.06.13.13.13s.13-.06.13-.13h0v-1.2c0-.21.06-.37.19-.49.25-.23.67-.19.68-.19h.92c.07,0,.12-.06.12-.13s-.05-.13-.12-.13h0Z"/>
  <path class="cls-1" d="M55.11,55.55h-.61.04s-.38-.1-.66.08c-.17.11-.27.28-.3.53,0,0-.1.91-.1.91h0c0,.07.04.13.11.14.07,0,.13-.04.14-.11h0l.1-.9c.02-.16.09-.28.19-.35.18-.12.45-.05.45-.05h.02s.02,0,.02,0h.61c.07,0,.12-.06.12-.13s-.06-.13-.12-.13h0Z"/>
  <path class="cls-1" d="M55.13,54.85l-.9-.1s-.54-.1-.87.18c-.18.15-.27.37-.27.65v-.02s-.2,1.2-.2,1.2h0c-.01.07.04.13.1.15.07.01.13-.04.15-.11h0l.2-1.2h0v-.02c0-.21.06-.36.18-.46.24-.2.67-.12.68-.12,0,0,.91.1.91.1h0c.07,0,.13-.04.14-.11,0-.07-.04-.13-.11-.14h0Z"/>
  <path class="cls-1" d="M54.43,58.56l-.6-.1h.03s-.38-.15-.69,0c-.18.09-.31.25-.38.49,0,0-.2.91-.2.91h0c-.01.07.03.13.1.15.07.01.13-.03.15-.1h0l.2-.9c.04-.16.13-.27.24-.32.21-.1.49.01.49.01h.02s.01,0,.01,0l.6.1h0c.07.01.13-.03.15-.1.01-.07-.04-.13-.11-.15h0Z"/>
  <path class="cls-1" d="M54.54,57.86l-.9-.2s-.53-.16-.94.08c-.22.13-.35.33-.42.61,0,0-.2,1.21-.2,1.21h0c0,.07.04.13.11.15.07.01.13-.04.14-.1h0l.2-1.2c.05-.2.14-.36.3-.45.31-.18.74-.06.75-.06,0,0,.91.2.91.2h0c.07.01.13-.03.15-.1.02-.07-.03-.14-.09-.15h0Z"/>
  <path class="cls-1" d="M53.36,61.58l-.6-.3.02.02s-.34-.28-.68-.21c-.18.04-.32.16-.42.36,0-.01-.5.79-.5.79h0c-.04.06-.02.14.04.17.06.04.14.02.17-.04h0l.5-.8c.07-.14.15-.21.25-.23.21-.04.46.16.47.16h0s.01.02.01.02l.6.3h0c.06.03.14,0,.17-.06.03-.06,0-.14-.06-.17h0Z"/>
  <path class="cls-1" d="M53.58,60.99l-.7-.5s-.42-.31-.86-.23c-.25.05-.46.2-.62.46,0,0-.6,1-.6,1h0c-.03.06-.01.14.04.17.06.04.14.02.17-.04h0l.6-1c.12-.19.27-.31.45-.34.33-.06.66.18.67.18,0,0,.71.5.71.5h0c.06.04.13.03.18-.03.04-.06.03-.14-.03-.18h0Z"/>
  <path class="cls-1" d="M29.43,36.98l.3.5h0s0,.01,0,.01c0,0,.12.15.08.31-.03.12-.14.22-.33.3h0s0,0,0,0l-.9.5h0c-.06.03-.08.11-.05.17.03.06.11.08.17.05h0l.9-.5h-.01c.27-.11.43-.27.47-.46.07-.28-.12-.52-.13-.53h.01s-.3-.49-.3-.49h0c-.04-.06-.11-.08-.17-.04-.06.03-.08.11-.04.17h0Z"/>
  <path class="cls-1" d="M31.54,39.83c.1.2.1.4,0,.4s-.2-.1-.3-.3c-.1-.3,0-.5,0-.5.1,0,.2.1.3.4Z"/>
  <path class="cls-1" d="M42.38,39.03c0,.1.1.2.2.2.2,0,.3-.1.3-.2,0-.2-.1-.3-.3-.3-.1,0-.2.1-.2.3Z"/>
  <path class="cls-1" d="M24.62,48.05c0,.2-.1.3-.2.3s-.2-.2-.1-.4c0-.1.1-.3.2-.2.1,0,.2.1.1.3Z"/>
  <path class="cls-1" d="M27.83,41.53c.1.1.2.2.2.3s-.1.3-.3.3c-.1,0-.3-.2-.3-.3,0-.2.2-.3.3-.3h.1Z"/>
  <path class="cls-1" d="M24.12,46.05c.1,0,.2,0,.3.1.1.2,0,.3-.1.4-.2,0-.3,0-.4-.1-.1-.2,0-.3.1-.4h.1Z"/>
  <path class="cls-1" d="M22.62,51.46c.1,0,.2,0,.3.1.1.1.1.3,0,.4-.1.1-.3.1-.4,0-.1-.2-.1-.3,0-.4l.1-.1Z"/>
  <path class="cls-1" d="M23.02,57.48c.1,0,.2-.1.3,0,.1,0,.2.2.2.3-.1.2-.3.2-.4.2-.1-.1-.2-.2-.1-.4v-.1Z"/>
  <path class="cls-1" d="M45.98,41.13c-.1,0-.2.1-.2.2,0,.2.2.3.3.3.2,0,.3-.1.3-.3,0-.1-.1-.3-.3-.3l-.1.1Z"/>
  <path class="cls-1" d="M50.09,45.24c-.1,0-.2.1-.2.2-.1.2,0,.3.2.4.1,0,.3-.1.3-.2,0-.2,0-.3-.2-.4h-.1Z"/>
  <path class="cls-1" d="M52.1,50.76c-.1,0-.2,0-.3.1-.1.1-.1.3.1.4.1.1.3.1.3-.1.1-.1.1-.3,0-.3l-.1-.1Z"/>
  <path class="cls-1" d="M52.1,56.77c-.1-.1-.3-.1-.3,0-.2.1-.2.3-.1.4.1.1.3.1.4,0,.1,0,.1-.2,0-.3v-.1Z"/>
  <path class="cls-1" d="M32.35,39.83c.1.1-.3.3-.7.5-.5.2-.9.3-.9.3,0-.1.3-.3.8-.5.4-.3.8-.4.8-.3Z"/>
  <path class="cls-1" d="M31.44,39.42c0,.2-.1.3-.2.3s-.2-.1-.2-.3c0-.1.1-.2.2-.2s.2.1.2.2Z"/>
  <path class="cls-1" d="M31.24,41.63s-.3-.4.1-.7c0,0,.9-.8,1.41-.3,0,0,.3.5.2.6q-.1,0-.2-.1s-.3-.5-.81-.2c0,0-.5.3-.4.5,0,0,.2.7-.3.2Z"/>
  <path class="cls-1" d="M28.23,41.53l.7-.8s.1-.5,1.11-.4c0,0,.2.2,0,.3l-.4.2s-.2.2.1.4c0,0,.3.2-.3.3,0,0-.3.2-.3.4,0,0-.3.4-.5,0,0,0-.1-.4-.6-.1,0,0-.3-.1.2-.3Z"/>
  <path class="cls-1" d="M24.42,45.84l.3-1s-.1-.6.9-.9c0,0,.3.1.1.3l-.3.3s-.1.3.3.3c0,0,.3.1-.1.5,0,0-.3.3-.2.4,0,0-.1.5-.5.2,0,0-.1-.3-.5.2,0,0-.3,0,0-.3Z"/>
  <path class="cls-1" d="M22.82,51.16v-1s-.3-.5.6-1.1c0,0,.2,0,.2.2l-.2.4s-.1.3.4.2c0,0,.3,0,0,.5,0,0-.2.4,0,.5,0,0,0,.5-.4.3,0,0-.3-.2-.5.4,0,0-.3.1-.1-.4Z"/>
  <path class="cls-1" d="M23.12,57.18l-.4-.9s-.5-.3.1-1.2c0,0,.2-.1.3,0l-.1.5s.1.3.5,0c0,0,.2-.1.2.5,0,0,0,.4.1.4,0,0,.3.4-.2.5,0,0-.3-.1-.3.5,0,0-.2.2-.2-.3Z"/>
  <path class="cls-1" d="M26.53,42.84s1.51.3,1.2.6c0,0-.6,1.2-.9.5,0,0-.5-.8-.4-1,0-.1.1-.1.1-.1Z"/>
  <path class="cls-1" d="M22.72,53.47s.9-.7,1-.4c0,0,.4,1-.2.9,0,0-.8-.2-.91-.4l.1-.1Z"/>
  <path class="cls-1" d="M27.43,45.04s.2.2.4,0l.1-.8.8-.1s.3-.4-.2-.5l-.7.1s-.3.4-.4.4v.9Z"/>
  <path class="cls-1" d="M24.42,47.05c.1,0,0,.4-.1.9-.2.5-.4.8-.4.8-.1,0-.1-.4.1-.9.1-.5.3-.9.4-.8Z"/>
  <path class="cls-1" d="M23.82,47.55c.2.1.3.3.3.3,0,.1-.2.1-.4,0-.2-.1-.4-.2-.4-.3.1-.1.3,0,.5,0Z"/>
  <path class="cls-1" d="M23.52,47.45c.1.1.1.2,0,.3-.1.1-.2.1-.3,0-.1,0-.1-.2,0-.3,0-.1.2-.1.3,0Z"/>
  <path class="cls-1" d="M25.03,49.05s-.6-.1-.5-.6c0,0,0-1.2.8-1.2,0,0,.5.1.5.3-.1,0-.1.1-.2.1,0,0-.6-.2-.7.4,0,0-.1.6.1.6,0,0,.6.4,0,.4Z"/>
  <path class="cls-1" d="M24.12,57.98c.1-.1.3.3.5.8.2.4.3.8.2.9-.1,0-.3-.4-.5-.8-.2-.5-.2-.9-.2-.9Z"/>
  <path class="cls-1" d="M24.02,58.78c.2-.1.4,0,.5,0,0,.1-.2.2-.4.3-.2.1-.4,0-.4-.1-.1,0,.1-.1.3-.2Z"/>
  <path class="cls-1" d="M23.72,58.78c.1,0,.2.2.2.3s-.1.2-.2.2c-.2,0-.3-.1-.3-.2.1-.2.2-.3.3-.3Z"/>
  <path class="cls-1" d="M25.93,59.18s-.5.3-.8-.2c0,0-.7-.9-.1-1.4,0,0,.5-.3.5-.1,0,.1.1.1-.1.2,0,0-.5.3-.2.8,0,0,.2.5.5.4,0,0,.7-.1.2.3Z"/>
  <path class="cls-1" d="M25.03,58.58c0,.2,0,.4-.1.4-.1.1-.2,0-.3-.2,0-.2,0-.3.1-.4.1,0,.2.1.3.2Z"/>
  <path class="cls-1" d="M24.92,52.56c.1.2.1.3-.1.4l-.3.1c-.1.1-.3,0-.3-.1-.1-.1,0-.2.1-.3l.3-.2c.1,0,.3,0,.3.1Z"/>
  <path class="cls-1" d="M24.22,53.87c0,.2,0,.3.1.4l.4.1c.1.1.2,0,.3-.1.1-.1,0-.3-.1-.3l-.3-.2c-.2,0-.3,0-.4.1Z"/>
  <path class="cls-1" d="M41.47,39.33c-.1.1.3.4.7.6.5.2.9.3.9.2.1-.1-.3-.3-.7-.5-.5-.2-.91-.3-.91-.3Z"/>
  <path class="cls-1" d="M42.28,39.33c-.1.2-.1.4,0,.4s.2-.1.3-.3c.1-.2.1-.4,0-.5-.1,0-.2.2-.3.4Z"/>
  <path class="cls-1" d="M42.57,41.23s.3-.5-.1-.8c0,0-.9-.8-1.4-.2,0,0-.3.5-.2.5s.2,0,.31-.1c0,0,.2-.5.7-.1,0,0,.5.2.4.4,0,0-.1.7.3.3Z"/>
  <path class="cls-1" d="M45.68,41.03l-.7-.8s-.1-.5-1.2-.3c0,0-.2.2,0,.3l.4.1s.3.2-.1.4c0,0-.3.2.3.4,0,0,.4.1.4.3,0,0,.2.4.5,0,0,0,0-.4.5-.1,0,0,.3-.1-.1-.3Z"/>
  <path class="cls-1" d="M49.8,45.14l-.4-1s0-.5-1-.7c0,0-.3.2-.2.3l.4.3s.2.2-.2.4c0,0-.3,0,.2.4,0,0,.3.2.2.4,0,0,.2.5.5.1,0,0,.1-.3.6.1,0,0,.3,0-.1-.3Z"/>
  <path class="cls-1" d="M51.8,50.56l-.1-1.1s.3-.5-.7-.9c0,0-.3,0-.2.2l.3.4s0,.3-.4.2c0,0-.3,0,.1.5,0,0,.2.3.1.5,0,0-.1.5.4.2,0,0,.2-.2.5.3,0,0,.3.1,0-.3Z"/>
  <path class="cls-1" d="M51.9,56.47l.2-1s.4-.4-.4-1.2c0,0-.3,0-.3.2l.2.4s0,.3-.4.2c0,0-.3-.1-.1.4,0,0,.1.4-.1.5,0,0-.1.5.4.4,0,0,.3-.2.4.4,0,0,.2.2.1-.3Z"/>
  <path class="cls-1" d="M47.49,42.34s-1.5.2-1.2.6c0,0,.5,1.1.9.5,0,0,.5-.8.4-1.1h-.1Z"/>
  <path class="cls-1" d="M52.2,52.76s-1-.8-1-.4c0,0-.4,1,.2.8,0,0,.8-.1.8-.3v-.1Z"/>
  <path class="cls-1" d="M46.59,44.64s-.2.1-.5-.1v-.7l-.9-.1s-.2-.4.3-.6l.7.1s.3.4.3.5l.1.9Z"/>
  <path class="cls-1" d="M49.7,46.35c-.1.1,0,.5.1,1,.2.4.4.8.5.8,0-.1,0-.5-.2-.9-.1-.5-.3-.9-.4-.9Z"/>
  <path class="cls-1" d="M50.3,46.95c-.2.1-.3.2-.3.3s.2.1.4,0c.3-.1.4-.2.4-.3-.1-.1-.3-.1-.5,0Z"/>
  <path class="cls-1" d="M50.6,46.85c-.1,0-.1.2,0,.3.1.1.2.1.3,0,.1-.1.1-.2,0-.3,0-.1-.2-.1-.3,0Z"/>
  <path class="cls-1" d="M49.1,48.45s.6-.1.5-.6c0,0,0-1.2-.8-1.2,0,0-.5.1-.4.2,0,.1,0,.2.2.2,0,0,.51-.2.6.4,0,0,.2.5-.1.6,0,0-.61.4,0,.4Z"/>
  <path class="cls-1" d="M49.5,47.45c0,.2.1.3.2.3.1-.1.2-.2.1-.4,0-.2-.1-.3-.2-.3-.1.1-.2.2-.1.4Z"/>
  <path class="cls-1" d="M50.9,57.58c-.1-.1-.3.3-.5.7-.2.5-.3.9-.2.9.1.1.3-.3.5-.7.2-.5.2-.9.2-.9Z"/>
  <path class="cls-1" d="M51,58.38c-.2-.1-.4-.1-.5,0,0,.1.2.2.4.3.2,0,.4,0,.4-.1.1,0-.1-.2-.3-.2Z"/>
  <path class="cls-1" d="M51.3,58.38c-.1,0-.2.2-.2.3s.1.2.2.2c.2,0,.3-.1.3-.2,0-.2-.2-.3-.3-.3Z"/>
  <path class="cls-1" d="M49.1,58.78s.5.3.8-.2c0,0,.7-.9.1-1.41,0,0-.5-.3-.5-.1,0,0-.1.1.1.2,0,0,.5.3.2.7,0,0-.2.6-.5.5,0,0-.7-.1-.2.3Z"/>
  <path class="cls-1" d="M50,58.18c0,.2,0,.4.1.4s.2,0,.3-.2c0-.2,0-.3-.1-.4-.1,0-.2.1-.3.2Z"/>
  <path class="cls-1" d="M49.89,51.86c-.1.1,0,.3.1.3l.3.2c.1,0,.3,0,.4-.1,0-.1,0-.3-.2-.3l-.3-.2c-.1-.1-.3,0-.3.1Z"/>
  <path class="cls-1" d="M50.6,53.16c.1.1,0,.3-.1.3l-.3.2c-.2,0-.3,0-.4-.1,0-.2,0-.3.2-.4l.3-.1c.1-.1.2,0,.3.1Z"/>
  <path class="cls-1" d="M24.62,61.59l-.1-1s0-.3.3-.2l.6.1-.8,1.1Z"/>
  <path class="cls-1" d="M30.84,50.36c-.1.3-.5.4-.8.3-.3-.2-.5-.4-.4-.7,0-.3.4-.4.7-.3.4.1.6.4.5.7Z"/>
  <path class="cls-1" d="M43.78,50.16c.1.3.4.4.8.3.3-.1.5-.4.4-.7-.1-.2-.4-.4-.7-.3-.4.2-.6.5-.5.7Z"/>
  <path class="cls-1" d="M31.94,48.75c0,.1-.1.3-.2.3-.2,0-.3-.2-.3-.3s.1-.3.3-.3c.1,0,.2.2.2.3Z"/>
  <path class="cls-1" d="M34.35,47.65c0,.2-.1.3-.2.3-.2,0-.3-.1-.3-.3,0-.1.1-.2.3-.2.1,0,.2.1.2.2Z"/>
  <path class="cls-1" d="M30.84,52.36c0,.1-.1.3-.2.3-.2,0-.3-.2-.3-.3s.1-.3.3-.3c.1,0,.2.2.2.3Z"/>
  <path class="cls-1" d="M32.24,52.66c0,.1-.1.2-.2.2-.2,0-.3-.1-.3-.2,0-.2.1-.2.3-.2.1,0,.2,0,.2.2Z"/>
  <path class="cls-1" d="M32.55,53.27c0,.2-.1.2-.2.2s-.2,0-.2-.2c0-.1.1-.2.2-.2s.2.1.2.2Z"/>
  <path class="cls-1" d="M32.35,53.97c0,.1-.1.2-.2.2s-.2-.1-.2-.2.1-.2.2-.2.2.1.2.2Z"/>
  <path class="cls-1" d="M42.47,48.25c.1.2.2.3.3.3.2,0,.3-.2.2-.3,0-.1-.1-.3-.2-.2-.2,0-.3.1-.3.2Z"/>
  <path class="cls-1" d="M40.07,47.35c0,.2.1.3.2.3.2-.1.3-.2.3-.3,0-.2-.2-.3-.3-.3-.1.1-.2.2-.2.3Z"/>
  <path class="cls-1" d="M43.88,51.76c0,.2.1.3.3.3.1,0,.2-.2.2-.3s-.1-.2-.3-.2c-.1,0-.2.1-.2.2Z"/>
  <path class="cls-1" d="M42.57,52.16c0,.1.1.2.2.2s.2-.1.2-.2-.1-.2-.2-.2-.2.1-.2.2Z"/>
  <path class="cls-1" d="M42.28,52.86c0,.1.1.2.2.2s.2-.1.2-.2-.1-.2-.2-.2-.2.1-.2.2Z"/>
  <path class="cls-1" d="M42.47,53.47c.1.1.2.2.3.2s.2-.1.2-.2-.1-.2-.3-.2c-.1,0-.2.1-.2.2Z"/>
  <path class="cls-1" d="M45.38,51.06c-.2-.6-1.9-.2-1.9-.2-.91.1-.6-.3-.6-.3l.6-1.2c.8-1.4,0-1.7,0-1.7l-3.31-1.4c-.6-.3-.7.2-.7.2l-.4,1.1c-.2.6-.5.2-.5.2l-1.2-2.61v-.7h-.4v.7l-1.1,2.71s-.2.4-.5-.2l-.5-1.1s0-.5-1,.1c0,0-3.71,1.3-3.31,2l1.1,2.01s.2.9-.5.6c0,0-2.11-1-2.01,1.9,0,0,.1,2.31,1,2.31,0,0,.7,0,.4.6,4.72-1.9,7.22-1.5,7.32-1.5,4.51.1,6.62,1.1,6.62,1.1-.3-.3.1-.6.1-.6,1.1-.1,1.1-1.2,1.1-1.2.1-.6-.3-2.81-.3-2.81ZM38.26,49.86c.1,0,.3,0,.4.2.1.1,0,.3-.1.4-.1.1-.3,0-.4-.2-.1-.1,0-.3.1-.4ZM36.46,49.96c.2,0,.2.2.1.4-.1.1-.3.2-.4.1-.1,0-.1-.2-.1-.4.1-.1.3-.2.4-.1ZM33.15,54.87c-.9.6-.9-.1-.9-.1q0-.1-.1-.1c-.5-.1-1.2.4-1.2.4-2.01.6-1.3-2.71-1.3-2.71.1-1.2,1.3-.7,1.3-.7.1.1,1.11.1,1.11.1.6,0,.1-.9.1-.9l-.8-1.6c-.7-.9.2-1.2.2-1.2.1,0,1.4-.6,1.4-.6,1.61-.9,1.71-.2,1.71-.2l.5.9c.6,1.2,0,1.5,0,1.5-2.5,1.4-1.81,4.31-1.81,4.31.3.7-.2.9-.2.9ZM34.45,53.27s.2,1.1-.4.9c0,0-.7,0-.4-1.81,0,0,.3-1.3.9-1.1,0,0,.4.2-.1.8,0,0-.2.5,0,1.2ZM35.05,50.26c.1-.1.3-.2.4-.1.1.1.2.2.1.4-.1.2-.3.2-.4.2-.1-.1-.2-.3-.1-.5ZM36.86,52.97s-.2,0-.1.6c0,0,.1.3-.3.2,0,0-.4,0-.5.3,0,0-.2.4-.5-.1,0,0-.9-.9.1-2.71,0,0,.3-.4.4-.2,0,0-.2.6.1.8,0,0,.2.1.2.2,0,0,0,.1.3.1,0,0,.6-.2.5.1,0,0,.2.6-.2.7ZM37.26,48.95c-.2,0-.4-.2-.4-.4s.2-.4.4-.4.3.2.3.4-.1.4-.3.4ZM37.26,46.95c-.2,0-.3-.2-.3-.3,0-.2.1-.4.3-.4.1,0,.3.2.3.4,0,.1-.2.3-.3.3ZM39.47,53.97c-.3.5-.5.1-.5.1-.1-.3-.6-.3-.6-.3-.4.1-.3-.2-.3-.2.1-.6-.1-.6-.1-.6-.4-.1-.21-.7-.21-.7,0-.3.6-.1.6-.1.3,0,.3-.1.3-.1-.1-.1.2-.2.2-.2.3-.2.1-.8.1-.8,0-.2.4.2.4.2.91,1.8.1,2.71.1,2.71ZM39.16,50.56c0-.2,0-.4.1-.5.1,0,.3,0,.4.2.1.2.1.3-.1.4-.1.1-.3,0-.4-.1ZM40.77,53.97c-.71.1-.4-1-.4-1,.2-.6-.1-1.2-.1-1.2-.4-.6-.1-.7-.1-.7.7-.2.9,1.1.9,1.1.3,1.8-.3,1.8-.3,1.8ZM43.98,54.47s-.7-.4-1.2-.3c-.1,0-.1.1-.1.1,0,0,0,.7-.9.2,0,0-.5-.2-.3-.9,0,0,.5-2.91-2.11-4.11,0,0-.6-.3-.1-1.5l.5-1s.1-.7,1.71.1c0,0,1.31.5,1.51.5,0,0,.8.2.2,1.2l-.7,1.6s-.4.9.2,1c0,0,1-.1,1.1-.3,0,0,1.1-.5,1.3.6,0,0,.9,3.31-1.1,2.81Z"/>
  <path class="cls-1" d="M33.15,37.8h0c.61.75,1.26,1.65,1.27,1.82h0c0,.07.06.13.13.13s.13-.06.13-.13h0c0-.32-1.02-1.6-1.33-1.98h0c-.04-.05-.12-.06-.18-.02-.06.04-.06.12-.02.18h0Z"/>
  <path class="cls-1" d="M32.55,38.4h0c.36.44.84,1.16.78,1.39h0c-.02.07.02.14.09.15.07.02.14-.02.15-.09h0c.11-.44-.67-1.42-.83-1.62h0c-.04-.05-.12-.06-.18-.02-.05.04-.06.12-.02.18h0Z"/>
  <path class="cls-1" d="M25.63,28.5s3.31-1.61,3.91-1.3l-1.5-2.51-1.11-3.41-.08-1.36s-.82.15-1.72.55c-1,.5-1.91,1-4.21,2.21-2.21,1.3-5.31,3.61-5.31,3.61-1.5,1-.3,2.1-.3,2.1l1,1.1s1.3.9,0,1.8c0,0-8.03,6.42-9.43,17.75,0,0-1.81,10.33,4.21,19.75,0,0,1,1.1,0,1.61l-1.1,1s-1,1.1.3,2.51c0,0,6.92,8.32,13.44,9.93,0,0-2.71-2.81-4.01-6.01,0,0-.9-1,.5-1l2.91-.4s-.3-.5-.3-.8l-3.01-2.51c-.1-.1-.2-.4.4-1.1l.6-.8s.6-.6-.2-1.3c0,0-3.71-2.91-5.82-9.93,0,0-2.31-6.72.1-14.14,0,0,2.41-8.22,9.93-12.74,0,0,1.5-.7.7-1.91l-1.1-1.3s-.8-.6,1.2-1.4ZM21.62,75.83l-2.71.4s-1,0-.4.9c0,0,2.01,4.71,3.91,5.71,0,0-7.12-3.51-12.14-10.13,0,0-.3-.9.7-.8,0,0,.4.2,2.51,2.51,0,0,1.71,2.41,3.11.9l2.21-2.01,2.81,2.51ZM24.72,31.6c.6.6-.1.9-.1.9-2.51,1.4-5.52,4.51-5.52,4.51-2.81,3.01-4.41,7.22-4.41,7.22-1.91,5.11-1.71,8.92-1.71,8.92.1,4.71,1.5,8.53,1.5,8.53,1.91,5.52,5.22,8.42,5.22,8.42.7.6.1,1.1.1,1.1l-2.51,2.91c-.6.4-1-.1-1-.1-1.1-.5-3.91-4.51-3.91-4.51-4.11-5.51-4.61-12.43-4.61-12.43-.8-5.32.2-10.23.2-10.23,1.2-4.91,3.31-8.42,3.31-8.42,1.5-3.01,5.61-7.02,5.61-7.02.6-.6.9-.1.9-.1l1.5,1.81c1.1,1,1.9.3,1.9.3l1.81-1.4c1.2-.9,1.7-.4,1.7-.4ZM19.91,31.2c-.7.9-1.3,0-1.3,0l-2.61-2.91c-.8-.7-.3-1.4-.3-1.4.7-.7,4.51-3.11,4.51-3.11,1.91-1.5,4.82-2.61,4.82-2.61,1-.7,1.3-.3,1.3-.3.5.6.9,2.11.9,2.11.1.5,1.1,2.81,1.1,2.81.5.7-.3,1.1-.3,1.1-5.22,1.5-8.13,4.31-8.13,4.31Z"/>
  <path class="cls-1" d="M66.34,69.81l-1.1-1c-.9-.6-.3-1.5-.3-1.5,5.11-9.63,2.91-19.36,2.91-19.36-1.6-11.23-11.13-18.15-11.13-18.15-1.11-.8.1-1.5.1-1.5l1-1.2s1.01-1.4-.3-2.21c0,0-5.21-3.13-6.41-3.81,2.79,9.52-3.7,9.78-3.7,9.78-1.1.9-.01,1.45,1.19,1.85,1.9,1,3.91,2.21,5.32,3.51,4.11,3.81,5.42,7.92,5.42,7.92,3.11,7.42,1.2,14.34,1.2,14.34-1.3,7.22-5.51,10.43-5.51,10.43-1.3,1.3-.3,1.7-.3,1.7,1.71,1.1,1.2,1.4,1.2,1.4l-2.61,2.51c-.23.45-.23.52-.33.61l1.73.19c1.2.1,2.61.3,2.61.3-1.1,3.21-4.41,7.32-4.41,7.32,5.92-1.7,11.33-8.32,11.33-8.32,3.31-4.11,2.11-4.81,2.11-4.81ZM51.5,27.59l.1-4.01.5-1.2.3.1.1.3c2.81,1.5,2.81,1.4,4.01,2.51,0,0,1.81,1,.1,2.51l-.9,1-1.9,2.81-2.11-1c.1-.2.1-.5.1-.6-.1-.3-.6-.4-.7-.6-.4-.7.4-1.1.4-1.81ZM56.21,68.91s2.61-3.31,2.71-3.61c0,0,2.31-4.71,2.61-8.72,0,0,.51-3.21.1-6.12,0,0-.3-4.11-3.01-9.23,0,0-2.11-4.71-6.52-7.22,0,0-2.54-1.88-3.44-2.18,0,0-.57-.13-.47-.63,0,0,.1-.8,1-.5,0,0,1.91,1,2.61,1.61,0,0,1,.9,1.9,0,0,0,1.61-1.71,1.8-2.31,0,0,.2-.4.6,0,0,0,6.42,5.31,8.62,10.73,0,0,2.71,5.82,2.81,12.43,0,0,.4,4.81-1.9,10.43,0,0-2.21,6.22-5.12,8.83,0,0-.7.8-1.4.1l-3.01-2.51s-.7-.4.1-1.1ZM65.94,70.92c-4.41,7.02-11.73,11.03-11.73,11.03,1.8-1.2,3.91-5.92,3.91-5.92.5-1-.4-.9-.4-.9l-2.81-.3,2.61-2.61,2.41,1.9c1.4,1.3,3.01-1.2,3.01-1.2,1.8-2.51,2.21-2.71,2.21-2.71,1-.2.8.7.8.7Z"/>
  <path class="cls-1" d="M49.33,58.94c-3.03-3.03-7.07-4.7-11.37-4.7s-8.34,1.67-11.37,4.7c-3.03,3.03-4.7,7.07-4.7,11.37s1.67,8.34,4.7,11.37c3.03,3.03,7.07,4.7,11.37,4.7s8.34-1.67,11.37-4.7c3.03-3.03,4.7-7.07,4.7-11.37s-1.67-8.34-4.7-11.37ZM53.76,69.42c.02.3.03.59.03.89,0,3.43-1.08,6.69-3.08,9.39-.24.16-.87.38-.74-1.59.85-1.31,1.93-5.93,2.21-7.15.37-.51,1.22-1.62,1.58-1.55ZM41.56,83.73c-3.19.51-6.02.19-6.96.05-1.54-.89-2.96-4.64-2.96-4.64h0c1.12-1.58,2.66-3.72,3.16-4.28.67.12,3.5.58,6.8-.02.1.14.23.32.39.56.75,1.07,2.06,2.95,2.53,3.78-.3.72-1.7,3.89-2.96,4.54ZM49.88,77.79c-.61.29-3.49,1.6-5.14,1.28-.47-.85-1.74-2.67-2.55-3.82-.17-.24-.32-.46-.44-.63.31-.7,1.36-3.24,1.61-6.2,1.76-.69,4.22-1.58,5.17-1.77.59.4,2.11,1.64,3.36,4.35-.53,2.32-1.41,5.61-2.03,6.78ZM49.16,59.12c.61.61,1.16,1.27,1.66,1.95-.22.19-.93.57-2.52-.39h0c-1.5-.93-4.43-3.02-5.3-3.63-.59-.53-1.18-1.87-1.29-2.12,2.8.67,5.37,2.1,7.45,4.18ZM42.86,57.27c.93.66,4.04,2.88,5.49,3.76.19,1.13.75,4.74,0,5.42-1.32.3-4.28,1.44-5.14,1.77-.46-.53-1.98-2.09-5.14-3.71-.03-.96-.11-3.49-.25-5.46,1.08-.89,4.04-1.57,5.03-1.78ZM37.57,59.31s.02-.02.02-.02c.13,2,.21,4.5.24,5.33-.89.46-4.15,2.19-5.33,3.72l-5.24-1.53c-.75-.87-.68-4.1-.64-5.05,1.12-.83,4.82-3.6,5.73-4.33,4.94.43,5.23,1.88,5.23,1.88ZM26.77,59.12c1.79-1.79,3.93-3.09,6.28-3.85.26.37-.54,1.52-.87,1.96-.79.64-3.98,3.03-5.86,4.43-.64.28-1.56.32-1.83.33.64-1.03,1.39-1.99,2.27-2.87ZM27.19,67.05l5.29,1.54c.17.89.98,4.81,2.09,6.14-.7.82-2.7,3.64-3.23,4.39-3.1-.18-4.53-.9-5.09-1.31-.37-.68-1.79-3.42-2.15-6.36,1.62-3.34,2.62-4.2,3.1-4.4ZM22.14,70.27c.69-.14,1.54,1.15,1.73,1.48.39,2.75,1.66,5.28,2.09,6.09.21,1.62-.28,2.06-.52,2.17-2.14-2.76-3.31-6.13-3.31-9.69,0-.01,0-.03,0-.04ZM32.85,85.29c-.28-.66,1.08-1.08,1.79-1.25,1.02.14,3.84.44,6.99-.06.67.21,1.83.66,1.61,1.26-1.67.59-3.45.89-5.27.89s-3.49-.29-5.12-.84Z"/>
  <polygon class="cls-1" points="15.8 71.72 16.1 71.32 16.9 72.12 17.4 71.62 16.7 70.92 17 70.52 17.8 71.32 18.71 70.31 19.11 70.72 17 72.92 15.8 71.72"/>
  <polygon class="cls-1" points="16.4 68.41 16.8 68.01 17.8 69.31 15.4 71.22 14.39 69.91 14.79 69.61 15.4 70.41 16 70.01 15.4 69.21 15.8 68.91 16.4 69.71 17 69.21 16.4 68.41"/>
  <path class="cls-1" d="M16.6,67.81l-.5-.7c-.2-.3-.31-.5-.4-.6-.1-.1-.3-.1-.5-.1-.1,0-.2.1-.3.1v.7c.2-.1.4-.2.5-.2s.2.2.4.4l.1.1-1,.7v.7l1.71-1.1ZM14.9,66.5c-.2.1-.5.3-.8.4-.5.4-.7.6-.8.9-.1.2,0,.5.2.8l.5.8.9-.5v-.7l-.8.5c-.2-.3-.3-.5-.3-.6.1-.2.3-.4.8-.7.1-.1.2-.1.3-.2v-.7Z"/>
  <polygon class="cls-1" points="14.1 64.5 14.59 64.3 15.3 65.8 12.59 67.1 11.89 65.7 12.29 65.5 12.79 66.4 13.39 66.1 12.99 65.2 13.39 65 13.89 65.8 14.59 65.5 14.1 64.5"/>
  <path class="cls-1" d="M12.09,64.9l2.31-.9-.2-.5-1.21.5c-.2-.4-.2-.6-.2-.7s.2-.2.4-.3c.3-.1.4-.2.5-.2q.1-.1.2-.1l-.3-.7c0,.1-.1.2-.2.3-.2,0-.3.1-.6.2-.2.1-.3.2-.4.3v.4c-.1-.1-.2-.2-.3-.2v.5q.1,0,.2.1c.1,0,.1.2.2.3q0,.1.1.1v.1l-.5.2v.6ZM12.09,62.9c-.2,0-.3,0-.5.1-.2.1-.4.3-.5.4,0,.2,0,.5.1.8l.4.9.5-.2v-.6l-.3.1c-.1-.2-.2-.5-.2-.6s.1-.2.3-.3h.2v-.6Z"/>
  <path class="cls-1" d="M11.59,62.19l2.01-.2-.2-.5-.7.1-.2-.7.7-.4-.2-.6-1.4.9v.6l.5-.3.1.5-.6.1v.5ZM10.48,62.29l1.1-.1v-.5h-.7l.7-.3v-.6l-1.31.7.2.8Z"/>
  <path class="cls-1" d="M11.59,58.68l-.2-.5c.4-.1.7-.1.9-.1.3.1.4.4.5.7.1.3,0,.6-.2.8-.2.2-.6.4-1.3.5-.5.2-.9.2-1.1.1-.3-.1-.5-.3-.5-.7-.1-.3-.1-.5,0-.7.1-.2.4-.3.7-.4l.2.5c-.1.1-.2.1-.3.2-.2,0-.2.2-.2.3.1.2.2.3.6.2h.4l.1-.1c.5-.1.91-.2,1.01-.3.1,0,.2-.1.1-.3,0-.1-.1-.2-.2-.2-.1-.1-.3-.1-.5,0Z"/>
  <polygon class="cls-1" points="9.28 57.38 12.29 56.87 12.39 57.48 9.38 57.98 9.28 57.38"/>
  <path class="cls-1" d="M10.59,56.67h.2c.5-.1.9-.1,1.1-.3.3-.2.4-.5.3-.9,0-.3-.1-.5-.2-.7-.2-.1-.4-.2-.6-.2s-.4,0-.8.1v.6h.1c.4-.1.7-.1.8-.1.2.1.3.2.3.4s-.1.4-.4.4c-.1,0-.3.1-.6.1h-.2v.6ZM9.28,54.97c-.2.2-.3.5-.2.9,0,.4.2.6.4.8.3.1.6.1,1.11,0v-.6c-.4.1-.6.1-.7.1-.3-.1-.4-.2-.4-.4s.1-.3.3-.4c.1,0,.4-.1.81-.1v-.6h-.1c-.6,0-1.01.2-1.2.3Z"/>
  <polygon class="cls-1" points="8.88 52.16 11.89 52.06 11.99 52.66 9.88 53.57 11.99 53.47 11.99 54.07 8.98 54.17 8.88 53.57 11.09 52.66 8.88 52.76 8.88 52.16"/>
  <polygon class="cls-1" points="9.38 47.55 12.39 48.05 12.29 48.55 9.68 48.15 12.29 49.16 12.19 49.56 9.38 49.65 12.09 50.16 11.99 50.66 8.98 50.16 9.08 49.25 11.18 49.16 9.28 48.45 9.38 47.55"/>
  <polygon class="cls-1" points="12.49 45.95 12.99 46.05 12.59 47.65 9.58 46.85 9.98 45.24 10.48 45.34 10.28 46.35 10.98 46.55 11.18 45.64 11.69 45.74 11.39 46.75 12.19 46.95 12.49 45.95"/>
  <polygon class="cls-1" points="12.09 44.04 13.79 43.84 13.59 44.44 12.39 44.54 13.19 45.34 12.99 45.95 11.79 44.64 10.18 44.84 10.38 44.24 11.39 44.14 10.68 43.44 10.88 42.84 12.09 44.04"/>
  <polygon class="cls-1" points="11.39 41.83 14.1 43.04 13.89 43.64 11.09 42.44 11.39 41.83"/>
  <path class="cls-1" d="M13.89,41.03l.3-.51c.4.2.6.4.7.6.1.2.1.4-.1.7-.2.4-.4.6-.6.6-.3,0-.8-.1-1.41-.5-.5-.2-.8-.5-.9-.7-.1-.2-.1-.5.1-.8.1-.3.3-.5.5-.5.2-.1.5-.1.8.1l-.3.5c-.1,0-.2,0-.2-.1-.2,0-.4.1-.4.2-.1.1,0,.3.3.5.1.1.2.2.3.2q.1.1.2.1c.4.3.7.4.9.4.1,0,.2,0,.3-.1.1-.2.1-.3,0-.4-.1-.1-.2-.2-.5-.3Z"/>
  <path class="cls-1" d="M14.29,39.93l.9,1,.4-.5-.6-.6.4-.5.7.2.3-.5-2.11-.7v.5l.6.3-.2.4-.4-.3v.7ZM13.09,38.62l1.2,1.31v-.7l-.6-.6.6.2v-.5l-.8-.3-.4.6Z"/>
  <polygon class="cls-1" points="15.4 35.41 17.8 37.32 17.4 37.82 15.2 37.12 16.9 38.42 16.6 38.82 14.19 37.02 14.59 36.52 16.7 37.12 15.1 35.82 15.4 35.41"/>
  <path class="cls-1" d="M17.4,36.32l.5.8.4-.4-.4-.7.4-.4.7.4.4-.5-2.01-1.21v.7l.5.3-.3.4-.2-.3v.9ZM16.2,34.51l1.21,1.81v-.9l-.5-.8.5.4v-.7l-.7-.4-.5.6Z"/>
  <path class="cls-1" d="M57.42,33.41c0-.2-.21-.5-.51-.8l-.5-.5-.5.4v1l.5-.5c.2.1.3.2.3.3s-.1.2-.3.4l-.5.5h0v.9c.2-.1.4-.3.7-.6.5-.5.81-.9.81-1.1ZM55.91,32.51l-1.7,1.7.5.6c.4.3.7.5.9.4.1,0,.2,0,.3-.1v-.9c-.2.2-.4.3-.4.3-.1,0-.3,0-.4-.2l.8-.8v-1Z"/>
  <polygon class="cls-1" points="56.91 37.12 55.81 35.82 58.12 33.91 59.22 35.11 58.72 35.52 58.12 34.81 57.72 35.11 58.32 35.82 57.82 36.22 57.21 35.52 56.72 36.02 57.32 36.72 56.91 37.12"/>
  <polygon class="cls-1" points="60.83 38.32 60.23 37.52 59.83 37.82 60.33 38.52 59.83 38.92 59.32 38.22 58.22 38.92 57.82 38.32 60.33 36.62 61.33 37.92 60.83 38.32"/>
  <path class="cls-1" d="M61.03,41.03c-.4.2-.7.3-.9.3-.3,0-.5-.1-.7-.5-.2-.3-.3-.6-.2-.8.1-.2.4-.5.9-.7l1.5-.9.3.6-1.6,1c-.2.1-.4.2-.4.3-.1.1-.1.2,0,.2,0,.1.1.2.1.1.1,0,.3,0,.5-.2l1.71-1.01.3.6-1.51,1Z"/>
  <polygon class="cls-1" points="63.13 42.44 62.83 41.83 60.63 42.93 60.33 42.34 62.53 41.23 62.23 40.73 62.83 40.43 63.63 42.13 63.13 42.44"/>
  <path class="cls-1" d="M63.33,44.64v-.6c.1,0,.1-.1.2-.1s.1-.1.2-.1c0-.1,0-.3-.1-.4l-.3.1v-.8l.51-.2.3.7c.1.4.2.6.2.8s-.2.4-.5.5c-.2.1-.3.1-.51.1ZM62.13,44.04l.4-.2c.1.2.1.4,0,.5,0,0-.1.1-.2.1,0,.1-.1.1-.2.1v.7c.2,0,.3,0,.5-.1.1,0,.2-.1.3-.2.1-.1.1-.2.2-.4,0,0,.1.1.2.1h0v-.6c-.1,0-.1-.1-.2-.1,0-.1-.1-.2-.1-.3l.3-.1v-.8l-1.2.5v.8ZM62.03,44.54c-.1-.1-.2-.2-.3-.4l.4-.1v-.8l-1.11.5.3.8c.1.3.3.5.5.6.1.1.2.1.3.1v-.7h-.1Z"/>
  <path class="cls-1" d="M65.04,46.65c.2-.2.2-.4.1-.8-.1-.3-.2-.5-.4-.6-.2-.1-.4-.2-.6-.1-.1,0-.3,0-.6.1v.8l.1-.1c.3-.1.5-.1.7-.1.1,0,.2,0,.2.1.1.2,0,.3-.1.4-.1,0-.2.1-.5.1v.1h-.1l-.3.1v.7c.1,0,.2,0,.3-.1.7-.1,1.1-.4,1.2-.6ZM63.53,45.24s-.1.1-.2.1c-.6.2-1,.4-1.2.6-.2.2-.2.4-.1.8.1.3.2.5.4.6.1.1.3.2.6.2.1-.1.3-.1.5-.2v-.7c-.3.1-.6.1-.7.1-.1.1-.2,0-.2-.1-.1-.2,0-.3.2-.4,0,0,.2-.1.4-.1l.3-.1v-.8Z"/>
  <polygon class="cls-1" points="62.83 49.65 62.53 48.05 65.44 47.45 65.64 48.15 63.23 48.65 63.44 49.45 62.83 49.65"/>
  <path class="cls-1" d="M66.14,52.06l-.1-.8-1.2-.2v.6h.7l-.7.2v.6l1.31-.4ZM64.84,51.06l-1.9-.3.1.7.6.1v.5l-.6.1.1.8,1.7-.5v-.6l-.6.1-.1-.4.7.1v-.6Z"/>
  <path class="cls-1" d="M63.93,54.87c-.3,0-.5-.1-.7-.2-.2-.2-.3-.4-.2-.7,0-.4,0-.6.2-.7.2-.2.5-.2.9-.2v.7c-.2-.1-.4,0-.5,0,0,0-.1.1-.1.2s0,.1.1.2h.2c.1,0,.3-.1.5-.3.2-.3.3-.4.3-.5.1,0,.2-.1.3-.1.1-.1.3-.1.4-.1.3,0,.5.1.6.2.2.1.3.4.3.7-.1.3-.1.5-.3.6-.1.2-.4.3-.8.2l.1-.6h.3q.1-.1.1-.2v-.2s-.1-.1-.2-.1-.2.1-.3.1c0,.1-.1.2-.3.4-.1.2-.2.3-.3.4-.1.2-.3.2-.6.2Z"/>
  <path class="cls-1" d="M65.54,57.28c.3-.1.4-.4.4-.7.1-.3,0-.6-.1-.8-.1-.1-.2-.2-.5-.3-.1,0-.4-.1-.8-.2h-.2v.8h.2c.3,0,.6.1.7.1.1.1.2.2.2.3s-.1.2-.3.2h-.6l-.2-.1v.8c.6.1,1,0,1.2-.1ZM64.34,55.27c-.5,0-.9,0-1.1.1-.2.1-.4.3-.4.7-.1.3-.1.6,0,.7.1.2.3.3.5.4.2.1.51.1.9.2h.1v-.8c-.4,0-.7-.1-.8-.1-.1-.1-.2-.1-.2-.3.1-.2.2-.2.4-.2h.4l.2.1v-.8Z"/>
  <path class="cls-1" d="M63.33,59.69c-.4-.1-.7-.3-.8-.4-.2-.2-.3-.5-.2-.9.1-.4.3-.6.5-.7.3-.1.7-.1,1.31.1.6.1,1,.3,1.2.5.2.2.2.5.1.8,0,.3-.1.5-.3.7-.2.1-.6.2-1,.1l.1-.7c.4.1.6,0,.7-.2,0-.1-.1-.2-.3-.3-.1-.1-.3-.1-.5-.2h-.3c-.2-.1-.4-.1-.6-.1-.2-.1-.3,0-.3.1v.2c.1.1.3.2.6.3l-.2.7Z"/>
  <rect class="cls-1" x="61.92" y="59.77" width=".73" height=".73" transform="translate(-12.85 103.16) rotate(-73.79)"/>
  <path class="cls-1" d="M61.63,61.29c-.2,0-.4-.1-.4-.3-.1-.1-.1-.3-.1-.5l.2.1c0,.1,0,.2.1.2,0,.1.1.2.2.2l.1-.3.6.3-.2.5-.5-.2Z"/>
  <path class="cls-1" d="M63.03,65.3l.4-.8-1.3-1.1v.8l.6.4-.6-.2v.6l.9.3ZM62.13,63.4l-1.11-.8-.3.6.5.3-.3.5-.6-.1-.3.6,2.11.5v-.6l-.7-.2.2-.3.5.3v-.8Z"/>
  <polygon class="cls-1" points="59.62 65.3 59.92 64.6 60.53 65 60.23 65.6 59.62 65.3"/>
  <path class="cls-1" d="M59.32,67.91c-.3-.3-.6-.5-.6-.6-.2-.3-.1-.6.1-.9.2-.3.4-.5.7-.5.3-.1.7.1,1.2.5.5.3.8.6.9.9.1.2.1.5-.1.8-.1.2-.3.4-.5.4-.3.1-.6,0-1-.2l.4-.6c.3.2.5.2.6.1.1-.1,0-.3-.1-.4-.1-.1-.3-.2-.4-.3l-.1-.1-.2-.1c-.2-.1-.4-.2-.5-.3-.2-.1-.3,0-.4.1-.1,0-.1.1,0,.2,0,.1.2.2.4.4l-.4.6Z"/>
  <rect class="cls-1" x="57.86" y="67.65" width=".72" height=".72" transform="translate(-30.68 78.54) rotate(-56.19)"/>
  <path class="cls-1" d="M49.22,53.09c-.16-.05-.41.29-.46.36-.18.25-.29.28-.35.27-.12-.03-.17-.26-.18-.35h0s0,0,0,0c-.09-.29,0-.96,0-.98h0c0-.25.04-.39.12-.42.12-.05.34.16.41.24.18.22.33.32.44.3.1-.02.13-.11.13-.12h0s0-.02,0-.02c-.2-3.03-1.53-5.86-3.76-7.97-2.24-2.13-5.16-3.29-8.21-3.29s-6.12,1.2-8.38,3.37c-2.24,2.16-3.55,5.07-3.7,8.2,0,.03,0,.08.03.12.09.08.33.02.72-.18.01,0,.33-.11.48,0,.05.03.07.09.07.16v1.2c0,.09-.03.35-.16.41-.09.04-.22,0-.38-.14h0s0,0,0,0c-.12-.07-.52-.29-.64-.19-.02.02-.05.06-.03.13v.1s.07,1.86,1.3,4.37c0,.02.03.03.05.02,0,0,0,0,0,0,.04.07.07.15.11.22.79-.77,1.67-1.45,2.61-2.04-.03-.07-.06-.15-.1-.22.01,0,.03,0,.04,0,.02-.01.02-.04,0-.05-.69-1.06-.75-3.36-.75-3.39,0-4.79,3.9-8.68,8.68-8.68s8.68,3.9,8.68,8.68c0,.01-.03,1.52-.48,2.86,0,0,0,.02,0,.02-.02.07-.05.14-.08.22.99.53,1.92,1.15,2.76,1.86,0,.02,0,.03.02.04.02,0,.04,0,.05-.02.93-2.09,1.01-4.65,1.01-4.68v-.1c0-.16-.04-.26-.11-.28ZM43.78,44.14c-.2.2-.5.2-.7.1v-.1c-.2-.1-.2-.4-.1-.6.2-.2.5-.2.7-.1v.1c.2.1.2.4.1.6ZM43.18,45.24c.2-.2.6-.2.8,0l.7.7c.2.2.2.6-.1.8-.2.2-.6.2-.8,0l-.6-.7c-.3-.3-.2-.6,0-.8ZM44.48,45.04c-.3,0-.5-.2-.5-.5,0-.2.2-.4.5-.4.2,0,.4.2.4.4,0,.3-.2.5-.4.5ZM45.18,44.94c.2-.1.5,0,.6.3.1.3,0,.6-.2.7-.3.1-.5,0-.7-.3-.1-.3,0-.6.3-.7ZM46.08,45.84c.2-.1.5.1.6.3.1.3,0,.6-.2.7-.3.1-.6,0-.7-.3-.1-.3,0-.6.3-.7ZM46.99,46.95c.2,0,.4.1.4.4s-.2.5-.4.5c-.3,0-.5-.2-.5-.5s.2-.4.5-.4ZM39.47,42.63c-.2-.1-.4-.3-.3-.6,0-.2.3-.4.5-.3l.4.1c.3,0,.5.3.4.5,0,.3-.3.4-.5.4l-.5-.1ZM39.57,43.74c-.1.3-.3.5-.6.4l-1-.1c-.3,0-.5-.3-.5-.6.1-.3.3-.6.6-.5l1,.1c.3.1.5.4.5.7ZM40.37,43.84c.2-.2.5-.3.81-.2l.8.5c.3.1.4.5.3.8-.21.2-.5.3-.81.2l-.9-.5c-.2-.1-.3-.5-.2-.8ZM40.77,42.54v-.1c.1-.2.4-.3.6-.2.3.1.4.4.2.6-.1.3-.4.4-.6.3-.3-.1-.4-.4-.2-.6ZM41.97,43.54l-.1-.1c-.2-.2-.2-.5,0-.7.2-.2.5-.1.7.1h.1c.2.2.2.5,0,.7-.2.2-.5.2-.7,0ZM27.53,46.55c.1-.3.4-.4.6-.3.3.1.4.4.3.7-.2.2-.4.4-.7.3-.2-.2-.3-.4-.2-.7ZM27.73,47.85c0,.3-.2.5-.4.5-.3,0-.5-.2-.5-.5s.2-.5.5-.5c.2,0,.4.2.4.5ZM28.34,45.54c.2-.3.4-.4.7-.3.2.1.3.4.2.7-.1.2-.4.4-.6.2-.3-.1-.4-.3-.3-.6ZM29.24,44.84c0-.2.2-.4.4-.4.3,0,.5.2.5.4,0,.3-.2.5-.5.5-.2,0-.4-.2-.4-.5ZM29.74,46.35l.7-.7c.2-.3.5-.3.8-.1.2.2.2.6,0,.8l-.7.7c-.2.3-.5.3-.8.1-.2-.3-.2-.6,0-.8ZM30.44,43.74v-.1c.2-.1.5-.1.7.1.1.2.1.5-.1.6v.1c-.2.1-.5.1-.7-.1-.1-.2-.1-.5.1-.6ZM31.44,43.04v-.1c.2-.2.6-.2.7,0,.2.2.2.5,0,.7-.2.2-.5.2-.7.1-.2-.2-.2-.5,0-.7ZM32.05,44.24l.9-.5c.3-.1.6,0,.8.3.1.2,0,.6-.3.7l-.8.5c-.3.1-.6,0-.8-.2-.1-.3,0-.6.2-.8ZM33.15,43.24c-.3.1-.6,0-.7-.2v-.1c-.1-.2,0-.5.3-.6.2-.1.5,0,.6.2v.1c.1.2,0,.5-.2.6ZM33.65,42.44c-.1-.2.1-.4.3-.5l.5-.1c.2,0,.4.1.5.4,0,.2-.1.5-.4.5l-.4.1c-.3.1-.5-.1-.5-.4ZM34.95,43.04l1-.1c.3-.1.6.1.6.4.1.3-.1.6-.4.7l-1,.1c-.3.1-.6-.2-.6-.5-.1-.3.1-.6.4-.6ZM26.43,49.65c.3,0,.4.2.4.5l-.1.9c0,.3-.2.5-.5.5-.2,0-.4-.3-.3-.6l.1-.9c0-.2.2-.5.4-.4ZM26.13,56.77l-.2-.7c0-.2.1-.5.4-.6.2,0,.5.1.6.4l.2.7c0,.2-.1.5-.4.6-.2,0-.5-.1-.6-.4ZM26.83,49.45c-.3,0-.5-.2-.5-.5s.2-.5.5-.5c.2,0,.4.2.4.5s-.2.5-.4.5ZM27.13,53.97c0-.3.2-.6.6-.6.3,0,.5.3.5.6v.9c0,.4-.2.6-.5.6-.4,0-.6-.2-.6-.6v-.9ZM27.63,52.46c-.3,0-.5-.3-.5-.6l.1-1c.1-.3.3-.5.6-.5.4,0,.6.3.5.6l-.1,1c0,.3-.3.5-.6.5ZM28.34,49.56c-.3-.1-.5-.5-.3-.7l.4-.9c.1-.3.4-.5.7-.3.3.1.4.4.3.7l-.4.9c-.1.3-.5.4-.7.3ZM45.49,48.95l-.4-.9c-.1-.3,0-.6.3-.8.3-.1.6.1.7.3l.4.9c.1.3,0,.6-.3.8-.3.1-.6,0-.7-.3ZM46.69,49.96c.3-.1.6.1.6.4l.2,1c0,.3-.2.6-.5.6-.3.1-.6-.1-.6-.4l-.2-1c0-.3.2-.6.5-.6ZM46.49,53.37c0-.3.3-.5.6-.5s.6.2.6.5v1c0,.3-.3.6-.6.6s-.6-.3-.6-.6v-1ZM47.49,48.95c-.2,0-.4-.2-.4-.4v-.1c0-.2.2-.4.4-.4.3,0,.5.2.5.4v.1c0,.2-.2.4-.5.4ZM47.99,49.16c.3,0,.5.2.6.4l.2.9c0,.3-.1.6-.3.6-.2.1-.5-.1-.5-.4l-.3-.9c0-.2.1-.5.3-.6ZM47.79,55.87l.2-.8c0-.2.3-.4.5-.3.3.1.4.3.4.6l-.2.7c-.1.3-.4.4-.61.3-.3,0-.4-.3-.3-.5ZM27.03,58.18c-.2,0-.4-.2-.4-.4s.2-.3.4-.3.4.1.4.3-.2.4-.4.4ZM28.64,56.87l-.4.2c-.2.2-.4.1-.5-.1-.1-.2-.1-.5.1-.6l.4-.2c.2-.1.4,0,.5.2.1.2.1.4-.1.5ZM47.19,56.37c-.1.2-.4.3-.6.2l-.3-.2c-.2-.2-.3-.4-.2-.6.1-.2.4-.3.6-.2l.3.2c.2.2.3.4.2.6ZM47.79,57.48v-.1c-.2,0-.3-.2-.3-.4.1-.1.3-.2.5-.1.2.1.3.2.3.4-.1.2-.3.2-.5.2Z"/>
  <g>
    <path class="cls-1" d="M55.71,28.8l-1.72,2.08c-.06.03-.27.13-.49.13-.3-.1-.3-.3-.5-.5-.1-.1-.4-.3-.6-.4-.4-.2-.8-.4-1.1-.7-.4-.4.5-1.1.6-1.6.1-.6,0-1.3,0-1.91,0-.5-.4-3.21.5-3.11l.1.1.4-.6h-.1s-1-.3-1-1c0-.1,0-2.81-1.31-4.51,0,0-2.31-3.51-5.01-5.01,0,0-3.91-2.51-5.72-3.11-.1,0-4.41-1.4-7.72-1.2,0,0-1.11.1-1.61.7-.2.2-.2.5-.2.8,0,0,0,.7,1.21,1.4.5.3,1,.6,1.5,1,.4.3.6.6.8,1.1.3.5.4,1,.5,1.6,0,.5.1,1,0,1.6,0,.2-.1.7-.5.5-.1,0-.2-.3-.3-.3-.2-.2-.4-.4-.5-.5-.3-.3-.5-.6-.7-.9-.2-.4-.5-.6-.8-.9-.5-.5-1-1-1.51-1.5-.3-.2-.5-.5-.8-.6-.2-.2-.4-.2-.5-.4-.4-.4-.5-.9-.6-1.4,0-.2-.3-.3-.6-.3-.2,0-.8.3-1.2.4-.4.2-.7.4-1.61.6-.8.3-1.8.6-2.11.6s-1,.2-1.51,1c-.5.8.1,1.6.6,2.21.5.6.9.5,1.1.4.2-.1.2-.4.5-.5.3-.2.6.1,1.51.3.9.2,1.4.1,1.6.2.6.2.4,1.2.3,1.71-.1.9-.3,1.6-.4,2.51,0,.5-.1,2.11.3,2.41,0,0,.3,1.2.7,2.01,0,0,.2.8.4,1.2l.7,1.4.2.4c0,.1,1.2,1.81,2.51,1.81.2,0,.7,0,.9.2v.1c0,.1.2,1.91.6,2.31,0,0,.2.4.1.7,0,.2-.1.2-.2.3-.2.1-3.21,2.11-3.11,3.11,0,.6.1.9.1,1s-.1.1-.3.2h-.2v.1c-1,.6-2.3,1.3-2.3,1.6v.2c.1.1.3.2,2.61-1.5,0,0,.4-.1.7.3l.6,1.1c0,.1.1.3.1.5h-.2l-1.51.9v.1s-.1.1-.1.3c.1.1.2.1.3.2l1.9-1c0-.1.2-.1.2-.3.1,0,.1-.1.1-.2s-.1-.3-.2-.5l-.7-1.2c-.1,0-.1-.2-.1-.4v-.1c0-.1.1-.1.2-.1s.5,0,.6.2c0,0,.2.4,1.1.2.2-.1.8-.1.9.1v.1s0,.2-.2.2v.1l-1,.5-.1.5s0,.1.1.1c.1.1.2.1.4,0l1.1-1c.1,0,.3,0,.3.1l1.6,2.6h.5v-.6l-.6-1.2c0-.1-.1-.2-.1-.2,0-.1.2-.2.4-.2h.8s.1,0,.2.1c0,.1.1.3-.1.6l-.3,1.5h1.3l-.3-1.5c-.1-.1-.1-.5,0-.6,0-.1.1-.1.1-.1h.9l.1.1v.3c-.1.1-.4.8-.4,1.2,0,.2,0,.4.2.5h.7v-.7c0-.1,0-.5.7-1.2.2-.1.5-.4.5-.6v-.1s-.1-.1,0-.2c0,0,.1,0,.3.1.1,0,.2.1.2.2,0,0-.1.1-.2.1v.1c-.3.4-1.2,1.6-1.2,2.1,0,.1,0,.2.1.3h.7v-.1c.3-.9.8-2,1-2,.1-.1.2-.1.31-.1l.2.3h.3q.1-.1.2-.2v-.5h.2q.1-.1.1-1s0-.3.2-.4c.2-.2.6-.1,1.1,0l3.21,1.6s.3.1.4,0q.1,0,.1-.1v-.1c0-.2-.4-.5-1.31-.9-.1-.1-2.51-1.4-3.41-1.3h-.2c0-.1-.1-.2-.1-.3s-.2-1.51-1-1.6h-.1s-1.01.2-1.4-.5h-.1c-.1-.1-.3-.3-.3-.5,0,0,0-.1.1-.1.1-.1.3-.4.5-.4h.2c0,.1.6,1,1.51,1h1.2c.1.1.8.5,1.5.1.2-.2.9-.6,1.21-.6,0,0,.9.1,1.4-.3,0,0,.3-.3.5-.1v.1l.7-.4h.1s0-.3.3-.5c.1-.1.3-.1.61,0,.1,0,2.1,1.1,2.71,1.61,0,0,.9.8,1.9.1.1-.1,1.41-1.71,1.71-2.21,0,0,.2-.3.3-.3.1-.1.2,0,.3,0l.1.1.16-.65-.56-.55ZM31.04,34.01c-.2.2-.7.7-.7.7-.5.2-.5-.1-.5-.1.1-.8,1-1.1,1-1.1.6-.2.2.5.2.5ZM50.9,25.08s-2.61-4.51-1.3-3.31c0,0,1.9,1.8,1.8,2.41,0,0,.1,2.51-.5.9ZM50.4,22.17s-2.01-1.7-2.21-2.3c0,0-1.4-1.6-.7-1.6,0,0,.7-.2,1.1.1l1.41.7s.8,0,.9,1.51c0,0,1.1,3.71-.5,1.6ZM48.39,14.65s2.01,2.41,2.1,3.51c0,0,.3,1-.7.4,0,0-2.21-.7-2.71-1.61,0,0-2.11-3.11-1.7-3.21,0,0,1.81-.6,3.01.9ZM39.47,22.68s2.01,1.3,2.41,2.41c0,0,.2.9-.6.6,0,0-1.7-.6-1.81-.7,0,0-.2-.1-.1-.5,0,0-.5-2.11.1-1.81ZM40.97,23.28c-1-1.4-1.9-1.4-1.9-1.4-.81,0-.81-.4-.81-.4,0-.2-1.3-1.8-1.3-1.8-.5-.5.2-.4.2-.4,1.91.4,3.61,2.2,3.61,2.2.2.2,1.8,2.61,1.8,2.61.3.6-.1.6-.1.6-.3-.1-1.5-1.4-1.5-1.4ZM42.57,25.08s.4.3.5,0c0,0,.1-.4.4-.1,0,0,1.1,1.3.7,1.4,0,0-.6.3-1.5-.4,0,0-.8-.6-.1-.9ZM41.37,21.47s-.91-1-.4-1.1c0,0,1.2-.2,1.5.5,0,0,2.71,4.31,2.81,5.12,0,0,.3.8-.6.1,0,0-2.51-3.31-3.31-4.61ZM42.07,19.87s-.7-1,1.11-.2c0,0,2.51,2.71,4.21,7.52,0,0-.2.7-1.1-.5,0,0-3.01-5.92-4.21-6.82ZM40.87,18.87l-1.9-1.2s-.8-.5.1-.5l2.31-.1s.8,0,3.91.9c0,0,1.2.1.5.7,0,0-1.91.2-2.01.4,0,0-2.21.3-2.91-.2ZM42.68,16.86s-1-.2-1.2-.7c0,0-.6-.6-1-.7,0,0-.2-.3.1-.4,0,0,.7-.1.7-.2,0,0,.5-.4,1.1-.1,0,0,5.42,2.31,4.51,3.01,0,0-.7.3-4.21-.9ZM39.26,12.85s-.2-.4.3-.3c0,0,1.3-.4,2.1.2,0,0,1.3.5,1.81.5,0,0,1,.1,1.3.8,0,0,1.3,2.1.2,1.5l-3.11-1.4s-1.5-1.1-2.61-1.3ZM41.77,10.24s2.51,1,4.21,2.51c0,0,.5.6-.3.5,0,0-3.41-.2-5.72-1.9,0,0-.7-.6-1.11-.7,0,0-.6-.2.1-.5,0,0,1.21-.6,2.81.1ZM32.35,10.04c-1.5-.7-1.6-.9-1.6-1.1-.1-.9,1.2-1,1.2-1,4.01,0,7.22,1,7.22,1,.5.2-.3.6-.3.6-2.2.4-4.51-.1-4.51-.1-1.2.1.1.5.1.5l1.51.1c2.81.5,3.91,1.71,3.91,1.71.3.3-.2.3-.2.3-.3.1-3.01.1-3.01.1-.5.1-.1.4-.1.4,2.51.3,4.21,1.4,4.21,1.4.9.5,0,.7,0,.7-1.91.3-4.11-.4-4.11-.4-.8-.1-.3.3-.3.3,3.21.7,4.51,1.6,4.51,1.6.6.4-.2.6-.2.6-2.41.3-4.91-.4-4.91-.4-.4-.1-.1.3-.1.3,3.61,1.2,5.12,2.91,5.12,2.91.3.5-.2.5-.2.5-2.11-.3-5.72-2.81-5.72-2.81-1-.6-.1-1-.1-1,.4-.4.2-1.81.2-1.81-.4-3.71-2.61-4.41-2.61-4.41ZM33.55,16.86s.3-.2.7.3c0,0,1,1,.9,1.5,0,0,0,.5.3.5,0,0,1,.1,2.81,3.11,0,0,.5.5.5,2.01,0,0,.2.9-.4.6,0,0-1.91-.9-2.11-1.6,0,0-1.3-3.61-1.3-4.01,0,0,0-.5-.3-.5,0,0-2.41-.2-2.91-2.21,0,0-.1-.3.1-.3,0,0,1.41.7,1.71.6ZM30.24,20.67s-.7-.6-.1-.6c0,0,.3.1.7.5,0,0,.4.4.3,0,0,0-.2-.5-.7-.7,0,0-.5-.2-.2-.4,0,0,.3-.4,1.01.1,0,0,1.7.9,1.8,5.01,0,0,.1.7-.2.4,0,0-1.7-1.2-1.7-1.4,0,0,0-.2-.1-.4,0,0-.2-.2-.4-.4,0,0-.3-.3,0-.5,0,0,.3-.6-.4-1.6ZM27.83,18.16c0-.1-.1-.2-.1-.3.1-.2.3-.4.4-.3.1,0,.2.3.3.4.1.4.4.5.8.6.8.3,1.2.9.1,1-.2,0-.6.1-.9,0-.5-.1-.4-.4-.4-.8q0-.3-.2-.6ZM28.23,16.06c-.1.3-.2.5-.4.7,0,.2-.1.7-.3.8-.3.2-.5-.2-.5-.4-.1-.3,0-.6.1-.9.1-.4,0-1.71.7-1.2h-.1c.4.2.6.6.5,1ZM29.74,16.06c.3.1,2.31.6,1.71,1.11-.3.3-.7,0-1.1,0-.3-.1-.5,0-.8,0-.2,0-.5,0-.8-.1-.3-.1-.5-.3-.5-.7.2-.7,1-.4,1.51-.3ZM29.34,15.36c.1-.7,1-.1,1.3,0,.3.1,1.3.6.5.7-.4,0-1.91-.2-1.81-.7ZM32.24,17.86c0,.4-.3.4-.3.4-.3,0-1.4.4-1.4.4-.6.1-.8-.2-.8-.2,0-.1-1.1-.5-1.1-.5-.5-.5.5-.5.5-.5h2.2c1,0,.9.4.9.4ZM32.95,19.07s.8,1.31.2,1.41c0,0-.6.3-.9-.4,0,0-.6-.8-1-.8,0,0-.5-.5.3-.6,0,0,.4,0,.5-.1,0,0,.6-.3.9.5ZM28.74,19.97h.3s.4-.1.6.4c0,0,.8,1.2.6,1.6,0,0-.2.2-.7-.3,0,0-1.6-1.21-.8-1.71ZM33.03,21.47s-.3-.4.2-.5c0,0,.9-.2.6-1.1,0,0-.8-1.1-.3-1,0,0,.3.2.5.2,0,0,.4-.1.6.6,0,0,1.2,3.91,1.1,4.11,0,0,.1.6-.5.2,0,0-2.21-2.3-2.21-2.51ZM34.76,23.98c.4.1.5.6.5.6l.3,2.21c-.3.3-.3-.2-.3-.2-.2-.4-1.41-2.31-1.41-2.31-.4-.2-.4-.6-.4-.6l-.1-1c.3-.3,1.41,1.3,1.41,1.3ZM33.55,29l.1-1.9s.3-.2.5,0c0,0,.3,1.4.4,1.6,0,0,.6,1.4.4,1.5,0,0-.3.4-.8-.3,0,0-.5-.4-.6-.5,0,0-.1,0,0-.4ZM34.15,26.59s-1-1.7.1-.9c0,0,2.41,3.81,2.21,5.72,0,0-.1.5-.5.4,0,0-.5-.2-.5-1.3,0,0-.8-3.41-1.3-3.91ZM36.36,29l-.4-.5s-.3-3.21-.1-3.41c0,0,.2-.2.3-.5,0,0,.1-.6.4-.2,0,0,.2,4.31.1,4.71,0,0-.1.4-.3-.1ZM29.74,12.95c.6-.5,1.71,1.1,1.9,1.51.2.3.5.6.8.9.2.2.5.3.6.6.3.3.2.6-.2.4-.2,0-.3-.1-.5-.3-.3-.2-.6-.3-.8-.5-.3-.2-.5-.4-.8-.6-.2-.1-.5-.2-.7-.4-.2-.2-.6-1.4-.3-1.61ZM24.62,11.04c0-.1,1.71-.7,1.71-.7.9-.4.9.1.9.1,0,.3-.4.4-.4.4l-2.01.5c-.4,0-.2-.3-.2-.3ZM26.03,13.85c-.2.1-2.11-.1-2.11-.1-.7,0-.6-.3-.6-.3,0-.4,1.4,0,1.4,0,.1-.1-1-.5-1-.5-.6-.3-.7.3-.7.3-.4.9-.8.6-.8.6-.9-.5-.8-1.2-.8-1.2.3-1.3,1.2-1,1.2-1,.2,0,.4-.1.4-.1.1-.4.5-.4.5-.4.4,0,.5.8.5.8,0,.6.6.7.6.7.2.1,1.5.8,1.5.8.4.4-.1.4-.1.4ZM25.63,12.65c-1.3.1-1.2-.5-1.2-.5,0-.4.6-.2.6-.2.8.4,1.2-.5,1.2-.5.2-.3.4.1.4.1.2.8-1,1.1-1,1.1ZM26.43,12.75s.6-1.1.9-1.51c0,0,.4-.5.6-.2,0,0,1,.6,1.2.71,0,0,.7.5.1.6,0,0-.4,0-.8-.1,0,0-.7-.1-.4.4,0,0,0,.2.7.2,0,0,.7-.1.7,1,0,0,0,.5-.5.2,0,0-.9-.6-.9-.3,0,0-.1.1.6.6,0,0,.4.1.3.9,0,0-.1.3-.6,0,0,0-2.21-1.71-1.91-2.51ZM26.83,19.57c0-.1-.1-.2-.2-.3-.1-.3,0-.8,0-1,0-.3.1-.5.3-.6.2-.1.4,0,.5.2.1.3.1.8.2,1.1.1.3.3.7,0,1-.2.1-.5.1-.71-.1,0,0,0-.2-.1-.3ZM27.03,20.47s.6-.2.7-.2c0,0,.4-.3.5.2,0,0,.5,1.1.5,1.3,0,0,.1,1.5-.2,1.4,0,0-1.1-.4-1.5-2.71ZM29.54,25.79s0,.8-.3.3c0,0-.8-.7-1.1-2.2,0,0-.1-.5.5-.2,0,0,1.1.4.9,2.1ZM29.24,23.88s-.1,0-.2-.3v-1.41s0-.5.4-.2c0,0,2.01,2.11,2.21,4.11,0,0-.1.4-.5,0,0,0-1.21-.8-1.21-.9,0,0-.2-.2-.2-.4,0,0-.2-.7-.5-.9ZM31.74,27.59c-.6.2-1.3-.2-1.3-.2-.7-.4-.5-1.4-.5-1.4,0-.4.6,0,.6,0l1.3,1.1c.3.5-.1.5-.1.5ZM32.65,28c.1-.6-.71-2.71-.71-2.71-.2-.5.5-.2.5-.2l.7.5c.4.6.2,2.51.2,2.51-.1,1.3-.5,1-.5,1-.3.1-.2-1.1-.2-1.1ZM31.84,34.91c-.1.1-.3.1-.4,0-.1,0,0-.2.1-.4.2-.1.3-.1.4-.1.1.1.1.3-.1.5ZM33.05,35.92s-1.11.1-.9-.4c0,0,.1-.4.8-.4,0,0,.9-.1.9.3,0,0,.1.4-.8.5ZM34.55,34.41s.6-.3.5.2c0,0-.3.7-.5.7,0,0-.7,0,0-.9ZM35.05,37.22c-.1,0-.3-.1-.4-.2-.1-.2-.1-.4,0-.5.1,0,.3.1.4.2.1.2.1.4,0,.5ZM34.95,33.51s-.6.3-1.4.4c0,0-.3.1-.5.1,0,0-.6.2-.5-.2,0,0,0-.2.7-.6,0,0,.2-.4-.3-.2,0,0-.8.5-1,.3,0,0-.4-.5.2-.6,0,0,.9-.3,1.11-1.1,0,0,.1-1.3.4-1.3,0,0,.5,0,.5.4,0,0,.1,1.4.5,1.5,0,0,1.1.9.3,1.31ZM35.26,32.31s-.7-.7-.4-.9c0,0,.2-.1.5.3,0,0,.3.3.5.4,0,0,.4.2.1.5,0,0-.3.2-.7-.3ZM35.56,35.22s.3-.6.6-.7c0,0,.5-.2.4.3,0,0-.4.9-.7.8,0,0-.4.1-.3-.4ZM37.96,36.52c-.21.7-1.81.5-1.81.5-1.5-.3.3-1.4.3-1.4.4-.1.9-.4.9-.4.5-.5.7.1.7.1l-.1,1.2ZM38.86,37.02c-.7.4-.4-.9-.4-.9.4-.6,1,.2,1,.2.1.2-.6.7-.6.7ZM40.67,36.52c-.2,0-.4-.1-.4-.3,0-.1.2-.2.4-.2s.4.1.4.2c0,.2-.2.3-.4.3ZM41.47,35.31c-.3.3-2.41.3-2.41.3-.9,0-.6-.5-.6-.5,0-.5,1.6-.3,1.6-.3,1.71.2,1.41.5,1.41.5ZM39.57,33.01s1,.4.9.7c0,0-.1.5-.7,0,0,0-1.3-.3-1.9.5,0,0-.4.7-1,0,0,0-.4-.3.4-.6,0,0,.4-.3.1-.4,0,0-.1-.2-1.2.6,0,0-1,.3-.3-.5.1-.1,1.5-1,1.5-1,0,0,.8-.4,1.3-.1,0,0,.5.6.91.8ZM37.06,27.49c.1-.7.3-.1.3-.1.2.9,1.1,2.61,1.1,2.61.7,1.5.1,1.5.1,1.5-1.2.7-1.5-.3-1.5-.3-.4-.5,0-3.71,0-3.71ZM39.07,30.6s-1.91-4.91-1.91-5.22c0,0-.4-.8.1-.7,0,0,1.1.4,1.1.9,0,0,1.1,4.21,1.1,4.81,0,0-.2.5-.4.2ZM41.27,31.9s-1.61-1.3-1.51-1.81c0,0-1.2-3.71-.5-3.41,0,0,2.61,4.21,2.71,4.51,0,0,.7,1.1-.7.7ZM44.08,32.1c-.2,0-1.3.5-1.61-.7,0,0-2.11-3.91-2.71-4.51,0,0-.8-.6-.1-.7,0,0,3.61,2.61,4.81,4.81,0,0,.7.9-.4,1.1ZM46.79,31.1s-1.4.9-1.9-.1c0,0-2.61-3.61-4.61-4.71,0,0-.2-.3.2-.3,0,0,7.02,3.61,7.02,3.91,0,0,.2.8-.7,1.2ZM47.59,29.3l-4.01-2.31s-.2-.2.3-.3c0,0,1.91.2,2.11.6,0,0,.4.7.9.6,0,0,1.4,0,1.4.7,0,0,.2,1.1-.7.7ZM49.6,29s-1.11-.3-1.51-1.6c0,0-.6-2.81-4.11-7.42,0,0-.8-.8,1.1-.4,0,0,4.81,4.21,5.11,9.32,0,0,.2.7-.6.1ZM50.4,27.39s-.7-3.41-4.52-7.62c0,0-.7-.7.2-.9,0,0,.6-.2,1,.2,0,0,3.41,5.52,3.91,7.02,0,0,.6,1.2.1,2.11,0,0-.61,1.1-.7-.8Z"/>
    <path class="cls-1" d="M31.35,13.5s.34-.15.44-.15c.11,0-.07-.48-.15-.54-.08-.05-.38-.49-.85-.77-.46-.29-1.58-.99-1.81-1.17-.23-.18-.82-.93-.09-1.53,0,0,.75-.41,1.35-.48l.18.52s-.63-.02-.85.25c-.22.27-.38.83.47,1.37.85.55,2.17,1.35,2.4,1.81,0,0,.67.57,0,.77-.68.19-.71.32-.71.32l-.39-.41Z"/>
    <path class="cls-1" d="M32.14,14.25s1.22-.03,1.11-.6c-.12-.57-.55-1.58-.83-1.84-.28-.25-.85-.96-.91-1.01-.06-.06-.43-.28.02-.46l1.12.66s-.23-.08-.13.18c.1.25,1.24,1.98,1.27,2.08.03.1.24.86-.54,1.29,0,0-.52.1-.19.53.33.43.81,1.12.81,1.12-.14-.07-.15.06-.33-.04-.23-.13-1.44-1.92-1.44-1.92h.05Z"/>
    <path class="cls-1" d="M34.22,15.9s-.26-.42-.37-.64c-.11-.22-.31-.6.19-.3,0,0,.25.46.28.56,0,0-.03.33-.1.38Z"/>
    <path class="cls-1" d="M34.22,14s-.3.3.08.56c0,0,.05-.28-.08-.56Z"/>
  </g>
</svg>