<?xml version="1.0" encoding="UTF-8"?>
<svg id="Layer_1" data-name="Layer 1" xmlns="http://www.w3.org/2000/svg" viewBox="0 0 126.38 92.68">
  <defs>
    <style>
      .cls-1 {
        fill: #757676;
      }
    </style>
  </defs>
  <g id="Grupo_1" data-name="Grupo 1">
    <path id="Trazado_1" data-name="Trazado 1" class="cls-1" d="M55.23,84.31c1.48-.2,2.84.83,3.04,2.31.05.35.03.71-.07,1.06-.21,1.98-1.97,3.42-3.95,3.24h-2.36l1.05-6.61h2.29ZM55.12,85.29h-1.26l-.74,4.65h1.21c1.42.1,2.66-.97,2.78-2.39.24-1.45-.43-2.26-1.99-2.26Z"/>
    <path id="Trazado_2" data-name="Trazado 2" class="cls-1" d="M65.96,84.31l-.16.98h-3.48l-.28,1.8h3.19l-.15.98h-3.19l-.29,1.86h3.52l-.15.98h-4.61l1.05-6.61h4.55Z"/>
    <path id="Trazado_3" data-name="Trazado 3" class="cls-1" d="M70.69,84.18c.71-.01,1.4.18,2,.55l-.15.99c-.53-.38-1.18-.58-1.83-.56-.82,0-1.41.23-1.49.81-.21,1.39,3.6.97,3.22,3.29-.22,1.36-1.45,1.77-2.67,1.77-.82.01-1.63-.19-2.34-.6l.16-1.01c.64.42,1.4.64,2.16.62.86,0,1.51-.2,1.6-.82.25-1.52-3.57-1.07-3.21-3.34.31-1.13,1.4-1.85,2.56-1.7Z"/>
    <path id="Trazado_4" data-name="Trazado 4" class="cls-1" d="M78.07,84.31c1.48-.2,2.84.83,3.04,2.31.05.35.03.71-.07,1.06-.21,1.97-1.97,3.41-3.95,3.24h-2.36l1.05-6.61h2.28ZM77.97,85.29h-1.26l-.74,4.65h1.21c1.42.1,2.66-.97,2.78-2.39.23-1.45-.44-2.26-2-2.26Z"/>
    <path id="Trazado_5" data-name="Trazado 5" class="cls-1" d="M88.8,84.31l-.16.98h-3.48l-.28,1.8h3.19l-.15.98h-3.19l-.29,1.86h3.52l-.15.98h-4.61l1.05-6.61h4.55Z"/>
    <path id="Trazado_6" data-name="Trazado 6" class="cls-1" d="M97.32,84.49l-.87,5.45h1.14l-.16.97h-3.5l.16-.97h1.28l.69-4.35-1.36.48.16-.99,1.65-.6h.8Z"/>
    <path id="Trazado_7" data-name="Trazado 7" class="cls-1" d="M102.81,84.37c1.85,0,2.65,1.28,2.31,3.34-.07,1.86-1.6,3.33-3.46,3.33-.56,0-1.12-.13-1.62-.39l.14-.94c.44.25.94.38,1.45.38,1.18.02,2.19-.84,2.35-2-.57.32-1.22.48-1.87.48-1,.1-1.88-.63-1.98-1.62-.02-.16-.01-.32.02-.48.22-1.28,1.37-2.18,2.67-2.09ZM101.22,86.5c-.14.87.49,1.13,1.22,1.13.61-.01,1.2-.21,1.7-.57.08-1.28-.46-1.76-1.35-1.76-.76-.09-1.46.43-1.58,1.19h0Z"/>
    <path id="Trazado_8" data-name="Trazado 8" class="cls-1" d="M110.84,84.37c1.93,0,2.69,1.49,2.39,3.4-.07,1.81-1.54,3.24-3.35,3.27-1.92,0-2.68-1.49-2.38-3.4.07-1.81,1.54-3.24,3.34-3.27ZM110.79,85.35c-1.26,0-1.98.83-2.23,2.35-.23,1.46.18,2.35,1.38,2.35,1.27,0,1.99-.83,2.24-2.35.23-1.46-.18-2.35-1.39-2.35h0Z"/>
    <path id="Trazado_9" data-name="Trazado 9" class="cls-1" d="M118.51,86.84c1-.08,1.88.67,1.96,1.67.01.15,0,.3-.02.45-.21,1.28-1.36,2.18-2.65,2.09-1.86,0-2.65-1.28-2.32-3.34.08-1.92,1.7-3.4,3.62-3.32.51.02,1.01.16,1.46.39l-.15.94c-.44-.25-.93-.38-1.44-.38-1.17,0-2.17.85-2.34,2,.58-.32,1.23-.49,1.89-.49ZM119.37,88.89c.14-.84-.48-1.11-1.21-1.11-.61.01-1.21.21-1.71.57-.09,1.28.44,1.77,1.32,1.77.77.09,1.48-.44,1.6-1.21h0Z"/>
  </g>
  <g id="Grupo_2" data-name="Grupo 2">
    <path id="Trazado_10" data-name="Trazado 10" class="cls-1" d="M13.46,48.3c1.07-.03,2.13.21,3.09.7l-.24,1.6c-2.37-1.44-5.47-.69-6.91,1.69-.27.44-.47.93-.59,1.43-.43,1.66.56,3.35,2.22,3.79.38.1.78.13,1.17.08.58.01,1.15-.09,1.69-.31l.63-3.94h1.69l-.8,5.12c-1.07.45-2.22.68-3.39.69-2.73,0-5.53-1.69-4.91-5.62.52-3.09,3.24-5.31,6.37-5.21Z"/>
    <path id="Trazado_11" data-name="Trazado 11" class="cls-1" d="M16.92,58.93l1.66-10.44h4.15c1.91,0,3.92.82,3.52,3.37-.22,1.55-1.45,2.77-3,2.98l2.64,4.09h-1.91l-2.49-3.91h-2.24l-.63,3.91h-1.7ZM19.5,53.52h2.52c1.18.16,2.28-.62,2.52-1.79.21-1.34-.8-1.69-1.92-1.69h-2.57l-.56,3.47Z"/>
    <path id="Trazado_12" data-name="Trazado 12" class="cls-1" d="M36.72,48.49l-1.04,6.62c-.26,2.48-2.48,4.27-4.95,4.01-2.33,0-4.45-1.09-3.97-4.11l1.04-6.52h1.7l-1.03,6.53c-.31,1.91.7,2.52,2.28,2.52,1.59.2,3.04-.93,3.24-2.52,0-.03,0-.07.01-.1l1.01-6.43h1.7Z"/>
    <path id="Trazado_13" data-name="Trazado 13" class="cls-1" d="M42.33,48.49c2.19,0,4.27.84,3.84,3.54-.4,2.6-2.45,3.33-4.92,3.33h-2.1l-.57,3.58h-1.7l1.66-10.44h3.8ZM42.24,50.04h-2.25l-.6,3.76h2.1c1.52,0,2.73-.41,2.97-1.94s-1.02-1.81-2.22-1.81h0Z"/>
    <path id="Trazado_14" data-name="Trazado 14" class="cls-1" d="M51.65,59.13c-2.5.15-4.65-1.77-4.8-4.27-.02-.42,0-.84.1-1.25.45-3.1,3.14-5.37,6.27-5.31,2.52-.13,4.67,1.8,4.81,4.33.02.4-.01.8-.09,1.19-.43,3.12-3.14,5.41-6.28,5.31ZM51.76,57.53c2.25.05,4.18-1.61,4.46-3.85.43-1.61-.53-3.26-2.14-3.69-.31-.08-.64-.12-.96-.1-2.25-.05-4.18,1.61-4.45,3.85-.43,1.61.53,3.26,2.14,3.69.31.08.63.11.95.1Z"/>
  </g>
  <g id="Grupo_3" data-name="Grupo 3">
    <path id="Trazado_15" data-name="Trazado 15" class="cls-1" d="M12.35,62.92c1.95-.04,3.88.45,5.57,1.42l-.6,3.93c-1.4-1.01-3.09-1.54-4.82-1.49-1.74.02-2.51.48-2.56,1.18-.14,2.22,8.56,1.78,7.48,7.67-.7,3.84-3.74,4.9-7.33,4.9-2.22.05-4.41-.51-6.34-1.62l.65-4.08c1.6,1.22,3.56,1.87,5.57,1.83,1.74,0,2.8-.41,2.89-1.16.39-2.77-8.39-1.95-7.43-7.89.53-3.23,3.66-4.71,6.92-4.71Z"/>
    <path id="Trazado_16" data-name="Trazado 16" class="cls-1" d="M29.81,80.16l-.55-2.65h-6.99l-1.37,2.65h-4.68l9.31-16.88h4.82l3.95,16.88h-4.49ZM24.17,73.89h4.34l-.92-4.73c-.12-.61-.18-1.23-.19-1.86-.19.62-.44,1.23-.75,1.81l-2.48,4.77Z"/>
    <path id="Trazado_17" data-name="Trazado 17" class="cls-1" d="M40.65,63.28l-2.05,12.9h7.72l-.63,3.98h-12.18l2.68-16.88h4.46Z"/>
    <path id="Trazado_18" data-name="Trazado 18" class="cls-1" d="M54.06,63.28l-2.68,16.88h-4.46l2.68-16.88h4.46Z"/>
    <path id="Trazado_19" data-name="Trazado 19" class="cls-1" d="M53.11,80.16l2.68-16.88h3.71l5.64,9.6c.04-.91.14-1.82.29-2.72l1.08-6.87h4.46l-2.68,16.88h-3.71l-5.62-9.57c-.02.84-.1,1.68-.24,2.51l-1.16,7.07h-4.46Z"/>
    <path id="Trazado_20" data-name="Trazado 20" class="cls-1" d="M81.09,80.16l-.55-2.65h-6.99l-1.37,2.65h-4.68l9.31-16.88h4.82l3.95,16.88h-4.49ZM75.45,73.89h4.34l-.92-4.73c-.12-.61-.18-1.23-.19-1.86-.19.62-.44,1.23-.75,1.81l-2.48,4.77Z"/>
    <path id="Trazado_21" data-name="Trazado 21" class="cls-1" d="M94.2,62.92c1.95-.04,3.88.45,5.57,1.42l-.6,3.93c-1.4-1.01-3.09-1.54-4.82-1.49-1.74.02-2.51.48-2.56,1.18-.15,2.22,8.56,1.78,7.48,7.67-.7,3.84-3.74,4.9-7.33,4.9-2.22.05-4.41-.51-6.34-1.62l.65-4.08c1.6,1.22,3.56,1.87,5.57,1.83,1.74,0,2.8-.41,2.89-1.16.39-2.77-8.39-1.95-7.43-7.89.53-3.23,3.67-4.71,6.92-4.71Z"/>
  </g>
  <path id="Trazado_22" data-name="Trazado 22" class="cls-1" d="M118.65,46.27c0,9.09-4.04,17.71-11.03,23.53-.62.52-.61,1.3,0,1.49.64.21,1.3-.36,1.77-.77,14.9-13.29,16.2-36.13,2.91-51.03-13.29-14.9-36.13-16.2-51.03-2.91-3.89,3.47-6.98,7.73-9.06,12.5-1.52,3.91.42,8.31,4.33,9.82.82.32,1.69.49,2.57.51.93-2.37,5.65-24.38,29.04-23.76,16.84.45,30.5,13.7,30.5,30.6"/>
  <path id="Trazado_23" data-name="Trazado 23" class="cls-1" d="M68.46,35.12c0-2.29,1.86-4.15,4.15-4.15s4.15,1.86,4.15,4.15-1.86,4.15-4.15,4.15h0c-2.29,0-4.15-1.86-4.15-4.15"/>
  <path id="Trazado_24" data-name="Trazado 24" class="cls-1" d="M63.07,53.35c6.58,4.92,14.56,7.58,22.77,7.6,8.47.1,16.72-2.67,23.41-7.87,0,0,1.5-1.02.31-1.99-.85-.7-2.1.07-2.72.5-6.13,4.3-13.36,6.73-20.84,7.01-8.14.29-16.16-2.04-22.89-6.64,0,0-.67-.58-.87.18-.13.48.82,1.2.82,1.2"/>
  <path id="Trazado_25" data-name="Trazado 25" class="cls-1" d="M101.18,49.03c-4.48,2.56-9.42,4.22-14.54,4.9-8.15.97-16.39-.68-23.54-4.7,0,0-.72-.52-.85.26-.08.49.93,1.13.93,1.13,7.03,4.35,15.27,6.34,23.51,5.67,5.92-.49,11.63-2.36,16.7-5.44.64-.32,1.24-.7,1.81-1.14.54-.45.61-1.26.16-1.8-.07-.08-.14-.15-.22-.21-.77-.6-1.42-.16-1.93.12-.2.11-.8.56-2.02,1.23"/>
  <path id="Trazado_26" data-name="Trazado 26" class="cls-1" d="M96.79,45.59c-3.14,1.64-6.48,2.84-9.94,3.59-8,1.68-16.34.76-23.78-2.61,0,0-.76-.46-.82.33-.04.5,1.02,1.04,1.02,1.04,11.33,5.71,24.74,5.48,35.87-.61,0,0,1.02-.53,1.62-.92.66-.41,1.01-1.25,0-2.03-.76-.59-1.71,0-2.15.23-.18.09-1.13.64-1.8.99"/>
  <path id="Trazado_27" data-name="Trazado 27" class="cls-1" d="M92.19,42.22c-9.09,4.46-19.58,5.12-29.17,1.84,0,0-.8-.39-.79.4,0,.5,1.11.95,1.11.95,7.54,3.01,15.86,3.48,23.69,1.33,2.58-.68,5.08-1.64,7.47-2.84,0,0,.8-.42,1.53-.85.55-.28.77-.96.49-1.51-.08-.16-.21-.3-.36-.41-.6-.33-1.33-.33-1.94,0-.32.19-1.34.73-2.03,1.07"/>
  <path id="Trazado_28" data-name="Trazado 28" class="cls-1" d="M85.94,39.69c-7.25,3.09-15.32,3.68-22.94,1.7,0,0-.83-.32-.76.47.05.5,1.19.85,1.19.85,7.59,2.33,15.74,2.07,23.16-.76,1.17-.42,2.31-.89,3.41-1.41,1.66-.78,1.11-.53,1.36-.66.53-.21.79-.82.58-1.35-.08-.21-.23-.38-.42-.5-.84-.65-2.11.13-2.5.31-.87.41-2.31,1.04-3.07,1.35"/>
</svg>