<?xml version="1.0" encoding="UTF-8"?>
<svg id="Layer_1" data-name="Layer 1" xmlns="http://www.w3.org/2000/svg" viewBox="0 0 300.36 92.68">
  <defs>
    <style>
      .cls-1 {
        fill: #757676;
      }
    </style>
  </defs>
  <g>
    <path class="cls-1" d="M73.36,79.84c1.81-1.13,3.16-2.03,3.84-2.71v-.23c.68-1.35,6.09-14.21-2.93-24.82-6.32-7.45-12.86-9.7-21.89-14.21-20.98-10.38-25.05-21.66-25.72-24.59,0-.45-.45-.68-.68-.45-1.81.9-2.93,1.35-4.29,2.48-.23,0-.23.23-.23.45,0,2.26,1.13,15.34,31.59,29.11,25.27,11.28,22.34,24.82,19.63,34.3-.23.45.23.9.68.68Z"/>
    <path class="cls-1" d="M73.81,17.12c-11.51.23-16.47,3.16-28.88,2.26-9.03-.68-12.64-5.19-13.76-7.45-.23-.23-.68-.9-1.58-.68-.68.23-.68,1.13-.68,1.58.68,2.71,3.38,9.48,12.64,14.21,10.6,5.42,25.5,7.22,32.26,6.77,5.64-.23,9.25-3.16,9.03-9.03,0-5.19-4.74-7.9-9.03-7.67ZM74.26,27.5c-9.25.23-14.44-.68-20.76-2.03,6.32-1.58,11.51-2.48,20.53-2.48,1.35,0,2.26.9,2.26,2.26.23,1.13-.68,2.26-2.03,2.26Z"/>
    <path class="cls-1" d="M45.38,16.44c13.54,0,16.92-2.26,27.75-2.26.23,0,.45-.45.23-.45-3.38-1.81-12.86-6.32-23.92-6.32-10.15,0-14.89,2.03-16.02,2.71-.23,0-.23.23-.23.23.9,1.81,4.96,6.09,12.18,6.09Z"/>
    <path class="cls-1" d="M11.08,37.2c0-.23,0,0,0,0-.45,2.71-.45,4.29-.68,6.54h0c13.76,8.35,24.59,13.09,31.36,20.76,7.9,9.03,5.19,20.08,4.74,21.66,0,0,0,.23.23.23,1.81,0,2.26,0,4.06-.23h.23c.23-1.35,4.29-16.02-4.06-25.95-7.67-9.25-18.5-12.18-35.87-23.01Z"/>
    <path class="cls-1" d="M24.85,56.15c-5.42-3.16-12.86-7.45-13.99-8.12-.23,0-.45,0-.45.23,0,3.84,1.13,21.21,7.9,30.46,0,0,.23,0,.23.23,3.38,1.81,12.64,6.32,22.56,7.45.23,0,.45,0,.45-.23.68-2.03,2.48-8.35,0-14.21-3.61-9.03-10.83-12.41-16.7-15.79Z"/>
    <path class="cls-1" d="M36.8,39.68c-12.18-7.67-18.05-15.57-18.73-21.43,0-.23-.23-.23-.23-.23-1.35,1.13-2.26,2.03-2.93,2.71h0c-2.03,1.81-2.93,6.09-3.61,12.18v.23c17.37,11.06,29.11,15.12,37,23.01,7.67,7.9,9.25,18.5,7.9,29.33q0,.23.23.23c5.64-1.13,8.35-2.26,11.73-4.29v-.23c.45-1.81,4.06-13.09-.23-20.53-6.99-11.51-19.4-13.54-31.14-20.98Z"/>
    <path class="cls-1" d="M81.48,36.07c0-.23-.23-.23,0,0-10.83,2.26-15.79,1.13-29.56-2.03-.23,0-.45.23-.23.45,6.99,3.84,9.7,4.51,20.31,9.93,6.77,3.38,8.57,6.99,9.03,8.12,0,.23.23.23.45,0,5.64-9.25.68-15.79,0-16.47Z"/>
  </g>
  <g>
    <g>
      <path class="cls-1" d="M135.7,36.29l9.24,23.47c0,.18,0,.37-.18.37h-2.4q-.18,0-.18-.18l-2.4-6.1c0-.18-.18-.18-.18-.18h-9.98q-.18,0-.18.18l-1.48,3.7c-.92,2.4-2.96,2.59-3.7,2.59-.18,0-.37-.18-.18-.37l8.13-21.62c.92-1.85,2.77-1.85,3.33-1.85,0,0,.18,0,.18,0ZM130.53,51.08h7.58c.18,0,.37-.18.18-.37l-3.7-9.79c0-.18-.37-.18-.55,0l-3.7,9.79c0,.18,0,.37.19.37Z"/>
      <path class="cls-1" d="M155.11,49.41c-3.51-1.66-6.65-3.14-6.65-7.39,0-2.77,2.4-6.28,7.02-6.28,1.48,0,3.33.55,4.8,1.48,1.85,1.29.37,3.14,0,3.51h-.18c-.37-.55-2.03-2.4-4.62-2.4s-4.07,1.85-4.07,3.51c0,2.4,2.03,3.33,5.36,4.99,3.7,1.66,5.91,3.14,5.91,7.02s-3.14,6.47-7.39,6.47c-2.77,0-4.62-1.11-5.91-2.4-2.22-2.22-.18-3.7.37-4.07h.18c.37.74,1.85,3.51,5.17,3.51,2.22,0,4.44-1.29,4.44-3.7.19-2.03-1.85-2.96-4.43-4.25Z"/>
      <path class="cls-1" d="M106.87,36.29h2.22c.18,0,.37.18.37.37v20.51c0,.18.18.37.37.37h7.76c2.59,0,2.59,2.77,2.59,2.77h-13.31c-.18,0-.37-.18-.37-.37v-23.29c0-.18.19-.37.37-.37Z"/>
    </g>
    <path class="cls-1" d="M179.68,36.66c0-.18.18-.18.18-.18h6.1c4.99,0,7.76,2.59,7.76,6.47,0,2.4-1.29,3.88-2.22,4.44-.18.18-.18.37,0,.37,1.11.55,3.51,1.85,3.51,5.73,0,4.25-3.14,6.84-7.76,6.84h-7.21c-.18,0-.18-.18-.18-.18v-23.47h-.18ZM186.52,46.64c2.77,0,4.44-1.48,4.44-3.88s-1.66-3.88-4.44-3.88h-3.7c-.18,0-.18.18-.18.18v7.02c0,.18.18.18.18.18h3.7v.37ZM192.07,53.48c0-2.22-1.48-4.07-4.99-4.07h-4.44c-.18,0-.18.18-.18.18v7.76c0,.18.18.18.18.18h4.44c3.51,0,4.99-1.85,4.99-4.07Z"/>
    <path class="cls-1" d="M223.85,36.29h2.4q.18,0,.18.18v23.47q0,.18-.18.18c-.74,0-2.59-.37-2.59-2.4v-21.44c0,.18.18,0,.18,0Z"/>
    <path class="cls-1" d="M264.51,36.48l9.24,23.47c0,.18,0,.37-.18.37h-2.4q-.18,0-.18-.18l-2.4-6.1c0-.18-.18-.18-.18-.18h-9.98q-.18,0-.18.18l-1.48,3.7c-.92,2.4-2.96,2.59-3.7,2.59-.18,0-.37-.18-.18-.37l8.13-21.81c.92-1.85,2.77-1.85,3.33-1.85,0,0,.18,0,.18.18ZM259.34,51.08h7.58c.18,0,.37-.18.18-.37l-3.7-9.79c0-.18-.37-.18-.55,0l-3.7,9.79c-.18.18,0,.37.19.37Z"/>
    <path class="cls-1" d="M202.05,36.66c0-.18.18-.37.37-.37h5.73c4.8,0,7.95,2.77,7.95,7.02,0,4.8-3.7,6.28-5.36,6.65-.37,0-.37.37-.18.55l4.8,7.21,1.11,1.85c.18.18,0,.55-.18.55h-.74c-2.4,0-3.33-1.85-3.33-1.85-.55-.74-4.25-6.47-5.17-7.76,0-.18-.18-.18-.37-.18h-1.66c-.18,0-.37.18-.37.37v9.24c0,.18-.18.18-.18.18h-2.4c-.18,0-.18-.18-.18-.18v-23.29h.18s0,0,0,0ZM213.32,43.32c0-2.59-1.66-4.44-4.99-4.44h-3.14c-.18,0-.37.18-.37.37v8.13c0,.18.18.37.37.37h3.14c3.33,0,4.99-1.66,4.99-4.43Z"/>
    <path class="cls-1" d="M240.67,49.41c-3.51-1.66-6.65-3.14-6.65-7.39,0-2.77,2.4-6.28,7.02-6.28,1.48,0,3.33.55,4.8,1.48,1.85,1.29.37,3.14,0,3.51h-.18c-.37-.55-2.03-2.4-4.62-2.4s-4.07,1.85-4.07,3.51c0,2.4,2.03,3.33,5.36,4.99,3.7,1.66,5.91,3.14,5.91,7.02s-3.14,6.47-7.39,6.47c-2.77,0-4.62-1.11-5.91-2.4-2.22-2.22-.18-3.7.37-4.07h.18c.37.74,1.85,3.51,5.17,3.51,2.22,0,4.44-1.29,4.44-3.7.18-2.03-1.85-2.96-4.44-4.25Z"/>
    <path class="cls-1" d="M284.65,49.41c-3.51-1.66-6.65-3.14-6.65-7.39,0-2.77,2.4-6.28,7.02-6.28,1.48,0,3.33.55,4.8,1.48,1.85,1.29.37,3.14,0,3.51h-.18c-.37-.55-2.03-2.4-4.62-2.4s-4.07,1.85-4.07,3.51c0,2.4,2.03,3.33,5.36,4.99,3.7,1.66,5.91,3.14,5.91,7.02s-3.14,6.47-7.39,6.47c-2.77,0-4.62-1.11-5.91-2.4-2.22-2.22-.18-3.7.37-4.07h.18c.37.74,1.85,3.51,5.17,3.51,2.22,0,4.44-1.29,4.44-3.7.19-2.03-1.85-2.96-4.43-4.25Z"/>
  </g>
</svg>