<?xml version="1.0" encoding="UTF-8"?>
<svg id="Layer_1" data-name="Layer 1" xmlns="http://www.w3.org/2000/svg" viewBox="0 0 291.1 92.68">
  <defs>
    <style>
      .cls-1 {
        fill: #757676;
      }
    </style>
  </defs>
  <path class="cls-1" d="M99.53,41.05c2.79-2.6,6.38-3.29,8.02-1.54,1.64,1.75.7,5.28-2.09,7.89-2.79,2.6-6.38,3.29-8.02,1.53-1.64-1.75-.7-5.28,2.09-7.88"/>
  <path class="cls-1" d="M99.53,41.05c2.79-2.6,6.38-3.29,8.02-1.54,1.64,1.75.7,5.28-2.09,7.89-2.79,2.6-6.38,3.29-8.02,1.53-1.64-1.75-.7-5.28,2.09-7.88"/>
  <path class="cls-1" d="M173.27,55.92c-1.3-1.53-3.61-.1-5.11.54-6.16,3.71-11.74,8.75-16.82,14.43-2.68,3.14-5.5,6.19-6.8,9.97-.1.6.28,1.38.72,1.68,1.61.47,2.94-.39,4.34-.89,8.16-3.91,15.59-11.93,21.27-19.31,1.17-1.97,3.53-4.47,2.41-6.41M30.97,80.69c-4.35-1.67-8.73-3.24-13.51-3.91-3.18-.3-6.82-.5-9.2,1.7-.49.52-.51.97-.3,1.44,1,1.97,3.27,2,5.15,2.43,6.09.77,12.24-.17,17.86-1.67ZM110.16,17.9l-.57-.67c-2.47-1.44-5.25.14-7.43,1.27-11.47,6.78-22.85,22.54-30.04,33.23,1.81-.3,8.83-2.62,13.62-5.64,8.46-4.71,19.31-15.03,23.85-23.89.5-1.3,1.3-2.84.57-4.31ZM76.28,75.03c-8.39,6.68-18.12,10.56-29.29,9.39-3.75-.6-7.42-1.4-11.04-2.41-7.66,2.17-16.62,3.64-24.95,1.84-2.07-.6-4.82-1.67-5.28-4.14-.17-2.24,1.81-4.08,3.61-4.98,9.7-4.71,21.74-1,31.17,1.9,3.74-2.74,6.99-6.41,9.87-9.95l6.11-7.58c.97-1.4,3.19-4.31,3.19-4.31-9.93-.5-20.77-1.64-26.79-10.26-2.91-4.68-2.58-11.26.3-15.87,6.05-8.85,16.05-11.49,26.15-12.09,6.29-.17,12.14,1.07,17.59,3.04,0,0-.13,1-.23,1.5-7.93-2-17.56-2.61-25.45.07-6.55,1.9-14.25,7.78-14.98,15.17-.7,4.91,1.81,9.49,6.12,12.09,5.38,3.31,11.87,4.01,18.56,4.21,8.36-10.99,20.44-25.56,31.94-33.01,4.65-2.74,9.43-5.51,15.22-5.28,1.4.07,3.14.67,4.11,2.2,1.87,2.77.27,6.25-1.07,8.75-5.92,10.29-18.13,20.44-28.07,25.05-4.08,1.74-8.33,3.04-12.67,4.08-4.92,7.52-8.6,12.73-15.78,18.04-3.12,2.3-6.52,4.14-10.1,5.48,6.69,2.84,16.29,2.87,22.84-.37,5.39-2.54,10.54-6.58,14.55-11.63l10.15-12.83h10.52s-21.77,27.66-21.77,27.66c-.38.5-.48.95-.28,1.36.8,1.52,3.54,0,3.54,0,0,0,2.92-1.12,13.56-10.68,3.38-3.04,6.39-6.05,9.23-9.56l7.15-8.96h9.91c-2.38,3.08-4.51,5.98-6.62,8.92,5.08-4.14,10.13-8.28,16.39-9.52,2.37-.33,4.65.4,5.99,2.41,1.74,2.77.64,6.42-1,8.89l-2.11,2.64-12.34,14.33c-.37.45-.33.87.04,1.18.9.63,2.17-.42,3.11-.72,4.61-2.21,8.39-5.06,12.33-8.8,1.1-1.24,2.15-3.26,3.18-4.53,6.32-7.95,14.89-13.43,24.32-15.27,2.6-.37,5.82-.77,7.76,1.27.57.7.7,1.6.67,2.54l1.5-1.74,12.21-15.57,11.76-15.19h10.03l-29.15,37.74-14.85,19.14c-.17.33-.31.75-.14,1.09.4.85,1.99.38,2.82.22,6.22-1.9,11.57-6.42,16.02-11.73l15.85-20.14h-6.21s2.22-2.67,2.22-2.67h6.12s18.04-23.33,18.37-23.67h10.03l-18.08,23.54,14.87-.03-2.38,2.79h-14.63s-23.88,30.51-23.88,30.51c-.34.47-.37.93-.26,1.22.31.62.66.81,1.47.79,3.23-.04,5.95-2.21,8.83-4.48,3.18-2.49,8.38-7.57,8.38-7.57l1.6,1.67c-5.21,4.68-10.31,10.26-15.83,12.07-1.64.63-5.11,1.41-7.72-.12-2.58-1.51-2.92-4.22-1.08-7.88l-.2.03c-5.55,4.28-10.93,9.49-18.53,8.25-1.47-.27-2.85-1.5-3.48-2.87-.63-1.5-.7-3.44-.23-5.01-1.44.97-2.88,2.3-4.34,3.31-4.25,2.97-9.55,6.69-15.01,4.28-2.24-1.17-3.02-3.95-2.96-6.39.07-.6.13-1.27.23-1.8-4.08,3.34-8.18,6.1-12.82,8.03-1.95.72-6.77,1.74-9.17-.69-1.19-1.44-1.44-2.68-.94-4.95.67-2.81,6.74-9.11,6.74-9.11l11.8-13.3s.53-.59.03-1.29c-.6-.84-1.84-.13-2.6.15-5.62,2.34-11.97,7.52-19.31,14.85-4.42,4.08-12.46,14.16-12.46,14.16h-10.01s7.6-9.66,7.6-9.66c-.23-.3-.6.13-.6.13,0,0-7.66,7.61-12.77,9.68l-.09.04c-1.95.72-6.78,1.74-9.17-.69-1.19-1.44-1.44-2.68-.94-4.95.55-2.26,2-3.47,2-3.47Z"/>
  <path class="cls-1" d="M237.04,32.28c.3-.24.74-.39,1.19-.31,1.26.52,2.23,1.44,3.41,2.1.54.3,1.06.57,1.65.73.99.22,2.18.03,2.87-.68l.12-.19c.94.87,1.99,1.43,3.14,1.9.65.19,1.31.38,2.02.43l-.02.45c3.34,0,3.41,3.69,3.41,3.69h2.42v.76h4.42v-.76h2.47s.16-3.68,3.41-3.69l-.03-.46c.67-.06,1.28-.25,1.89-.42,1.15-.47,2.2-1.03,3.13-1.9l.12.19c.69.71,1.88.9,2.87.68.6-.16,1.11-.44,1.66-.73,1.18-.65,2.15-1.58,3.41-2.1.45-.08.88.07,1.19.31.08.04.12.24.24.16.09-.27.08-.65.04-.94-.17-1.35-1.3-2.27-2.54-2.56-.08-.57-.22-1.14-.44-1.65-.35-.68-.89-1.28-1.59-1.54-.2,1.96-1.29,3.69-2.73,4.78-.04-.65.09-1.42-.15-2.01-.08-.26-.36-.39-.57-.5-.9-.45-2.13-.52-3.06-.07-.39.25-.37.79-.53,1.18-.38,1.33-1.42,2.27-2.67,2.69.1-.76.19-1.25.19-1.25,0,0-3.4.45-5.34-.39,0,0-.43,3.29-3.16,3.29-2.71,0-3.18-3.29-3.18-3.29-1.93.83-5.34.39-5.34.39,0,0,.09.51.2,1.29-1.31-.39-2.41-1.35-2.8-2.73-.16-.39-.13-.94-.53-1.18-.93-.45-2.15-.38-3.05.07-.21.11-.49.24-.57.5-.24.6-.11,1.36-.15,2.01-1.44-1.09-2.54-2.82-2.74-4.78-.7.26-1.23.86-1.59,1.54-.21.5-.35,1.08-.44,1.65-1.24.29-2.37,1.21-2.54,2.56-.04.29-.05.67.04.94.12.08.16-.12.24-.16M278.08,27.64c.35.45.47,1.07.48,1.66,0,.25-.07.52-.07.75.14.01.28-.07.42-.05.74-.03,1.47.23,1.87.87-.09,0-.24-.05-.36-.05-.53.08-.94.42-1.38.69-1.05.78-2.03,1.67-3.23,2.16-.09-.15-.2-.3-.18-.48.69-.88,1.77-1.4,2.38-2.38.06-.11.04-.26-.02-.37-.38-.19-2.67,2.08-2.88,1.63-.09-.1-.16-.26-.17-.41,1.39-1.01,2.58-2.34,3.13-4.03ZM267.53,34.67c1.05-.21,2.06-.61,2.89-1.25.23-.16.49-.39.39-.72-.03-.11-.18-.07-.25-.04-1.35.76-2.31,1.17-2.98,1.2l.09-.83c1.67-.44,3.07-1.44,3.88-3.14.15-.31.32-.7.4-1.03.13-.12.22-.19.42-.18.5.18-.1,1.26-.3,1.89-.17.5-.92,1.28-.71,1.49.52.12.7-.27.94-.53.53-.76.87-1.56,1.16-2.47.11-.16.42-.25.45.18-.08.73-.33,1.44-.63,2.09-1.09,2.23-3.32,3.65-5.77,3.89l.04-.55ZM261.97,35.15s1.05.4,1.78.11c-.44-.35-1.23-1.28-1.26-2.16,0,0,.96.62,2.15.22-1.1-.65-1.04-2.01-1.04-2.01,1.52.31,2.61.22,2.61.22,0,0-.35,2.01-.36,4.32-2.63,1.15-2.68,3.7-2.68,3.7h-1.47s-.06-.95.27-4.4ZM259.46,34.12c.71,0,1.28.7,1.28,1.57s-.57,1.57-1.28,1.57-1.28-.7-1.28-1.57.57-1.57,1.28-1.57ZM255.34,31.31s.07,1.36-1.04,2.01c1.19.4,2.15-.22,2.15-.22-.03.89-.82,1.81-1.26,2.16.73.29,1.78-.11,1.78-.11.34,3.29.28,4.4.28,4.4h-1.48s.15-2.59-2.67-3.7c-.01-2.31-.37-4.32-.37-4.32,0,0,1.08.09,2.61-.22ZM245.5,29.06c.29.91.63,1.71,1.16,2.47.24.26.42.66.94.53.21-.21-.54-.99-.71-1.49-.2-.64-.8-1.71-.3-1.89.2-.01.29.06.42.18.08.33.24.72.4,1.03.8,1.7,2.2,2.7,3.87,3.14l.09.83c-.67-.03-1.63-.44-2.98-1.2-.07-.03-.23-.07-.25.04-.11.33.15.56.38.72.84.64,1.84,1.03,2.89,1.25l.04.55c-2.45-.24-4.67-1.66-5.77-3.89-.3-.65-.55-1.36-.63-2.09.04-.42.34-.34.45-.18ZM239.89,29.99c.15-.01.29.07.43.05,0-.23-.07-.5-.07-.75.02-.59.13-1.21.48-1.66.55,1.69,1.74,3.02,3.13,4.03-.01.15-.08.31-.17.41-.21.45-2.5-1.82-2.88-1.63-.05.11-.08.26-.01.37.61.98,1.69,1.5,2.38,2.38.01.18-.09.33-.18.48-1.21-.49-2.19-1.39-3.23-2.16-.44-.27-.85-.61-1.37-.69-.12,0-.27.05-.36.05.4-.64,1.13-.9,1.86-.87Z"/>
  <path class="cls-1" d="M253.16,14.58c.33.04.61-.11.91-.16.43.22.62.82.86,1.24l-.33-.16c-.46-.19-1.05-.12-1.49-.41,0,.34.12.67.22.97.33.9,1.3,1.09,2.09,1.54-.37-.07-.78-.04-1.13-.18-.2-.08-.38-.19-.57-.23.12.59.5,1.17.94,1.55.3.27.71.37,1.08.49.12.03.21.07.25.21-.38-.09-.83-.01-1.2-.07.41,1.16,1.79,1.72,2.74,2.33-.04.15-.15.25-.28.3-.28.11-.47.45-.79.36-.34-.06-.69.14-.86.41-.09.19-.13.38-.07.6-.69.9-1.04,2.24-.75,3.44.27,1.2,1.14,2.04,2.12,2.57v.74c0,1.86,1.73,2.79,2.5,2.8,1.01,0,2.63-.97,2.64-2.8v-.74c.97-.53,1.85-1.38,2.11-2.57.29-1.2-.06-2.55-.75-3.44.07-.22.03-.41-.07-.6-.17-.27-.52-.46-.86-.41-.33.1-.51-.25-.79-.36-.14-.05-.24-.15-.28-.3.95-.61,2.33-1.18,2.74-2.33-.37.05-.82-.03-1.2.07.04-.14.13-.18.25-.21.37-.12.78-.22,1.08-.49.44-.38.82-.96.94-1.55-.18.04-.37.15-.57.23-.34.14-.75.11-1.12.18.79-.45,1.76-.64,2.09-1.54.1-.3.23-.63.23-.97-.45.28-1.03.22-1.49.41l-.33.16c.24-.42.42-1.02.86-1.24.3.05.58.2.92.16.66-.03,1.23-.56,1.43-1.17.32-1.1-.17-2.22-.96-2.9-.63-.5-1.46-.75-2.34-.67-.49.08-1.1.32-1.1.32,0,0-.46-2.76-3.34-2.76-2.61,0-3.34,2.76-3.34,2.76,0,0-.6-.24-1.09-.32-.89-.08-1.72.16-2.34.67-.79.68-1.28,1.8-.97,2.9.2.61.77,1.14,1.43,1.17M258.63,31.92c-.24-.16-.4-.43-.62-.61l-.07-1.56.7.16.04.07c-.03.65-.04,1.29-.05,1.94ZM261.87,23.26c.18-.04.32.08.39.22-.07.3-.4.35-.6.49.78.72,1.09,2.01.74,3.17-.17.5-.44,1.03-.98,1.22l-.27.03c.33-.98.49-2.27.16-3.31-.11-.3-.19-.61-.36-.87-.34.03-.7.07-1.04.12.25,1.48.28,3.06-.05,4.5-.28.04-.59.03-.85-.04-.21-1.06-.28-2.29-.16-3.4.05-.35.13-.69.2-1.05-.24-.08-.54-.06-.8-.12-.12,0-.34-.17-.35.07-.48,1.27-.65,2.87-.16,4.16-.14.03-.25-.1-.4-.14-.86-.44-.95-1.48-.9-2.42.08-.72.34-1.37.75-1.93-.22-.14-.54-.14-.64-.41-.01-.12-.03-.27.11-.31.32-.04.53.16.81.22,1.36.42,3.09.35,4.39-.21ZM262.24,12.87c.43-.91,1.31-1.55,2.38-1.48.71.05,1.35.48,1.54,1.15.08.37-.05.76-.34.94-.04-.11-.07-.23-.07-.34-.17-.45-.53-.86-1.04-.91-.71-.11-1.33.25-1.67.83-.79,1.32-.68,3.02-.81,4.53-.18.92-.06,2.16-.99,2.61.42-1.39.46-2.89.44-4.37.05-1.03.08-2.08.56-2.95ZM257.36,9.84c.3-.69.91-1.15,1.67-1.31.89-.12,1.67.26,2.2.85.29.4.44.82.53,1.32.13,1.18-.57,2.27-.83,3.37-.31,1.15-.28,2.25-.44,3.44-.05.77-.13,2.31-.11,3.1-.04.09-.03.22-.16.24-.11.05-.17-.07-.21-.14-.27-1.8-.2-4.71.19-6.42.2-1.16.69-1.89.76-3.1,0-.85-.29-1.54-.98-1.83-.45-.2-1.1-.19-1.51.07-.5.23-.7.77-.69,1.31.04.1.04.21.1.3.28-.25.46-.35.69-.37.24,0,.46.12.61.28.32.44.31.99.32,1.54-.07,1.36-.38,2.67-.45,4.07-.04,1.12-.05,2.97.23,4.13-.03.07-.04.18-.14.19-.15.01-.22-.1-.27-.21-.2-.54-.24-1.17-.32-1.8-.05-.8-.09-2.23-.07-3.06.04-1.18.4-2.46.29-3.65-.01-.16-.07-.34-.19-.43-.17-.12-.35-.22-.55-.13-.16.06-.2.19-.23.39-.57-.56-.76-1.47-.45-2.15ZM252.89,12.53c.19-.66.82-1.09,1.53-1.15,1.07-.07,1.95.57,2.38,1.48.48.87.52,1.91.56,2.95-.02,1.48.02,2.98.44,4.37-.93-.44-.81-1.69-.99-2.61-.13-1.51-.03-3.21-.82-4.53-.34-.57-.95-.93-1.66-.83-.52.05-.87.45-1.05.91,0,.11-.03.23-.06.34-.28-.18-.42-.57-.34-.94Z"/>
  <path class="cls-1" d="M285.42,51.23c-.07-.27-.29-.49-.52-.62-1.87-3.45-1.96-6.96-.45-10.59.17-.41.52-.75.56-1.22.03-.31-.1-.61-.33-.82.17-.33.52-.45.86-.54-.52-.53-1.44-.24-1.8.33-.68.13-.81.43-1.03,1.03-4.73,1.47-8.36,3.32-11.73,7.06-.38-.4-.83-.49-1.31-.15-.16-.31.07-.65.19-.93-1.3.03-.94,2.73-.41,3.41-.22.88-1.54,6.82-1.83,7.21-.67.9-3.4,2.66-4.51,2.89-1.63-.72,1.88-2.91,2.09-3.22.18-.27-.55-.6-.11-.99.42-.37.94-.64,1.35-1.05.19-.19.57-.56.38-.85-.13-.2-.78-.54-.57-.89.26-.43,1.22-1.65,1.1-2.25-.11-.56-.98-.2-1.02-.74-.05-.72.55-2.78-.21-3.31-.46-.32-1.11.93-1.45.2-.21-.46-.61-2.7-1.43-2.5-.4.09-.63,1.15-1.33,1.05-.37-.31-1.2-2.38-1.83-1.78-.35.33-1.07,1.75-1.73,1.55-.47-.14-.53-1.58-1.25-1.17-.54.3-.94.86-1.52,1.14-.28.14-.4-.14-.62-.25-.43-.22-.85.17-1.24.33-1.1.44-1.65-.13-2.56-.62-1.57-.85-2.17-.92-3.81-.64-1.34.23-1.67-.95-3.35.98-.87-.07-1.75-.13-2.63-.21-.43-.04-2.69-1.97-3.41.07-.4,1.14.75,1.54.47,2.5.27.6.72-.32,1.42-.07.49.18.31.73.54,1.09l.21.04c.75-.77,1.41-.62,1.89.26.32.59.72-.28,1.17-.13.41.14.78.39,1.2.52.36.11,1.84-.29,2.44-.13.07.02.19.07.17.16-.05.28-3.08.91-3.61.94-3.5.21-6.67-3.62-10.11-4.13-.38-.06-.84-.14-1.14.17,2.49.69.79,2.39.78,2.98.65-.31,1.38-.36,2.09-.3,1.59.14,4.41,1.25,6.01,1.8.07.02.2.14.18.23-.11.43-2.74-.21-2.85.48-.02.14.13.4.24.49,1.42,1.31,5.58.32,7.5.34.64,0,1.09.48,1.53.89,1.18-1.54,2.76-.12,3.88-.25l.21-.2c.08-.35-.36-.54-.24-.92.45-1.4,3.01-.57,3.91-.37.35.08.77-.23,1.1-.32,1.12-.34,3.79.07,3.03,1.43-.68,1.19-2.43.69-3.27,1.3-.04.13,0,.34-.11.44-.16.13-3.01.63-3.47,1.06-.15.14.06.3-.04.41-.56.61-2.88,1.43-3.07,2.63-.03.16.22.16.22.31,0,.23-.86,1.71-.69,3.03.02.13.72.32.91.42-.09.24.09.25-.01.49l-1.53.12c-1.22.1-2.45.28-3.64.55-.48.11-1.01.34-1.49.41h-.25c-.52,0-2.37-.66-2.96-.85-.58-.19-.43-.82-.67-1.26.14-.31.32-.63.34-.97.71-.38.89-1.17.46-1.83-.05-.08-.11-.16-.22-.12,0,.41-.03.78-.52.83-.85-1.11-1.77.07-1.98.96-.1-.21-.38-.83-.38-1.05,0-.54.19-1.16-.35-1.56-.22-.16-.59-.27-.85-.13.34.28.64.63.34,1.08-1.58.32-1.66,1.51-.62,2.51.2.2.37.89.39,1.16-.28-.09-.59-.12-.87-.02-1.11-.4-1.94.67-1.49.75.3.06.59-.25.89.08-.22,1.64,1.29,1.98,2.45,1.16.24-.02.47.07.68.17.59,1.33-1.3,1.54-.32,2.91.98,1.36,2.28-.43,2.26,1.39,1.38-.93-.82-1.37-.1-3.5.84-.47,1.74.95,1.92,1.59,2.69-.09,1.4.77,1.4,1.7.44-.09,2.4-.07,2.58.4.21.51.17,1.1.43,1.64l.17.06c.34-.25,1.52-1.45,1.89-.68.16.34,2.03.84,1.87,1.16-1.25,2.51-.39,6.12-.45,8.91,0,.56-.71,2.47-1.18,2.75-1.88,1.12-2.17-1.71-2.62-2.26-.2-.26-1.2-.56-1.19-.18.33.13.75.56.56.95-.99.23-.8,1.46-.39,2.09-.32-.04-.63-.12-.95-.13-.76-.51-1.6-.38-1.88.58.32-.26.81-.16,1.13.04-.2,3.21,2.15.77,3.02,1.58-.3.25-.32.52-.52.81-.46.65-.98,1.13-.11,1.87-.04-.45,0-.88.53-1,.81,1.13,2.08.04,2.17-1.05,2.86-1.53.9.62,2.67,1.2,1.67.55,1.88-2.02,2.93-.51.13-.1.13-.28.14-.42.06-.75-.9-.82-1.42-.85-.24-.25-.65-.31-.95-.48-.9-.49.22-3.29,1.15-3.25.05-.44.08-1.7.85-1.36.21.09.37.52.62.3.28-1.09.48-2.48,1.79-1.39l.27-.02c.41-5.29,1.45-4.55,2.28-.09.4.07.79.05.87.52.07.44.23,2.11.52,2.57.21.05.41-.05.62-.06.3.53,1.34,2.42,1.77,2.7.21.14.53-.14.75-.14.6.5,2.27,1.89,3.01,1.92.21-.16.38-.4.63-.51,1.01.42,2.52,1.06,3.65,1.05.2-.13.28-.36.45-.52.86-.02,2.61-.02,3.49-.31.4-.13.21-.66.6-.82.71-.28,1.68-.53,2.19-1.15.06-.07.22-1.4,1.21-1.77.81.24,2.04.85,1.48,1.91-.11-1.01-1.35-1.13-1.54-.43-.15.54.44.82.52,1.3.13.85-.85,1.23-1.39,1.67.05.15.22.21.36.24,4.3.99,5.03-3.51,6.08-3.49.1,0,.26.08.3-.07.09-.33-.75-.87-1.05-.9-.8-.09-1.06.64-1.22.71-.08-1.79-1.23-2.46-2.52-3.39.2-.72.77-1.04,1.06-1.62.26-.52-.43-.85-.59-1.26-.2-.55.53-1.71.45-2.33-.06-.45-.52-.34-.81-.47-.81-.34-.44-1.57-.55-2.22-.14-.8-.96-.32-1.47-.52-.67-.27-.74-1.09-1.32-1.44-.4-.24-.66.04-.98.23-.62.35-1.26-.2-1.84-.3-.45-.07-.68.29-.95.57-.42.43-1.18.26-1.61.72-.27.29-.17.66-.35.96-.22.37-.71.6-.93,1.02-.33.61.14,1.22.09,1.84-.04.51-.12.9-.04,1.41.1.67.58.91.81,1.47.36.87.94,1.33,1.82,1.66.31.46.81.71,1.26,1-.69.6-1.7.61-2.55.37-.37-.79-1.67-.38-2.19-1.07-.11-.14,0-.53-.02-.72-.3-.28-1.32-1.22-1.27-1.65.04-.33.59-.66.51-1.19-.52-.53-1.06-1.14-1.16-1.91.45-.41,1.07-.73,1.27-1.34-.32-.95-1.24-1.58-1.4-2.67.42-.21,1.05-.57,1.36-.92.16-.18.62-.55.42-.82-.4-.51-2.65-1.93-2.26-2.74.81-.49,3.38.67,4.09,1.2.21.16.57.76.88.48.59-.53.92-1.23,1.93-2.04,1.35-1.07,3.33-1.56,5.03-1.34.55.47.47,1.92,2.15.99.22.36.28.78.35,1.19.54-.47.53-1.44.15-1.99,0-.56-.25-.76-.41-1.23-.74-2.15,1.38-7.21,2.7-8.91.1-.13.27-.35.46-.3,1.03.29.95.33,1.8-.37.22.25.41.55.49.88.53-.67.07-1.47-.54-1.87M251.59,46.02c-.85.68-1.44.58-.08,1.39v.3c-.58.49-1.5-.17-2.04.38-.31.32.59,1.04-.15,1.05-.66,0-1.34-1.16-2.09-.21-.4.5-6.65,1.57-7.36,1.06.23-.21.56-.16.85-.17,2.17-.04,3.86-1.13,5.91-1.47.76-.13,1.63-.2,2.35-.47.34-.12.89-.43.98-.81.04-.16,0-.28-.15-.35-.54-.28-2.75-.27-3.96-.79-.32-.14-1.16-.62-1.44-.63-.35-.02-.7.36-.99-.06-.18-.26-.38-.44-.73-.41-.76.06-.68-.13-1.28-.43-.35-.17-.97.07-1.18-.02-.26-.1.03-.48-.19-.63-.14-.09-.33-.09-.48-.04-.26.09-.41.33-.53.55h-.21c-.48-.43.12-1.15.59-1.23.67-.12,1.44.64,2.02.85.41.14,2.71.48,3.09.42.62-.08,1.45-1.3,3.03-.92.78.19,3.52,2.56,4.02,1.34.65-.35.66.79.03,1.3ZM236.82,57.55c.19.04-.04.94,0,1.26-1.06.64-.83-1.45,0-1.26ZM235.64,61.79c.09-.89,1.39-.12,1.32.22-.19.86-1.36.22-1.32-.22ZM274.36,79.75c.11-.17.36,0,.49.06.53.22,1.79.54,2.16.83-.39.73-2.39-.17-2.65-.89ZM274.34,77.25l.19.03c.42.59.96,1.16,1.65,1.44l.08.21c-.97.34-1.99-.74-1.92-1.68ZM280.51,80.44c.66.54.98,1.3.8,2.14-.03.14-.17.38-.03.5h.27c-.26.35-.62.63-.99.86-.05-.9.65-1.7,0-2.62-.84-1.19-4.11-1.92-4.16-3.17.22-.09.31.09.45.21,1.08.91,2.56,1.19,3.64,2.08ZM279.93,76.86c-.37.47-.71,1.03-1.22,1.36-.26-.02-.47-.18-.7-.28.21-.23,1.61-1.02,1.92-1.08ZM279.19,74.44c.07-.08.3-.45.39-.17-.19,1.07-1.14,3-2.24,3.35-.12-.06-.3-.12-.41-.2-.09-.06.08-.17.11-.2.94-.76,1.46-1.83,2.16-2.79ZM277.72,74.24c.21-.66.21-1.74.49-2.28.05-.1.23-.14.33-.14-.05,1.11.11,2.8-1.02,3.51l-.18-.06c.07-.36.26-.68.37-1.03ZM277.04,73.07c-.06-1.09-.46-1.97-.82-2.97.87-.12,1.6,2.53.82,2.97ZM275.68,76.85c-1.42-.49-3.86-2.77-2.02-4.17,1.56-1.2,3.93,1.6,2.02,4.17ZM275.6,71.94c-.29-.14-.33-.42-.46-.68-.32-.66-.93-1.11-1.5-1.56.43-.44,2.23.48,1.95,2.23ZM273.9,71.96c-1.06-.74-1.22-.96-2.48-.66-.11-.7,2.12-1.45,2.48.66ZM271.86,76.66c-1.25-.93-.63-2.92.18-2.72-.62,1.66-.03,1.85-.18,2.72ZM270.46,74.17c-.69-1.25,1.2-2.75,2.2-1.85-1.41.57-1.33.81-2.2,1.85ZM272.74,75.87c.25.94.38,1.4,1.06,2.15-1.96.54-1.36-3.29-1.06-2.15ZM272.97,80.41c.1-.12.23-.12.35-.03.76.49.72,1.34,2.55,2.04-.79,1.15-3.6-1.21-2.9-2ZM270.67,80.49l.26-.32c.19,0,.26.19.33.34.52,1.11,1.33,2,2.26,2.68-1.4.73-3.01-1.13-2.85-2.7ZM268.37,79.36c.2,0,.31.21.35.36.37,1.36.47,2.52,1.3,3.75l-.17.2c-1.72.3-2.64-4.3-1.48-4.32ZM268.2,56.57c.66-.63,1.86-7.17,2.2-8.54-1.16-1.14-.48-2.92.62-.91,3.52-4.07,7.03-6.12,12.14-7.68.11-.31.25-.75.62-.83l.29.1c.41.64-.62,1.31-1.13,1.44-4.49,1.16-8.41,3.93-11.3,7.52-.53.66-.72,1.67-.9,2.49-.21.99-.9,6.01-2,6.96-.96.83-2.91,1.93-4.1,2.39-.18.07-.42.17-.62.14l-.04-.21c1.23-1.12,2.98-1.69,4.22-2.87ZM269.01,61.93c-1.49.47-1.48-2.23-.93-2.81.08-.09.35-.23.44-.06.38.78.08,1.95.49,2.87ZM266.77,61.63l-.28.24c-1.44-.26-.14-2.72.19-1.74.14.41.05,1.06.09,1.5ZM252.43,47.08c-.12-.92,1.28-.07,1.53.28.56.8-1.4.64-1.53-.28ZM255.55,47.35c-.38.51-1.97-1.52-1.84-2.05l.23-.03c.43.19,2,1.55,1.61,2.08ZM257.55,47.89l-.29.08c-.17-.36-.04-.75-.15-1.11-.26-.87-.96-1.66-1.86-2.26,2.27.07,3.42,1.95,2.3,3.29ZM258.67,48.15c.25-1.35,1.38-2.06-.47-3.72,2.97.29,2.28,4.06.47,3.72ZM260.06,49.2c-.11-.15.42-.54.53-.66,1.03-1.11,1.11-2.36.46-3.63,1.14.47,1.77,1.38,1.56,2.4-.14.65-2.02,2.63-2.55,1.89ZM239.45,57.86c.27.03.14,1.5-.65,1.13-.26-.35-.02-1.2.65-1.13ZM238.48,64.26l.28.08c.1.43.33.82.48,1.23-.66.55-1.37-1-.76-1.3ZM249.36,63.63c-.44.03-1.41.79-2.04.93l-.17-.08c.13-.49.62-.72.8-1.18l-.12-.22c-1.49-.48-2.65,1.21-3.95,1.5-.13.03-.3.03-.37-.11.11-.2.44-.43.44-.66-1.75-.66-3.17-1.7-5-1.11-.12-.21.23-.39.21-.61-.05-.81-.91-.59-1.38-.55-.01-.27.21-.34.24-.57-.17-.22-.35-.46-.38-.76.78.38,1.44,1.1,2.19,1.44.93.42,2.71,1,3.71,1.19.47.09,1.76-.38,2.31-.49,1.45-.28,2.91-.43,4.37-.4.02.46-.05.94.05,1.39.14.07.29,0,.43.08.17.65.21,1.51.33,2.18-.82.3-.55-2.06-1.69-1.97ZM243.78,82.81l.08-.29c.27-.02.95.24,1.21.33l.03.28c-.34.41-1.16.2-1.33-.32ZM245.93,80.55c.11.25.38.57.28.85-1.24.37-.97-2.4-.28-.85ZM246.59,84.83s1.25-.88,1.16-.22c-.14,1.05-1.55.63-1.16.22ZM252.15,84.79c0,.77-1.6.23-1.34-.61.14-.13,1.18.46,1.34.61ZM257.99,70.68c-.56-.23-.23-3.44-.14-4.06l-.11-.21c-.55-.01-.92,1.62-1.04,2.04-.56-.34-.56-2.09-.65-2.71l-.18-.17c-1.06.46-.38,4.18-.65,4.72-.3.04-.32-.39-.63-.35-.32.03-.53.46-.59.74-.23.99.21,2.05.05,3.04-.01.07-.08.32-.18.33-.28.02-.39-1.09-.89-1.39-.06-.04-.23.02-.27.07-.42.52-.18,2.16-.19,2.83l-.15.24c-.26.07-.32-.4-.54-.21-.13.11-.22.74-.23.92-.07.91-.09,1.81-.14,2.73-.01.21-.92,1.74-1.06,2.15-.19.58.19,1.15.13,1.74-.45.14-.52-.29-.83-.45-.5-.27-2.16.68-2.6.88-.16-.33.43-.54-.03-.71-.41-.15-.87-.24-1.29-.34v-.23c1.05.23,2.65.61,3.53-.26.2-.2,1.44-2.89,1.49-3.18.13-.86.08-1.82.15-2.7.18-2.18.54-4.28,1.14-6.38.27-.96.74-1.98.94-2.94.2-.98.11-2.02.34-3.03l.41-1.85-.14-.24c-.58.1-.84.9-1.13,1.33-.51-.37.16-2.73.25-3.31l-.21-.06c-.54.42-.77,1.06-1.05,1.65-.69-1.56.18-2.2.29-3.56-.23-.03-.41.07-.6.17,1.01-5.29,11.62-4.32,12.57-10.2.09-.54.06-1.08.09-1.63.42.42.66,1.02.77,1.6.62,3.41-6.94,5.77-6.94,5.77,1.99-.2,5.44-.85,6.96-2.2.18,2.04-8.79,3.1-9.75,4.38,1.7-.24,3.41-.35,5.13-.44-1.83,1.06-3.69.82-5.49,2.46l.11.18c.33-.06.63-.21.95-.31,1.22-.37,2.49-.47,3.76-.51-1.54.7-3.19,1.23-4.32,2.57l.04.18h.22c.82-.53,3.5-1.28,4.39-.86-1.4.56-2.75,1.3-3.78,2.43.03.14.14.23.28.17,1.54-.66,2.79-1.22,4.52-1.05-.16.41-4.24,2.24-3.77,2.97.05.07.2.07.26.03,1.28-.71,3.23-1.68,4.74-1.19v.19c-.99.47-3.27,1.61-3.54,2.71,1.03-.03,3.55-1.97,4.72-.93-.05.06-.1.15-.16.2-.25.21-.72.38-1.01.56-1.38.86-2.7,2.12-3.33,3.64-.27.64-.44,1.36-.61,2.04ZM259.29,73.42l-.23.08c-.19-.17-.22-.4-.24-.63-.31-2.54.57-4.93,2.89-6.22.71-.4,1.94-1.05,2.76-.62-2.98,2.67-4.01,3.39-5.18,7.4ZM260.45,76.23l-.23.08c-.18-.17-.21-.4-.24-.63-.31-2.54.57-4.94,2.88-6.23.72-.4,1.94-1.05,2.76-.62-2.98,2.67-4.01,3.39-5.17,7.4ZM266.99,77.82c.74-.08-.22,1.35-.3,1.61-.32,1.05-.28,2.13.26,3.15-1.98.13-2.55-4.48.04-4.76ZM264.07,80.57c-1.66-1.79-.37-4.88,1.7-5.45.24-.07.62-.2.84-.04-1.62,1.86-2.66,3.18-2.54,5.49ZM266.45,71.8c-2.04,1.63-3.71,3.41-4.21,5.87-.1.51-.15,1.04-.27,1.55l-.32-.1c-.78-2.69.75-7.78,4.79-7.32ZM271.24,64.66c-.06,0-.14.01-.19,0-.06-.01-.67-.31-.79-.36-1.22-.54-2.17-.84-3.51-.84-.35,0-.71.09-1.05,0l-.02-.23c1.14-.65,4.1.14,4.37-.24.17-.24-.44-4.31.19-5.63l.21-.13c.14,1.06.14,2.13.29,3.18.06.39.28,3.02.88,2.74.58-.27,0-6.36.4-7.64.07-.22.17-.47.44-.49,0,.93.19,6.27,1.1,6.5.14.03.26-.04.3-.17.28-.82-.29-4.89.44-5.3l.21.14c.13,1.22.11,4.23.6,5.17l.26.07c.18-.16.26-1.98.44-2.46l.23.02c.06.37.12,1.79.18,1.97.33.94.67-.57,1.03-.4.36.17.6.86.58,1.23-3.25.51-4.06.65-6.59,2.86ZM282.06,53.02c-1.08,1.93-2.2,3.8-2.43,6.05-.07.61-.19,2.37.07,2.88.16.33.55.58.37,1.02-.07.18-.28.31-.48.31-.5,0-.47-.88-.56-1.22-.68-2.36-2.02-4.31-3.29-6.39-.42-.69-2.88-4.26-2.82-4.78.03-.27.55-1.77.96-1.16.02.47-.26,1.42-.15,1.78.4,1.29,1.57-1.73,1.99-1.43.11.08.08.25.06.35-.25.91-.9,1.68-.72,2.69.57.9,1.35-2.27,2.27-2.48-.03,1.09-1.18,2.6-1.29,4.09l.15.25c.31,0,1.83-3.47,2.79-3.9-.1,1.21-2.26,4.23-1.84,5.34.23.17.37.05.48-.17.61-1.16,1.77-3.66,2.82-4.38.09.04.23.18.18.3-.8,1.73-2.06,3.33-2.24,5.32-.02.26.05.54.36.54.84-1.02,1.39-3.62,2.86-5.11.07-.07.39-.34.5-.28.12.07.02.29-.03.37ZM284.36,52.1c-.39.09-.75-.43-1.05-.62-1.87-1.24-3.87-2.25-6.02-2.9-.43-.13-2.92-.62-2.95-.89-.07-.62.75-.1.83-.51.06-.3.1-.6.15-.9l.21-.07c.22.27.24.66.39.97.07.15.21.38.4.4.83.08-.11-2.23.58-2.43.15.63.45,2.22.95,2.64.92.79-.29-3.55.65-3.69l.21.16c-.01.65.23,4.15,1.05,4.21l.2-.14c.05-.63-.47-5.22.59-5.16.07.09.11,3.06.18,3.55.08.5.34,1.9.67,2.25.3.31.48-.04.48-.32.05-2-.45-4.07.3-6.02.08-.2.21-.5.44-.55l.19.17c-.59,3.01-.2,5.72,1.17,8.46.14.27,1.47,1.17.39,1.42Z"/>
  <path class="cls-1" d="M250.19,45.4c-1.6-1.15-3.02-2.04-4.93-.91l.03.28c.35.15.47.51.73.75.71.67,4.08,1,4.72.16l-.07-.24-.47-.04ZM246.84,45.49c-.35-.13-.75-.39-.94-.72.31-.11.83-.21,1.17-.15-.26.21-.34.59-.22.87ZM248.15,45.71c.15-.06.3-.43.19-.76.32.11.56.26.95.6-.33.13-.78.19-1.14.16Z"/>
</svg>