<?xml version="1.0" encoding="UTF-8"?>
<svg id="Layer_1" data-name="Layer 1" xmlns="http://www.w3.org/2000/svg" viewBox="0 0 197.15 92.68">
  <defs>
    <style>
      .cls-1 {
        fill: #757676;
      }
    </style>
  </defs>
  <polygon class="cls-1" points="84.47 7.41 77.79 7.41 71.11 7.41 49.89 50.23 28.68 7.41 22 7.41 15.32 7.41 8.64 7.41 8.64 86.39 22 86.39 22 20.89 43.21 63.71 56.57 63.71 77.79 20.89 77.79 86.39 91.14 86.39 91.14 7.41 84.47 7.41"/>
  <polygon class="cls-1" points="182 86.39 175.32 86.39 168.64 86.39 147.43 43.57 126.21 86.39 119.53 86.39 112.85 86.39 106.17 86.39 106.17 7.41 119.53 7.41 119.53 72.91 140.75 30.09 154.1 30.09 175.32 72.91 175.32 7.41 188.68 7.41 188.68 86.39 182 86.39"/>
</svg>