<?xml version="1.0" encoding="UTF-8"?>
<svg id="Layer_1" data-name="Layer 1" xmlns="http://www.w3.org/2000/svg" viewBox="0 0 374.71 92.68">
  <defs>
    <style>
      .cls-1 {
        fill: #757676;
      }
    </style>
  </defs>
  <g>
    <path class="cls-1" d="M51.64,33.74c-1.52-2.56-2.38-5.56-2.38-8.78,0-9.52,7.71-17.23,17.23-17.23s17.23,7.71,17.23,17.23c0,3.21-.86,6.19-2.38,8.78h-29.7Z"/>
    <path class="cls-1" d="M62.14,41.06c1.96-2.23,4.55-3.99,7.59-5,9.05-2.95,18.78,2.02,21.72,11.07s-2.02,18.78-11.07,21.72c-3.04.98-6.16,1.07-9.08.45l-9.17-28.24Z"/>
    <path class="cls-1" d="M58.43,53.32c2.74,1.19,5.21,3.09,7.08,5.68,5.59,7.71,3.9,18.48-3.81,24.07-7.71,5.59-18.48,3.9-24.07-3.81-1.87-2.59-2.95-5.54-3.21-8.51l24.02-17.44Z"/>
    <path class="cls-1" d="M45.63,53.56c-.27,2.98-1.34,5.92-3.21,8.51-5.59,7.71-16.37,9.4-24.07,3.81-7.71-5.59-9.4-16.37-3.81-24.07,1.87-2.59,4.34-4.49,7.08-5.68l24.02,17.44Z"/>
    <path class="cls-1" d="M41.43,41.48c-2.92.65-6.04.57-9.08-.45-9.05-2.95-14.02-12.68-11.07-21.72,2.95-9.05,12.68-13.99,21.72-11.04,3.04.98,5.62,2.74,7.59,5l-9.17,28.21Z"/>
  </g>
  <g>
    <g>
      <g>
        <path class="cls-1" d="M196.65,37.85c0,6.37-3.78,9.26-7.29,9.26-1.64,0-3.04-.6-4.2-1.79-2.05-2.11-2.71-5.42-2.65-7.62-.06-3.09.8-5.8,2.38-7.44,1.13-1.16,2.62-1.76,4.4-1.76,5.06,0,7.35,4.85,7.35,9.34M196.65,14.37v14.19c-1.67-2.65-4.46-3.96-8.33-3.96-3.42,0-6.25,1.34-8.21,3.84-1.73,2.26-2.71,5.42-2.71,8.93s.92,6.99,2.56,9.4c1.9,2.8,4.79,4.26,8.3,4.26,4.29,0,7.2-2.08,8.57-4.08v3.48h4.58V14.37h-4.76Z"/>
        <rect class="cls-1" x="208.11" y="25.2" width="4.79" height="25.24"/>
        <rect class="cls-1" x="208.05" y="14.4" width="4.94" height="4.94"/>
        <path class="cls-1" d="M236.5,45.7c-1.31.86-3.24,1.4-4.91,1.4-5.71,0-8.27-4.67-8.27-9.31,0-6.1,4.02-9.31,7.98-9.31,1.55,0,3.3.39,4.97,1.07l.12.03.42-4.02-.06-.03c-1.4-.57-3.81-.98-5.62-.98-7.59,0-12.86,5.45-12.86,13.21s5.54,13.21,12.86,13.21c2.41,0,4.32-.33,5.83-1.04l.06-.03-.36-4.34-.15.15Z"/>
        <path class="cls-1" d="M256.86,38.47v2.11c0,4.02-2.65,6.49-6.9,6.49-2.2,0-4.58-1.52-4.58-3.99,0-4.26,6.01-4.73,8.6-4.73.48,0,.98.03,1.46.06.51.06.98.06,1.43.06M261.86,50.44v-.09c-.12-.98-.21-2.59-.21-4.91v-10.39c0-7.14-3.21-10.45-10.15-10.45-2.86,0-5.65.8-8.3,2.38l-.06.03.27,4.17.12-.12c1.85-1.58,4.61-2.53,7.23-2.53,4.32,0,6.07,1.85,6.1,6.37-1.79-.09-3.07-.09-4.82-.09-4.34,0-11.72,1.76-11.72,8.33,0,5.09,3.3,7.89,9.28,7.89,4.49,0,6.9-2.59,7.77-3.78v3.18h4.49Z"/>
        <path class="cls-1" d="M284.53,21.21c-2.5-.98-3.87-1.43-6.43-1.43-2.77,0-5.98.98-5.98,4.58,0,6.58,14.73,5.06,14.73,16.37,0,7.32-5.65,10.21-12.53,10.21-2.41,0-4.76-.68-7.02-1.43l.48-4.58c1.67.68,4.61,1.67,7.11,1.67,2.8,0,6.73-1.58,6.73-5.59,0-7.68-14.73-5.56-14.73-16.22,0-6.1,4.82-9.34,11.01-9.34,2.26,0,4.97.39,7.32,1.22l-.68,4.55Z"/>
        <path class="cls-1" d="M308.91,36.87c0,6.61-2.32,10.24-7.17,10.24-3.75-.24-5.24-2.71-5.24-8.87v-13.03h-4.79v14.97c0,7.08,3.27,10.86,9.46,10.86,3.63,0,6.46-1.76,7.86-4.49v3.9h4.64v-25.24h-4.79v11.67h.03Z"/>
        <path class="cls-1" d="M333.81,24.93c-.95-.18-1.64-.33-2.98-.33-2.59,0-5.27,1.79-6.55,4.37v-3.78h-4.49v25.24h4.79v-11.49c0-6.16,2.65-10.15,6.76-10.15.98,0,1.82.15,2.53.45l.12.06.48-4.23-.65-.15Z"/>
        <polygon class="cls-1" points="169.54 14.01 163.95 14.01 159.93 20.26 163.44 20.26 169.54 14.01"/>
        <path class="cls-1" d="M168.89,35.32h-12.8c.39-3.3,2.32-6.81,6.64-6.81,3.07,0,6.13,2.11,6.16,6.81M173.98,38.86c0-9.43-3.75-14.22-11.13-14.22-3.48,0-6.46,1.25-8.6,3.57-2.11,2.32-3.24,5.51-3.24,9.17,0,8.81,4.64,13.66,13.06,13.66,3.63,0,5.65-.77,7.26-1.37.24-.09.45-.18.65-.24l.42-.15-.36-4.73-.15.12c-1.07.89-4.55,2.5-7.65,2.5-4.55,0-8.12-3.6-8.18-8.18h17.89v-.12h.03Z"/>
        <polygon class="cls-1" points="169.54 14.01 163.95 14.01 159.96 20.26 163.44 20.26 169.54 14.01"/>
        <path class="cls-1" d="M137.67,15.47l-6.58,17.29c-1.61,4.08-2.83,7.47-3.66,10.15-.8-2.5-2.83-8.01-3.63-10.03l-6.84-17.41h-8.72v34.97h5.74v-19.55c0-3.96-.09-7.02-.3-9.14.42,1.25.89,2.56,1.43,3.93.89,2.32,9.55,24.73,9.55,24.73h5.33s8.09-21.07,8.72-22.71c.62-1.67,1.22-3.39,1.82-5.12.18-.54.36-1.04.51-1.49,0,.06-.03,1.67-.03,2.68-.03,1.04-.03,2.14-.06,3.36l-.06,23.3h5.71V15.47h-8.93Z"/>
      </g>
      <g>
        <polygon class="cls-1" points="108.21 61.74 108.21 72.13 114.61 72.13 114.61 71 109.61 71 109.61 67.46 113.66 67.46 113.66 66.36 109.61 66.36 109.61 62.9 114.61 62.9 114.61 61.74 108.21 61.74"/>
        <path class="cls-1" d="M118.15,68.38l-2.47-3.57h1.25c.12,0,.18.03.24.06s.09.09.12.15l1.79,2.77c.03-.15.12-.27.18-.42l1.58-2.32c.06-.06.09-.12.15-.15s.12-.06.18-.06h1.19l-2.47,3.51,2.56,3.84h-1.25c-.12,0-.18-.03-.24-.09-.06-.06-.12-.12-.15-.18l-1.85-2.89c-.03.15-.09.27-.15.39l-1.73,2.5c-.06.06-.09.12-.15.18-.06.06-.12.09-.24.09h-1.16l2.62-3.81Z"/>
        <path class="cls-1" d="M128.3,66.09c-.03.06-.09.09-.12.12-.03.03-.09.03-.18.03-.06,0-.15-.03-.24-.09s-.18-.12-.33-.21c-.12-.06-.3-.15-.48-.21s-.42-.09-.68-.09c-.36,0-.68.06-.95.18-.27.12-.51.33-.68.57-.18.24-.33.54-.42.86-.09.36-.15.71-.15,1.16s.06.83.15,1.19.24.62.42.86c.18.24.42.42.68.54.27.12.57.18.89.18s.57-.03.77-.12c.21-.06.39-.15.51-.24.15-.09.24-.18.33-.24.09-.09.18-.12.27-.12.12,0,.21.03.24.12l.36.48c-.33.39-.71.68-1.19.86-.48.18-.98.27-1.52.27-.45,0-.89-.09-1.28-.24-.39-.18-.74-.42-1.04-.74s-.51-.71-.68-1.19c-.18-.48-.24-1.01-.24-1.61,0-.54.09-1.04.24-1.52s.39-.86.65-1.19c.3-.33.65-.6,1.07-.77s.92-.3,1.49-.3c.51,0,.98.09,1.37.24.39.18.74.42,1.04.71l-.3.51Z"/>
        <path class="cls-1" d="M132.97,64.69c.45,0,.83.06,1.22.21.39.15.68.36.95.62.27.27.48.62.62,1.04s.24.86.24,1.4c0,.21-.03.33-.06.42-.03.06-.12.09-.24.09h-4.88c0,.48.06.86.18,1.22.12.36.27.62.48.86.21.24.45.39.71.51s.6.18.95.18c.33,0,.6-.03.83-.12.24-.09.45-.15.6-.24.18-.09.3-.18.42-.24s.21-.12.3-.12c.12,0,.18.03.24.12l.36.48c-.15.21-.36.36-.57.51-.21.15-.45.27-.71.36s-.51.15-.77.21-.54.06-.8.06c-.51,0-.98-.09-1.4-.27-.42-.18-.8-.42-1.1-.74s-.57-.74-.71-1.22c-.18-.48-.27-1.04-.27-1.7,0-.51.09-.98.24-1.43s.39-.83.68-1.16c.3-.33.65-.6,1.07-.77.42-.18.89-.27,1.43-.27M133,65.64c-.62,0-1.1.18-1.46.54-.36.36-.6.86-.65,1.49h3.99c0-.3-.03-.57-.12-.83-.09-.24-.21-.48-.36-.65-.15-.18-.36-.33-.6-.42-.24-.09-.51-.12-.8-.12"/>
        <rect class="cls-1" x="137.82" y="61.45" width="1.28" height="10.68"/>
        <path class="cls-1" d="M144.28,64.69c.45,0,.83.06,1.22.21.39.15.68.36.95.62.27.27.48.62.62,1.04s.24.86.24,1.4c0,.21-.03.33-.06.42-.03.06-.12.09-.24.09h-4.88c0,.48.06.86.18,1.22.12.36.27.62.48.86.21.24.45.39.71.51s.6.18.95.18c.33,0,.6-.03.83-.12.24-.09.45-.15.6-.24.18-.09.3-.18.42-.24s.21-.12.3-.12c.12,0,.18.03.24.12l.36.48c-.15.21-.36.36-.57.51-.21.15-.48.27-.71.36-.27.09-.51.15-.77.21s-.54.06-.8.06c-.51,0-.98-.09-1.4-.27-.42-.18-.8-.42-1.1-.74s-.57-.74-.71-1.22c-.18-.48-.27-1.04-.27-1.7,0-.51.09-.98.24-1.43s.39-.83.68-1.16c.3-.33.65-.6,1.07-.77.42-.18.89-.27,1.43-.27M144.31,65.64c-.62,0-1.1.18-1.46.54-.36.36-.57.86-.65,1.49h3.99c0-.3-.03-.57-.12-.83-.09-.24-.21-.48-.36-.65-.15-.18-.36-.33-.6-.42-.24-.09-.51-.12-.8-.12"/>
        <path class="cls-1" d="M148.98,72.13v-7.35h.77c.18,0,.3.09.36.27l.09.8c.33-.36.68-.62,1.07-.86.39-.21.86-.33,1.37-.33.39,0,.74.06,1.07.21.3.12.57.33.77.57.21.24.36.54.48.89s.15.71.15,1.13v4.67h-1.28v-4.67c0-.57-.12-.98-.39-1.28s-.65-.45-1.16-.45c-.39,0-.74.09-1.07.27-.33.18-.62.45-.92.74v5.42h-1.31v-.03Z"/>
        <path class="cls-1" d="M162.05,66.09c-.03.06-.09.09-.12.12-.03.03-.09.03-.18.03-.06,0-.15-.03-.24-.09s-.18-.12-.33-.21c-.12-.06-.3-.15-.48-.21s-.42-.09-.68-.09c-.36,0-.68.06-.95.18-.27.12-.51.33-.68.57-.18.24-.33.54-.42.86-.09.36-.15.71-.15,1.16s.06.83.15,1.19.24.62.42.86c.18.24.42.42.68.54.27.12.57.18.89.18s.57-.03.77-.12c.21-.06.39-.15.51-.24.15-.09.24-.18.33-.24.09-.09.18-.12.27-.12.12,0,.21.03.24.12l.36.48c-.33.39-.71.68-1.19.86-.48.18-.98.27-1.52.27-.45,0-.89-.09-1.28-.24-.39-.18-.74-.42-1.01-.74-.3-.33-.51-.71-.68-1.19-.18-.48-.24-1.01-.24-1.61,0-.54.09-1.04.24-1.52s.39-.86.65-1.19c.3-.33.65-.6,1.07-.77s.92-.3,1.49-.3c.51,0,.98.09,1.37.24.39.18.74.42,1.04.71l-.33.51Z"/>
        <path class="cls-1" d="M165.53,62.49c0,.12-.03.24-.09.36s-.12.21-.21.3-.18.15-.3.21-.24.06-.36.06-.24-.03-.36-.06c-.12-.06-.21-.12-.3-.21s-.15-.18-.21-.3-.06-.24-.06-.36.03-.24.06-.36c.06-.12.12-.21.21-.3s.18-.15.3-.21.24-.06.36-.06.24.03.36.06c.12.06.21.12.3.21s.15.18.21.3c.09.12.09.24.09.36M165.26,72.13h-1.28v-7.35h1.28v7.35Z"/>
        <path class="cls-1" d="M172.91,72.13h-.57c-.12,0-.24-.03-.3-.06-.09-.03-.12-.12-.15-.24l-.15-.68c-.21.18-.39.33-.57.48-.18.15-.39.27-.57.36-.21.09-.42.18-.65.21-.24.06-.48.06-.77.06s-.57-.03-.8-.12c-.24-.09-.48-.21-.65-.36-.18-.15-.33-.36-.45-.6s-.15-.54-.15-.86c0-.3.09-.57.24-.83.15-.27.42-.51.77-.71.36-.21.83-.39,1.4-.51s1.28-.21,2.11-.21v-.57c0-.57-.12-1.01-.36-1.31s-.6-.45-1.07-.45c-.33,0-.57.03-.8.12-.21.09-.39.18-.57.27-.15.09-.3.18-.42.27-.12.09-.24.12-.33.12s-.15-.03-.24-.06c-.06-.06-.12-.09-.15-.18l-.24-.42c.42-.39.83-.68,1.31-.86.48-.18.98-.3,1.55-.3.42,0,.77.06,1.1.21.33.15.6.33.8.57.21.24.39.54.51.86.12.36.18.71.18,1.13v4.67h-.03ZM169.57,71.36c.24,0,.45-.03.62-.06.18-.06.36-.12.54-.21s.33-.18.48-.3.3-.27.45-.42v-1.52c-.6,0-1.1.03-1.52.12-.42.09-.74.18-1.01.3s-.45.27-.57.42c-.12.18-.18.36-.18.57s.03.36.09.51.15.27.27.36.24.15.39.21c.12,0,.27.03.45.03"/>
        <path class="cls-1" d="M177.67,72.13v-7.35h.77c.18,0,.3.09.36.27l.09.74c.27-.33.57-.6.92-.83.33-.21.71-.33,1.16-.33.51,0,.89.15,1.22.42.3.27.54.65.65,1.13.09-.27.24-.51.42-.68.18-.18.36-.36.57-.48.21-.12.42-.21.65-.27s.48-.09.71-.09c.39,0,.74.06,1.04.18.3.12.57.3.77.54.21.24.36.54.48.86.12.36.18.74.18,1.19v4.67h-1.28v-4.67c0-.57-.12-1.01-.39-1.31-.24-.3-.62-.45-1.1-.45-.21,0-.42.03-.6.12-.18.09-.36.18-.51.33s-.27.33-.36.54-.12.48-.12.77v4.67h-1.28v-4.67c0-.6-.12-1.04-.36-1.31-.24-.3-.6-.45-1.04-.45-.33,0-.62.09-.89.27-.27.18-.54.42-.74.71v5.48h-1.34Z"/>
        <path class="cls-1" d="M192.49,64.69c.45,0,.83.06,1.22.21s.68.36.95.62c.27.27.48.62.62,1.04s.24.86.24,1.4c0,.21-.03.33-.06.42-.03.06-.12.09-.24.09h-4.88c0,.48.06.86.18,1.22.12.36.27.62.48.86.21.24.45.39.71.51s.6.18.95.18c.33,0,.6-.03.83-.12.24-.09.45-.15.6-.24.18-.09.3-.18.42-.24s.21-.12.3-.12c.12,0,.18.03.24.12l.36.48c-.15.18-.36.36-.57.51s-.45.27-.71.36-.51.15-.77.21c-.27.06-.54.06-.8.06-.51,0-.98-.09-1.4-.27-.42-.18-.8-.42-1.1-.74s-.57-.74-.71-1.22c-.18-.48-.27-1.04-.27-1.7,0-.51.09-.98.24-1.43s.39-.83.68-1.16c.3-.33.65-.6,1.07-.77.42-.18.89-.27,1.43-.27M192.52,65.64c-.62,0-1.1.18-1.46.54s-.6.86-.65,1.49h3.99c0-.3-.03-.57-.12-.83-.09-.24-.21-.48-.36-.65-.15-.18-.36-.33-.6-.42-.24-.09-.51-.12-.8-.12M194.63,61.62l-1.7,1.87c-.06.06-.15.12-.21.15s-.15.06-.24.06h-.77l1.07-1.76c.06-.12.15-.18.21-.24.09-.06.21-.09.36-.09h1.28Z"/>
        <path class="cls-1" d="M202.34,72.13c-.18,0-.3-.09-.36-.27l-.12-.89c-.33.39-.68.68-1.07.92-.42.24-.86.36-1.4.36-.42,0-.8-.09-1.13-.24-.36-.15-.62-.39-.86-.71-.24-.33-.42-.71-.57-1.16-.12-.48-.21-1.01-.21-1.61,0-.54.06-1.04.21-1.52s.36-.86.62-1.22c.27-.36.6-.62,1.01-.8.39-.21.83-.3,1.34-.3.45,0,.83.09,1.16.24.33.15.6.36.86.65v-4.08h1.28v10.68h-.77v-.06ZM199.84,71.21c.42,0,.8-.09,1.1-.3.33-.18.6-.48.86-.83v-3.54c-.24-.33-.51-.54-.77-.65-.3-.12-.6-.18-.95-.18-.68,0-1.22.24-1.58.74-.36.48-.57,1.19-.57,2.08,0,.48.03.89.12,1.22.09.33.21.62.36.83s.36.39.6.48c.27.09.54.15.83.15"/>
        <path class="cls-1" d="M207.01,62.49c0,.12-.03.24-.09.36s-.12.21-.21.3-.18.15-.3.21-.24.06-.36.06-.24-.03-.36-.06c-.12-.06-.21-.12-.3-.21s-.15-.18-.21-.3-.06-.24-.06-.36.03-.24.06-.36c.06-.12.12-.21.21-.3s.18-.15.3-.21.24-.06.36-.06.24.03.36.06c.12.06.21.12.3.21s.15.18.21.3c.06.12.09.24.09.36M206.71,72.13h-1.28v-7.35h1.28v7.35Z"/>
        <path class="cls-1" d="M214,66.09c-.03.06-.09.09-.12.12-.03.03-.09.03-.18.03-.06,0-.15-.03-.24-.09s-.18-.12-.33-.21c-.12-.06-.3-.15-.48-.21s-.42-.09-.68-.09c-.36,0-.68.06-.95.18-.27.12-.51.33-.68.57-.18.24-.33.54-.42.86-.09.36-.15.71-.15,1.16s.06.83.15,1.19.24.62.42.86c.18.24.42.42.68.54.27.12.57.18.89.18s.57-.03.77-.12c.21-.06.39-.15.51-.24.15-.09.24-.18.33-.24.09-.09.18-.12.27-.12.12,0,.21.03.24.12l.36.48c-.33.39-.71.68-1.19.86-.48.18-.98.27-1.52.27-.45,0-.89-.09-1.28-.24-.39-.18-.74-.42-1.01-.74-.3-.33-.51-.71-.68-1.19s-.24-1.01-.24-1.61c0-.54.09-1.04.24-1.52s.39-.86.65-1.19c.3-.33.65-.6,1.07-.77.42-.18.92-.3,1.49-.3.51,0,.98.09,1.37.24.39.18.74.42,1.04.71l-.33.51Z"/>
        <path class="cls-1" d="M221.18,72.13h-.57c-.12,0-.24-.03-.3-.06-.09-.03-.12-.12-.15-.24l-.15-.68c-.21.18-.39.33-.57.48-.18.15-.39.27-.57.36-.21.09-.42.18-.65.21-.24.06-.48.06-.77.06s-.57-.03-.8-.12c-.24-.09-.48-.21-.65-.36-.18-.15-.33-.36-.45-.6s-.15-.54-.15-.86c0-.3.09-.57.24-.83.15-.27.42-.51.77-.71.36-.21.83-.39,1.4-.51s1.28-.21,2.11-.21v-.57c0-.57-.12-1.01-.36-1.31s-.6-.45-1.07-.45c-.33,0-.57.03-.8.12-.21.09-.39.18-.57.27-.15.09-.3.18-.42.27-.12.09-.24.12-.33.12s-.15-.03-.24-.06c-.06-.06-.12-.09-.15-.18l-.24-.42c.42-.39.83-.68,1.31-.86.48-.18.98-.3,1.55-.3.42,0,.77.06,1.1.21.33.15.6.33.8.57.21.24.39.54.51.86.12.36.18.71.18,1.13v4.67h-.03ZM217.81,71.36c.24,0,.45-.03.62-.06.18-.06.36-.12.54-.21s.33-.18.48-.3.3-.27.45-.42v-1.52c-.6,0-1.1.03-1.52.12-.42.09-.74.18-1.01.3s-.45.27-.57.42c-.12.18-.18.36-.18.57s.03.36.09.51.15.27.27.36.24.15.39.21c.12,0,.27.03.45.03"/>
        <path class="cls-1" d="M222.75,71.24c0-.12.03-.21.06-.33.03-.09.09-.18.18-.27.09-.09.18-.12.27-.18.12-.03.21-.06.36-.06s.27.03.39.09c.12.06.21.12.3.21s.12.21.18.33c.03.12.06.27.06.42,0,.21-.03.45-.09.68s-.15.48-.27.68c-.12.24-.27.45-.45.68-.18.21-.36.42-.6.6l-.21-.21c-.06-.06-.09-.12-.09-.21,0-.06.03-.12.09-.21.06-.06.12-.12.18-.21.06-.09.15-.18.24-.3s.15-.24.21-.39.12-.3.15-.45h-.09c-.12,0-.24-.03-.33-.06-.09-.03-.18-.12-.27-.18-.09-.09-.12-.18-.18-.3-.09-.09-.09-.21-.09-.36"/>
        <path class="cls-1" d="M234,66.09c-.03.06-.09.09-.12.12-.03.03-.09.03-.18.03-.06,0-.15-.03-.24-.09s-.18-.12-.33-.21c-.12-.06-.3-.15-.48-.21s-.42-.09-.68-.09c-.36,0-.68.06-.95.18-.27.12-.51.33-.68.57-.18.24-.33.54-.42.86-.09.36-.15.71-.15,1.16s.06.83.15,1.19.24.62.42.86c.18.24.42.42.68.54.27.12.57.18.89.18s.57-.03.77-.12c.21-.06.39-.15.51-.24.15-.09.24-.18.33-.24.09-.09.18-.12.27-.12.12,0,.18.03.24.12l.36.48c-.33.39-.71.68-1.19.86-.48.18-.98.27-1.52.27-.45,0-.89-.09-1.28-.24-.39-.18-.74-.42-1.01-.74-.3-.33-.51-.71-.68-1.19s-.24-1.01-.24-1.61c0-.54.09-1.04.24-1.52s.39-.86.65-1.19c.3-.33.65-.6,1.07-.77.42-.18.92-.3,1.49-.3.51,0,.98.09,1.37.24.39.18.74.42,1.04.71l-.33.51Z"/>
        <path class="cls-1" d="M241.14,72.13h-.57c-.12,0-.24-.03-.3-.06-.09-.03-.12-.12-.15-.24l-.15-.68c-.21.18-.39.33-.57.48-.18.15-.39.27-.57.36-.21.09-.42.18-.65.21-.24.06-.48.06-.77.06s-.57-.03-.8-.12c-.24-.09-.48-.21-.65-.36-.18-.15-.33-.36-.45-.6s-.15-.54-.15-.86c0-.3.09-.57.24-.83.15-.27.42-.51.77-.71.36-.21.83-.39,1.4-.51s1.28-.21,2.11-.21v-.57c0-.57-.12-1.01-.36-1.31s-.6-.45-1.07-.45c-.33,0-.57.03-.8.12-.21.09-.39.18-.57.27-.15.09-.3.18-.42.27-.12.09-.24.12-.33.12s-.15-.03-.24-.06c-.06-.06-.12-.09-.15-.18l-.24-.42c.42-.39.83-.68,1.31-.86.48-.18.98-.3,1.55-.3.42,0,.77.06,1.1.21.33.15.6.33.8.57.21.24.39.54.51.86.12.36.18.71.18,1.13v4.67h-.03ZM237.81,71.36c.24,0,.45-.03.62-.06.18-.06.36-.12.54-.21s.33-.18.48-.3.3-.27.45-.42v-1.52c-.6,0-1.1.03-1.52.12-.42.09-.74.18-1.01.3s-.45.27-.57.42c-.12.18-.18.36-.18.57s.03.36.09.51.15.27.27.36.24.15.39.21c.12,0,.27.03.45.03"/>
        <rect class="cls-1" x="243.26" y="61.45" width="1.28" height="10.68"/>
        <path class="cls-1" d="M248.55,62.49c0,.12-.03.24-.09.36s-.12.21-.21.3-.18.15-.3.21-.24.06-.36.06-.24-.03-.36-.06c-.12-.06-.21-.12-.3-.21s-.15-.18-.21-.3-.06-.24-.06-.36.03-.24.06-.36c.06-.12.12-.21.21-.3s.18-.15.3-.21.24-.06.36-.06.24.03.36.06c.12.06.21.12.3.21s.15.18.21.3.09.24.09.36M248.26,72.13h-1.28v-7.35h1.28v7.35Z"/>
        <path class="cls-1" d="M255.7,72.13c-.18,0-.3-.09-.36-.27l-.12-.89c-.33.39-.68.68-1.07.92-.42.24-.86.36-1.4.36-.42,0-.8-.09-1.13-.24-.36-.15-.62-.39-.86-.71-.24-.33-.42-.71-.57-1.16-.12-.48-.21-1.01-.21-1.61,0-.54.06-1.04.21-1.52s.36-.86.62-1.22c.27-.36.6-.62,1.01-.8.39-.21.83-.3,1.34-.3.45,0,.83.09,1.16.24.33.15.6.36.86.65v-4.08h1.28v10.68h-.77v-.06ZM253.2,71.21c.42,0,.8-.09,1.1-.3.33-.18.6-.48.86-.83v-3.54c-.24-.33-.51-.54-.77-.65-.3-.12-.6-.18-.95-.18-.68,0-1.22.24-1.58.74-.36.48-.57,1.19-.57,2.08,0,.48.03.89.12,1.22.09.33.21.62.36.83s.36.39.6.48c.27.09.54.15.83.15"/>
        <path class="cls-1" d="M261.56,64.69c.45,0,.83.06,1.22.21s.68.36.95.62c.27.27.48.62.62,1.04s.24.86.24,1.4c0,.21-.03.33-.06.42-.03.06-.12.09-.24.09h-4.88c0,.48.06.86.18,1.22.12.36.27.62.48.86.21.24.45.39.71.51s.6.18.95.18c.33,0,.6-.03.83-.12.24-.09.45-.15.6-.24.18-.09.3-.18.42-.24s.21-.12.3-.12c.12,0,.18.03.24.12l.36.48c-.15.21-.36.36-.57.51s-.45.27-.71.36-.51.15-.77.21c-.27.06-.54.06-.8.06-.51,0-.98-.09-1.4-.27-.42-.18-.8-.42-1.1-.74s-.57-.74-.71-1.22c-.18-.48-.27-1.04-.27-1.7,0-.51.09-.98.24-1.43s.39-.83.68-1.16c.3-.33.65-.6,1.07-.77.42-.18.89-.27,1.43-.27M261.59,65.64c-.62,0-1.1.18-1.46.54s-.57.86-.65,1.49h3.99c0-.3-.03-.57-.12-.83-.09-.24-.21-.48-.36-.65-.15-.18-.36-.33-.6-.42-.27-.09-.51-.12-.8-.12"/>
        <path class="cls-1" d="M271.38,65.34c0,.09-.03.18-.06.27-.03.09-.09.15-.12.24l-3.99,5.3h4.02v1.01h-5.54v-.54c0-.06.03-.15.06-.21.03-.09.09-.18.12-.24l3.99-5.33h-3.96v-1.01h5.45v.51h.03Z"/>
        <path class="cls-1" d="M275.75,72.13v-10.68h1.28v4.32c.33-.33.65-.6,1.04-.8s.83-.3,1.31-.3c.39,0,.74.06,1.07.21.3.12.57.33.77.57.21.24.36.54.48.89.12.36.15.71.15,1.13v4.67h-1.28v-4.67c0-.57-.12-.98-.39-1.28-.27-.3-.65-.45-1.16-.45-.39,0-.74.09-1.07.27-.33.18-.62.45-.92.74v5.42h-1.28v-.03Z"/>
        <path class="cls-1" d="M284.92,64.81v4.67c0,.57.12.98.39,1.28.27.3.65.45,1.16.45.39,0,.74-.09,1.07-.27.33-.18.62-.42.92-.74v-5.42h1.28v7.35h-.77c-.18,0-.3-.09-.36-.27l-.09-.8c-.33.36-.68.62-1.07.86-.39.21-.86.33-1.37.33-.39,0-.74-.06-1.07-.21-.3-.12-.57-.33-.77-.57-.21-.24-.36-.54-.48-.86-.12-.36-.15-.71-.15-1.13v-4.67h1.31Z"/>
        <path class="cls-1" d="M291.85,72.13v-7.35h.77c.18,0,.3.09.36.27l.09.74c.27-.33.57-.6.92-.83.33-.21.71-.33,1.16-.33.51,0,.89.15,1.22.42.3.27.54.65.65,1.13.09-.27.24-.51.42-.68.18-.18.36-.36.57-.48.21-.12.42-.21.65-.27s.48-.09.71-.09c.39,0,.74.06,1.04.18.3.12.57.3.77.54.21.24.36.54.48.86.12.36.18.74.18,1.19v4.67h-1.28v-4.67c0-.57-.12-1.01-.39-1.31-.24-.3-.62-.45-1.1-.45-.21,0-.42.03-.6.12-.18.09-.36.18-.51.33s-.27.33-.36.54-.12.48-.12.77v4.67h-1.28v-4.67c0-.6-.12-1.04-.36-1.31-.24-.3-.6-.45-1.04-.45-.33,0-.62.09-.89.27-.27.18-.54.42-.74.71v5.48h-1.34Z"/>
        <path class="cls-1" d="M309.17,72.13h-.57c-.12,0-.24-.03-.3-.06-.09-.03-.12-.12-.15-.24l-.15-.68c-.21.18-.39.33-.57.48-.18.15-.39.27-.57.36-.21.09-.42.18-.65.21-.24.06-.48.06-.77.06s-.57-.03-.8-.12c-.24-.09-.48-.21-.65-.36-.18-.15-.33-.36-.45-.6s-.15-.54-.15-.86c0-.3.09-.57.24-.83.15-.27.42-.51.77-.71.36-.21.83-.39,1.4-.51s1.28-.21,2.11-.21v-.57c0-.57-.12-1.01-.36-1.31s-.6-.45-1.07-.45c-.33,0-.57.03-.8.12-.21.09-.39.18-.57.27-.15.09-.3.18-.42.27-.12.09-.24.12-.33.12s-.15-.03-.24-.06c-.06-.06-.12-.09-.15-.18l-.24-.42c.42-.39.83-.68,1.31-.86.48-.18.98-.3,1.55-.3.42,0,.77.06,1.1.21.33.15.6.33.8.57.21.24.39.54.51.86.12.36.18.71.18,1.13v4.67h-.03ZM305.81,71.36c.24,0,.45-.03.62-.06.18-.06.36-.12.54-.21s.33-.18.48-.3.3-.27.45-.42v-1.52c-.6,0-1.1.03-1.52.12-.42.09-.74.18-1.01.3s-.45.27-.57.42c-.12.18-.18.36-.18.57s.03.36.09.51.15.27.27.36.24.15.39.21c.12,0,.27.03.45.03"/>
        <path class="cls-1" d="M311.11,72.13v-7.35h.77c.18,0,.3.09.36.27l.09.8c.33-.36.68-.62,1.07-.86.39-.21.86-.33,1.37-.33.39,0,.74.06,1.07.21.3.12.57.33.77.57.21.24.36.54.48.89s.15.71.15,1.13v4.67h-1.28v-4.67c0-.57-.12-.98-.39-1.28-.27-.3-.65-.45-1.16-.45-.39,0-.74.09-1.07.27-.33.18-.62.45-.92.74v5.42h-1.31v-.03Z"/>
        <path class="cls-1" d="M324.59,72.13h-.57c-.12,0-.24-.03-.3-.06-.09-.03-.12-.12-.15-.24l-.15-.68c-.21.18-.39.33-.57.48s-.39.27-.57.36c-.21.09-.42.18-.65.21-.24.06-.48.06-.77.06s-.57-.03-.8-.12c-.24-.09-.48-.21-.65-.36s-.33-.36-.45-.6-.15-.54-.15-.86c0-.3.09-.57.24-.83.15-.27.42-.51.77-.71s.83-.39,1.4-.51c.57-.12,1.28-.21,2.11-.21v-.57c0-.57-.12-1.01-.36-1.31-.24-.3-.6-.45-1.07-.45-.33,0-.57.03-.8.12-.21.09-.39.18-.57.27-.15.09-.3.18-.42.27-.12.09-.24.12-.33.12s-.15-.03-.24-.06c-.06-.06-.12-.09-.15-.18l-.24-.42c.42-.39.83-.68,1.31-.86.48-.18.98-.3,1.55-.3.42,0,.77.06,1.1.21s.6.33.8.57c.21.24.39.54.51.86.12.36.18.71.18,1.13v4.67h-.03ZM321.23,71.36c.24,0,.45-.03.62-.06.18-.06.36-.12.54-.21.18-.09.33-.18.48-.3s.3-.27.45-.42v-1.52c-.6,0-1.1.03-1.52.12-.42.09-.74.18-1.01.3s-.45.27-.57.42c-.12.18-.18.36-.18.57s.03.36.09.51c.06.15.15.27.27.36s.24.15.39.21c.12,0,.27.03.45.03"/>
      </g>
    </g>
    <path class="cls-1" d="M345.93,19.69c1.4,0,2.62.54,3.63,1.58,1.01,1.04,1.55,2.29,1.55,3.69,0,1.49-.51,2.74-1.55,3.78-1.01,1.04-2.26,1.55-3.72,1.55s-2.74-.54-3.78-1.58-1.55-2.32-1.55-3.81.54-2.71,1.58-3.72c1.04-.98,2.32-1.49,3.84-1.49ZM345.75,20.56c-1.19,0-2.2.45-3.07,1.31s-1.31,1.9-1.31,3.09.42,2.26,1.31,3.15c.86.86,1.9,1.31,3.12,1.31s2.26-.45,3.12-1.31,1.31-1.93,1.31-3.18-.45-2.23-1.31-3.09c-.86-.83-1.93-1.28-3.18-1.28ZM343.87,27.88v-6.07h1.61c1.61,0,2.41.57,2.41,1.67,0,.77-.39,1.25-1.16,1.4v.06c.3.09.54.36.71.74l1.04,2.23h-1.37l-.8-1.87c-.12-.27-.27-.48-.42-.57-.15-.09-.42-.15-.74-.15h-.12v2.59h-1.16v-.03ZM345,22.79v1.52h.24c.95,0,1.46-.24,1.46-.74,0-.3-.12-.51-.36-.6-.24-.09-.6-.15-1.1-.15h-.24v-.03Z"/>
  </g>
</svg>