<?xml version="1.0" encoding="UTF-8"?>
<svg id="Layer_1" data-name="Layer 1" xmlns="http://www.w3.org/2000/svg" viewBox="0 0 91.42 92.68">
  <defs>
    <style>
      .cls-1 {
        fill: #757676;
      }
    </style>
  </defs>
  <path class="cls-1" d="M48.69,7.41l2.31.28c22.56,3.14,37.9,24.67,33.34,47.16-3.04,14.98-14.9,27.1-29.79,30.51-22.72,5.21-44.91-10.21-48.09-33.13,0,0-.51-4.44-.28-8.45C7.3,24.35,23.72,8.53,42.56,7.41h6.14ZM43.33,9.02C15.53,10.39-1.13,41.35,12.66,65.58c14.71,25.85,52.31,25.41,66.38-.79,14.13-26.32-6.14-57.24-35.71-55.78Z"/>
  <path class="cls-1" d="M78.05,60.8c.1.14-.43,1.21-.53,1.43-6.22,13.29-20.83,21.34-35.44,19.86-12.59-1.28-23.97-9.5-28.88-21.17,0-.15,1.81.43,1.98.47,12.54,3.17,24.69.05,37.09-1.9,7.45-1.17,13.41-1.74,20.88-.07.58.13,4.75,1.16,4.9,1.37Z"/>
  <path class="cls-1" d="M78.06,32.83c-1.4-.33-2.78-.74-4.19-1.02-7.48-1.49-15.26-.77-22.75.34-9.47,1.4-19.5,4.2-29.1,2.87-2.99-.42-5.98-1.16-8.83-2.14,4.28-10.28,13.63-17.98,24.48-20.49,15.08-3.48,30.63,3.25,38.44,16.48.24.4,2.1,3.81,1.94,3.97Z"/>
  <path class="cls-1" d="M33.18,43.09v1.75h6.14v3.68h-6.14v1.75h7.8v3.68h-12.8v-14.42s.12-.13.13-.13h12.45s.13.12.13.13v3.42s-.12.13-.13.13h-7.58Z"/>
  <path class="cls-1" d="M71.47,42.9l-3.98,1.41c-.23-.02-.25-.31-.39-.48-.78-.92-1.76-1.11-2.93-1.01s-2.18,1.06-.68,1.64c2.61,1.03,7.95.75,8.34,4.72.65,6.51-10.3,6.31-13.79,3.45-.56-.46-1.14-1.21-1.27-1.93l4.08-1.46c.97,1.46,2.81,1.79,4.47,1.64,1.27-.12,2.24-1.01.69-1.74-2.58-1.2-7.63-.84-8.16-4.72-.81-5.91,9.14-6.58,12.42-3.75.61.53,1.21,1.39,1.22,2.23Z"/>
  <path class="cls-1" d="M17.84,51.24v2.72h-4.86s-.13-.12-.13-.13v-14.29c0-.07.21-.16.3-.14,3.79.47,11.78-1.6,13.5,3.07.78,2.11.12,4.44-1.68,5.77-1.93,1.42-4.89,2.13-7.13,2.99ZM17.84,47.38c1.42-.49,4.43-1.19,3.77-3.29-.12-.38-.7-1-1.1-1h-2.67v4.29Z"/>
  <path class="cls-1" d="M47.99,51.24v2.72h-5v-14.42c0-.07.21-.16.3-.14,4.59.4,14.48-2.01,13.71,5.65-.4,3.98-6.01,4.95-9.02,6.19ZM47.99,47.38c.91-.35,3.08-.95,3.58-1.81.22-.38.26-1.1.15-1.52-.1-.39-.74-.96-1.14-.96h-2.59v4.29Z"/>
  <path class="cls-1" d="M73.24,53.96v-12.93l4.81-1.85c.06-.07.18.08.18.1v14.55s-.12.13-.13.13h-4.86Z"/>
</svg>