<?xml version="1.0" encoding="UTF-8"?>
<svg id="Layer_1" data-name="Layer 1" xmlns="http://www.w3.org/2000/svg" viewBox="0 0 345.44 92.68">
  <defs>
    <style>
      .cls-1 {
        fill: #757676;
      }
    </style>
  </defs>
  <path class="cls-1" d="M89.12,24.4c-.11.5-.11.99.04,1.11.38.42,19.7.42,19.93.04.11-.19.11-.73,0-1.18-.19-.84-.23-.84-9.97-.84h-9.77l-.23.88ZM41.85,29.4c-.11.23-.53.42-.88.42-1.15,0-3.67,1.57-5.08,3.13-3.4,3.74-2.52,9.85,1.76,12.41,1.87,1.11,5.31,2.56,7.64,3.17,2.14.53,4.66,1.83,6.03,3.02,2.48,2.21,2.25,6.07-.57,8.78-3.51,3.4-9.58,3.63-15.23.53-1.6-.88-1.99-.95-2.25-.46-.46.69-.08,1.95.73,2.44,2.44,1.49,4.12,1.83,9.05,1.87,5.5.04,6.34-.19,9.62-2.79,3.09-2.41,4.24-5.31,3.7-9.39-.34-2.98-2.14-4.66-7.18-6.8-1.79-.76-3.7-1.45-5.19-1.79-.69-.19-1.45-.5-1.68-.73s-.69-.42-.99-.42c-.95,0-3.32-2.41-3.89-3.93-.88-2.48.53-5.27,3.44-6.8,1.37-.73,2.06-.8,5.31-.65,3.44.11,3.86.23,5.54,1.37,1.99,1.34,2.86,1.53,3.17.69.53-1.34-1.34-2.83-4.62-3.74-2.18-.61-8.06-.84-8.4-.34h0ZM11.46,30.09l-2.56.15.08,16.88.04,16.88,9.55.23c8.32.19,9.62.11,10.04-.38.27-.34.42-.84.38-1.18-.11-.5-1.3-.57-8.13-.57h-8.02v-15.65l7.29.15c6.57.11,7.33.04,7.56-.53.11-.34.11-.8,0-1.03-.15-.23-3.02-.34-7.56-.27l-7.29.11v-12.94l7.64.15c6.45.11,7.71.04,8.13-.42.27-.34.38-.88.23-1.22-.19-.53-1.11-.61-7.56-.53-4.01.04-8.44.11-9.81.19h0ZM57.81,30.09c-.76.27-.57,1.18.31,1.68.57.31,2.29.34,5.73.15l4.93-.27.08,16.15.11,16.19,1.68.11c.92.08,1.83-.04,2.06-.27s.38-6.03.42-16.15l.04-15.77,5.19.11c4.35.11,5.23.04,5.65-.46.27-.34.42-.84.31-1.15-.19-.42-2.44-.53-13.13-.5-7.1,0-13.13.08-13.36.15h0ZM92.18,30.09l-2.79.15v16.76c0,9.2.11,16.84.31,16.91.15.11,4.54.27,9.74.31,8.82.15,9.51.11,9.89-.53.27-.5.23-.88-.15-1.3-.42-.5-1.53-.57-8.13-.46l-7.64.15-.19-7.56c-.11-4.81-.04-7.67.19-7.83.19-.11,3.55-.23,7.45-.27,6.8,0,7.06-.04,7.06-.76s-.27-.76-6.87-.84c-3.78-.04-7.1-.08-7.37-.08-.38-.04-.46-1.45-.38-6.45l.11-6.38h15.65v-1.91l-7.06-.04c-3.89,0-8.32.04-9.81.11h0ZM118.48,30.16l-2.41.23v16.57c0,9.13.11,16.69.27,16.8.27.27,18.82.73,19.55.5.27-.11.46-.61.38-1.18l-.11-.99-7.9.04-7.9.08-.11-7.6c-.08-4.2-.08-7.75,0-7.9.04-.15,3.21-.23,7.06-.15,3.93.08,7.18-.04,7.48-.27.31-.19.42-.61.27-.99-.19-.57-.95-.65-7.48-.5l-7.25.11v-13.13l7.67.08c7.03.08,7.75,0,8.13-.61.34-.53.31-.76-.15-1.03-.61-.38-13.36-.42-17.49-.04h0ZM157.12,30.28c-.19.31-.27,33.56-.08,33.75.08.04,4.39.15,9.62.19,8.71.11,9.51.04,9.85-.57.19-.34.27-.92.15-1.26-.23-.53-1.22-.57-8.17-.46l-7.9.15.04-15.96c.04-8.74-.08-15.92-.19-15.96-1.22-.23-3.17-.15-3.32.11h0ZM192.98,30.09c-.27.08-.5.42-.5.73s-.53,1.68-1.18,3.09c-1.68,3.74-2.06,4.7-2.86,6.61-.61,1.57-1.57,3.93-2.44,5.92-.15.42-1.18,2.9-2.29,5.54-2.48,6.03-2.37,5.8-3.82,8.9-1.26,2.67-1.3,3.7-.11,3.7.95,0,2.41-1.07,2.41-1.79,0-.57.73-2.44,1.76-4.43.31-.61.53-1.26.53-1.49,0-.42.84-2.44,1.83-4.47l.65-1.3,7.25-.04c6.95-.04,7.25,0,7.37.73.15,1.03,1.68,4.93,2.98,7.56.31.61.53,1.3.53,1.57,0,.76,1.18,2.94,1.68,3.09.23.08,1.15.23,2.06.31,2.21.27,2.37-.31.84-3.47-.69-1.41-1.49-3.09-1.76-3.7-.23-.65-.76-1.83-1.15-2.67-.34-.84-.88-2.06-1.15-2.67-.23-.65-.73-1.76-1.03-2.48s-.84-1.95-1.15-2.67-.84-1.95-1.15-2.67-.84-1.99-1.18-2.79c-.34-.76-.88-2.06-1.22-2.86-.34-.76-.88-2.02-1.18-2.75s-.8-1.83-1.11-2.41c-.31-.61-.53-1.37-.53-1.76,0-.34-.19-.84-.46-1.11-.46-.46-2.71-.57-3.63-.19h0ZM194.77,34.78c0,.42.23,1.3.53,1.99s.84,2.02,1.18,2.98c1.26,3.28,2.63,6.49,3.51,8.13.31.61.5,1.18.38,1.3-.23.23-12.56.15-12.79-.08-.15-.15.88-2.63,2.02-4.89.31-.61.57-1.26.57-1.49,0-.19.27-.99.61-1.76.34-.8.84-1.99,1.15-2.67s.53-1.57.53-1.95c0-.88,1.49-2.79,1.95-2.52.19.15.34.57.34.95h0ZM214.4,30.09c-.27.08-.34,4.47-.23,13.55.11,12.56.15,13.48.88,14.93.84,1.6,3.93,4.85,4.66,4.85.27,0,.99.31,1.6.65.92.5,2.21.65,6.11.65,4.66.04,5.08-.04,7.1-.99,2.25-1.15,4.31-3.09,5.5-5.27.69-1.22.76-2.37.88-14.66.08-8.44,0-13.44-.27-13.71-.19-.19-.76-.27-1.26-.15l-.88.23v13.1c0,13.06,0,13.1-.92,14.74-1.11,2.02-3.25,3.82-4.89,4.12-.69.11-1.37.38-1.49.57-.34.57-5.42.38-7.48-.31-2.44-.8-4.47-2.83-5.38-5.38-.61-1.72-.69-3.21-.61-14.17.04-6.76-.04-12.41-.19-12.56-.31-.27-2.48-.42-3.13-.19h0ZM250.51,30.09l-2.1.15.08,16.69c.04,9.16.08,16.8.08,16.91.04.15,2.56.38,5.69.53,5.88.27,10.96-.31,13.71-1.57.65-.31,1.3-.53,1.41-.53.61,0,4.43-3.13,5.42-4.47,1.53-2.02,2.25-3.67,2.98-6.83.8-3.55.76-5.15-.11-8.82-1.18-4.93-3.63-8.44-6.99-10.08-4.2-2.02-4.01-2.02-11.19-2.06-3.78-.04-7.83,0-8.97.08h0ZM264.53,32.3c4.81,1.26,6.41,2.71,8.67,7.98.88,2.02.92,11.57.04,13.33-.31.61-.57,1.3-.57,1.49,0,.65-2.48,3.67-3.86,4.62-2.56,1.87-4.62,2.29-10.84,2.33l-5.73.04-.11-14.7c-.04-8.09,0-14.93.11-15.16.27-.73,9.43-.65,12.29.08h0ZM286.67,30.09l-2.56.15.08,16.88.11,16.88,9.55.23c5.27.11,9.74.11,10,.04.73-.23,1.03-1.64.46-2.06-.31-.19-3.86-.31-8.17-.23l-7.64.11v-15.65l7.03.15c7.22.11,7.94,0,7.41-1.37-.19-.46-1.45-.53-7.33-.46l-7.1.11v-12.94h7.6c6.87,0,7.64-.08,8.02-.69.31-.53.31-.76-.15-1.03-.53-.34-11.38-.42-17.3-.11h0ZM313.4,30.16l-2.21.23v16.53c.04,9.13.11,16.72.23,16.91.15.19.99.34,1.95.34,1.34,0,1.68-.15,1.68-.69,0-.34.08-4.09.11-8.29l.08-7.64,3.44.11c3.32.11,3.47.19,4.47,1.34.57.69,1.07,1.34,1.07,1.49s.76,1.37,1.72,2.75c.95,1.41,1.72,2.6,1.72,2.67,0,.11.73,1.26,1.6,2.6,2.14,3.17,2.52,3.82,2.83,4.58.15.38.95.8,2.1,1.03,2.6.57,2.63.57,2.63-.73,0-.65-.15-1.15-.34-1.15s-2.37-3.02-4.81-6.68-4.62-6.76-4.81-6.87c-.19-.15-.34-.57-.34-.95,0-.53.46-.88,1.64-1.22,3.44-.99,6.07-3.47,6.57-6.15.15-.8.15-2.37,0-3.51-.19-1.68-.5-2.33-1.72-3.59-2.67-2.75-4.28-3.21-11.26-3.32-3.36-.04-7.1.04-8.32.19h0ZM323.36,31.84c3.25.11,5.84,1.3,6.91,3.17,1.15,1.91,1.11,5.46-.04,7.14-2.14,2.98-4.12,3.74-10.31,3.89l-4.89.08v-7.14c0-3.93.08-7.22.19-7.29.08-.11,1.37-.11,2.86-.08,1.45.08,3.82.15,5.27.23Z"/>
</svg>