<?xml version="1.0" encoding="UTF-8"?>
<svg id="Layer_1" data-name="Layer 1" xmlns="http://www.w3.org/2000/svg" viewBox="0 0 114.58 92.68">
  <defs>
    <style>
      .cls-1 {
        fill: #757676;
      }

      .cls-1, .cls-2 {
        fill-rule: evenodd;
      }

      .cls-2 {
        fill: #989898;
      }
    </style>
  </defs>
  <path class="cls-1" d="M13.38,67.3v3.84h3.14v3.23h-3.14v5.1c0,1.7.43,2.48,1.73,2.48.61,0,.89-.03,1.3-.12l.03,3.32c-.55.2-1.61.38-2.83.38-1.41,0-2.59-.49-3.32-1.21-.81-.84-1.21-2.2-1.21-4.18v-5.77h-1.87v-3.23h1.87v-2.66l4.3-1.18h0ZM108.8,81.83h0c0,1.33.06,2.63.23,3.4h-3.95l-.26-1.41h-.09c-.92,1.13-2.36,1.73-4.04,1.73-2.85,0-4.56-2.08-4.56-4.33,0-3.66,3.29-5.39,8.28-5.39v-.17c0-.75-.4-1.82-2.57-1.82-1.44,0-2.97.49-3.89,1.04l-.81-2.8c.98-.55,2.91-1.27,5.48-1.27,4.7,0,6.17,2.77,6.17,6.08v4.93h0ZM104.56,78.57h0c-2.31,0-4.09.55-4.09,2.22,0,1.13.75,1.67,1.73,1.67,1.07,0,1.99-.72,2.28-1.61.06-.23.09-.49.09-.75v-1.53h0ZM95.76,84.86h0c-.78.38-2.25.66-3.92.66-4.56,0-7.47-2.8-7.47-7.21,0-4.09,2.83-7.47,8.07-7.47,1.15,0,2.42.2,3.34.54l-.69,3.26c-.52-.23-1.3-.43-2.45-.43-2.31,0-3.81,1.64-3.78,3.92,0,2.59,1.73,3.95,3.86,3.95,1.04,0,1.85-.17,2.51-.46l.52,3.23h0ZM74.35,79.58h0c.14,1.81,1.93,2.68,3.98,2.68,1.5,0,2.71-.2,3.89-.6l.58,2.97c-1.44.61-3.2.89-5.1.89-4.79,0-7.53-2.77-7.53-7.18,0-3.57,2.25-7.53,7.12-7.53,4.56,0,6.29,3.55,6.29,7.04,0,.75-.09,1.41-.14,1.73h-9.08ZM79.51,76.58h0c0-1.06-.46-2.85-2.45-2.85-1.87,0-2.62,1.7-2.74,2.85h5.19ZM66.6,67.3h0v3.84h3.14v3.23h-3.14v5.1c0,1.7.43,2.48,1.73,2.48.61,0,.89-.03,1.3-.12l.03,3.32c-.55.2-1.61.38-2.83.38-1.41,0-2.59-.49-3.32-1.21-.81-.84-1.21-2.2-1.21-4.18v-5.77h-1.87v-3.23h1.87v-2.66l4.3-1.18h0ZM48.14,82.69h0l4.44-5.54c.81-.92,1.44-1.64,2.25-2.48v-.06h-6.2v-3.49h11.53v2.65l-4.24,5.33c-.78.89-1.5,1.79-2.31,2.56v.06h6.78v3.49h-12.25v-2.54h0ZM46.8,81.83h0c0,1.33.06,2.63.23,3.4h-3.95l-.26-1.41h-.09c-.92,1.13-2.36,1.73-4.04,1.73-2.85,0-4.56-2.08-4.56-4.33,0-3.66,3.29-5.39,8.28-5.39v-.17c0-.75-.4-1.82-2.57-1.82-1.44,0-2.97.49-3.89,1.04l-.81-2.8c.98-.55,2.91-1.27,5.48-1.27,4.7,0,6.17,2.77,6.17,6.08v4.93h0ZM42.56,78.57h0c-2.31,0-4.09.55-4.09,2.22,0,1.13.75,1.67,1.73,1.67,1.07,0,1.99-.72,2.28-1.61.06-.23.09-.49.09-.75v-1.53h0ZM21.3,71.14h0l1.9,6.54c.35,1.18.58,2.31.81,3.43h.09c.23-1.15.46-2.22.78-3.43l1.82-6.54h4.61l-5.25,14.1h-4.38l-5.13-14.1h4.76Z"/>
  <g>
    <path class="cls-2" d="M73.48,20.38c3.12,0,3.7,2.14,5.42,4.74,2.43,3.67,19.23,29.24,19.09,31-.14,1.76-7.31,6.5-16.11,5.14-8.8-1.35-15.57-11.77-15.57-28.69,0-5.82,3.25-12.18,7.17-12.18Z"/>
    <path class="cls-2" d="M76.49,10.64c.66.54.03.77-1.68,2.3-2.56,2.29-17.57,18-5.38,40.47,3.47,6.39.81,10.02-4.33,10.96-4.62.85-7.14-6.64-7.72-10.42,0,0-5.42-24.77,10.24-38.13,0,0,7.55-6.26,8.88-5.18Z"/>
    <path class="cls-2" d="M73.29,9.28c.51.6-2.16,2.16-4.06,2.97-1.9.81-18.56,10.16-14.9,39.94,0,0,2.71,9.88-3.11,11.51-5.82,1.62-8.29-4.6-7.87-11.64.42-7.04,3.46-31.81,23.19-40.74,0,0,5.93-2.98,6.75-2.03Z"/>
    <path class="cls-2" d="M68.75,8.07c.54.81-.23.97-3.88,2.45-3.66,1.48-22.79,11.9-23.33,37.48,0,0,.95,10.83-5.96,11.23-6.9.41-5.96-9.75-5.28-14.21.68-4.47,8.22-24.41,24.23-32.08,14.41-6.9,14.22-4.87,14.22-4.87Z"/>
    <path class="cls-2" d="M30.77,36.6s5.28-11.54,9.61-14.93c4.33-3.38,5.82-7.17-.81-8.12-6.63-.95-28.03-2.3-28.43-.81-.41,1.49,15.43,10.02,19.63,23.86Z"/>
    <path class="cls-1" d="M66.63,38.76c1.45,13.25,7.57,21.32,15.24,22.5,8.8,1.35,15.98-3.38,16.11-5.14.07-.91-4.42-8.24-9.1-15.59-9.54-.42-16.62-1-22.26-1.76Z"/>
    <path class="cls-1" d="M64.82,38.63c-3-.43-5.58-.92-7.9-1.48-1.22,9.12.46,16.81.46,16.81.58,3.78,3.1,11.27,7.72,10.42,5.14-.95,7.8-4.57,4.33-10.96-2.89-5.34-4.25-10.3-4.61-14.78Z"/>
    <path class="cls-1" d="M54.37,36.5c-2.61-.73-4.95-1.56-7.29-2.5-2.77,7.61-3.54,14.76-3.74,18.05-.42,7.04,2.05,13.26,7.87,11.64,5.82-1.62,3.11-11.51,3.11-11.51-.74-6.02-.63-11.22.04-15.69Z"/>
    <path class="cls-1" d="M44.42,32.87c-2.28-.98-4.66-2.06-7.41-3.25-4.2,6.71-6.37,13.1-6.72,15.4-.68,4.47-1.62,14.62,5.28,14.21,6.91-.41,5.96-11.23,5.96-11.23.12-5.8,1.22-10.82,2.89-15.13Z"/>
    <path class="cls-1" d="M33.4,28.29c-3.61-1.51-6.63-2.49-9.15-3.1,2.75,3.24,5.21,7.06,6.52,11.4,0,0,1.75-3.82,4.05-7.7-.46-.2-.94-.4-1.42-.6Z"/>
  </g>
</svg>