<?xml version="1.0" encoding="UTF-8"?>
<svg id="Layer_1" data-name="Layer 1" xmlns="http://www.w3.org/2000/svg" viewBox="0 0 219.9 92.68">
  <defs>
    <style>
      .cls-1 {
        fill: #757676;
      }
    </style>
  </defs>
  <path class="cls-1" d="M52.57,86.38c-.39,0-.79,0-1.18,0-15.71-.09-33.28-2.87-39.04-19.78-3.74-10.98-3.74-27.02-.41-38.1C17.8,8.91,38.31,7,55.84,7.47c15.13.41,30.79,4.2,35.95,20.24,3.62,11.27,3.64,28.18-.33,39.36-5.88,16.53-23.45,19.23-38.89,19.31ZM30.75,28.98c-5.07.42-8.44,5.83-6.54,10.58,3.49,7.98,6.44,16.21,9.98,24.17.92,2.07,1.88,3.63,4.02,4.63,6.37,3,12.97-3,10.75-9.57-3.41-7.95-6.44-16.08-9.9-24.01-1.59-3.63-3.97-6.16-8.32-5.8ZM51.29,28.98c-5.05.39-8.47,5.86-6.54,10.58,3.57,8.09,6.5,16.5,10.14,24.56,4.27,9.46,17.45,4.37,14.64-5.27-3.54-8.13-6.54-16.53-10.15-24.62-1.51-3.39-4.16-5.55-8.08-5.25ZM71.84,28.98c-4.17.32-7.34,4.14-7.07,8.28.12,1.93,2.29,6.93,3.22,8.82,3.72,7.58,15.13,4.63,14.81-3.63-.08-2.05-2.19-6.82-3.13-8.83-1.43-3.04-4.4-4.91-7.82-4.64Z"/>
  <path class="cls-1" d="M211.02,32.73v.08l-4.57.04-4.29-7.44h-2.48v7.36c0,.09-.19.11-.27.12-.77.09-2.36.05-3.16,0-.2-.01-.39-.09-.59-.08V13.93h9.17c2.62.23,5.19,1.6,5.68,4.39.55,3.13-1.17,5.52-3.99,6.67l4.49,7.75ZM199.69,21.8h4.45c.42,0,1.33-.27,1.69-.52,1.04-.73,1-2.68-.1-3.35-.16-.1-.9-.38-1.04-.38h-5v4.25Z"/>
  <path class="cls-1" d="M104.72,13.93l3.23,12.35,3.3-12.44,3.89.02,3.32,12.42,3.11-12.35h4.21l-5.23,18.88c-.06.09-.15.07-.23.08-.73.09-2.98.09-3.71,0-.07,0-.14,0-.2-.04l-3.26-12.47-3.23,12.43h-4.18s-5.23-18.88-5.23-18.88h4.21Z"/>
  <polygon class="cls-1" points="108.02 37.22 113.81 51.3 119.4 37.22 123.57 37.22 123.57 56.17 119.64 56.17 119.64 46.58 115.51 56.18 111.88 56.1 107.91 46.66 107.91 56.17 103.97 56.17 103.97 37.22 108.02 37.22"/>
  <path class="cls-1" d="M117.79,79.54c-.14-.05-.57-1.84-.67-2.12-2.22,2.8-6.19,3.08-9.32,1.72-6.64-2.89-7.53-12.67-1.81-16.97,4.48-3.37,12.02-2.42,14.43,2.97l-3.02,2.13c-1.21-2.51-3.72-3.87-6.5-3.35-6.71,1.25-6.05,13.19,1.83,12.14,1.91-.25,3.34-1.63,3.68-3.52h-5.79s-.12-.11-.12-.12v-3.26h10v10.38h-2.72Z"/>
  <path class="cls-1" d="M165.05,13.93l7.95,12.11v-12.11h3.94v18.96h-3.9l-8.07-12.27v12.15c0,.09-.19.11-.27.12-.75.09-2.3.05-3.08,0-.2-.01-.39-.09-.59-.08V13.93h4.01Z"/>
  <path class="cls-1" d="M148.51,60.21c13.12-.68,13.79,19.33.85,19.73s-13.57-19.06-.85-19.73ZM148.74,63.99c-7.76.36-6.94,13.37,1.29,12.07,6.7-1.05,6.13-12.41-1.29-12.07Z"/>
  <path class="cls-1" d="M143.56,13.93h9.17c3.68.3,6.37,2.72,5.68,6.63-.39,2.2-2.03,3.58-3.99,4.43l4.49,7.83-4.57.04-4.29-7.44h-2.48v7.36s-.11.12-.12.12h-3.62s-.18-.12-.28-.08V13.93ZM147.58,21.8h4.45c.45,0,1.36-.27,1.73-.55,1.03-.77.95-2.64-.14-3.32-.19-.12-.85-.38-1.04-.38h-5v4.25Z"/>
  <path class="cls-1" d="M123.1,60.58h8.86c3.51.21,6.38,2.2,6.1,6.02-.18,2.49-1.87,4.16-4.09,5.04l4.49,7.91h-4.53l-4.33-7.47h-2.48v7.47h-4.01v-18.96ZM127.11,68.45h4.84c.34,0,1.24-.38,1.5-.63.74-.68.76-2.26.04-2.96-.31-.3-1.2-.67-1.62-.67h-4.76v4.25Z"/>
  <path class="cls-1" d="M193.23,13.93v3.62h-9.21v3.7h8.42v3.62h-8.42v4.33h9.29v3.58s-.11.12-.12.12h-13.15s-.12-.11-.12-.12V13.93h13.3Z"/>
  <path class="cls-1" d="M155.37,43.82c-.61-2.44-2.35-3.53-4.84-3.3-2.05.19-2.96,2.02-1.04,3.16,2.89,1.71,8.04.9,9.22,5.26,2.25,8.23-11.65,10.83-14.6,2.72-.17-.46-.29-.93-.4-1.41l3.39-1.74.24-.04c.32,2.7,1.78,4.62,4.69,4.49,1.34-.06,2.95-.76,2.87-2.33-.1-2.1-3.66-2.4-5.2-2.83-2.87-.8-5.33-2.69-5.11-5.97.33-4.7,6.48-5.85,10.09-4.36,2,.82,3.26,2.45,3.98,4.45l-3.3,1.91Z"/>
  <path class="cls-1" d="M183.32,73.17v6.37h-3.98s-.12-.11-.12-.12v-18.84h9.41c4.44.19,7.39,3.65,6.22,8.1-.92,3.51-4.16,4.37-7.4,4.49-1.37.05-2.76-.04-4.14,0ZM183.32,69.47h5c.27,0,1.1-.23,1.38-.36,1.79-.79,1.8-3.62.08-4.49-.18-.09-.9-.35-1.07-.35h-5.39v5.19Z"/>
  <path class="cls-1" d="M137.98,37.22h4.01v12.47c-.63,9.5-15.58,9.04-15.67-.39v-12.08h3.98s.12.11.12.12v12.19c0,.06.11.47.13.57,1,4.08,7.42,3.38,7.42-.97v-11.92Z"/>
  <path class="cls-1" d="M181.74,44.37c-.73-1.88-2.28-3.49-4.38-3.69-7.9-.76-8.54,10.85-1.86,12,3,.52,5.21-1.11,6.52-3.67l3.15,2.2c.08.08,0,.13-.04.2-.34.62-1.2,1.7-1.7,2.24-2.28,2.5-5.23,3.28-8.56,2.81-10.04-1.41-10.86-16.15-1.52-19.1,4.44-1.4,9.88.1,11.68,4.67l-3.29,2.33Z"/>
  <path class="cls-1" d="M164.82,60.58v11.29c.15,2.83,1.36,4.44,4.37,4.21,2.27-.17,3.22-2.05,3.27-4.13v-11.37s4.01,0,4.01,0v12.31c-.6,9.56-15.29,9.28-15.67-.08v-12.24h4.02Z"/>
  <path class="cls-1" d="M123.53,32.89s-.15-.11-.09-.16l7.56-18.72c.06-.09.15-.07.23-.08.67-.08,2.64-.08,3.31,0,.11.01.21,0,.26.13l7.56,18.76-4.25.04-1.94-4.84-6.64.04c-.67,1.6-1.17,3.28-1.93,4.84h-4.09ZM134.83,24.39l-1.93-5.19-1.93,5.19h3.86Z"/>
  <path class="cls-1" d="M165.13,56.17h-4.09v-18.96h3.98s.12.11.12.12v18.84Z"/>
</svg>